<svg width="260" height="260" viewBox="0 0 260 260" fill="none" xmlns="http://www.w3.org/2000/svg">
<path d="M0 40C0 17.9086 17.9086 0 40 0H220C242.091 0 260 17.9086 260 40V220C260 242.091 242.091 260 220 260H40C17.9086 260 0 242.091 0 220V40Z" fill="#0369A1"/>
<path d="M58.6469 64.6C65.5802 64.6 72.6469 64.6 79.8469 64.6C87.1802 64.6 94.3802 64.7333 101.447 65C108.514 65.2667 115.18 65.6667 121.447 66.2L120.247 84.8H66.2469C62.5135 84.8 59.7135 85.7333 57.8469 87.6C56.1135 89.4667 55.2469 92.4 55.2469 96.4V171.6C55.2469 175.6 56.1135 178.533 57.8469 180.4C59.7135 182.267 62.5135 183.2 66.2469 183.2H120.247L121.447 201.8C115.18 202.333 108.514 202.733 101.447 203C94.3802 203.133 87.1802 203.2 79.8469 203.2C72.6469 203.333 65.5802 203.4 58.6469 203.4C50.1135 203.4 43.2469 201.067 38.0469 196.4C32.9802 191.6 30.3802 185.2 30.2469 177.2V90.8C30.3802 82.8 32.9802 76.4667 38.0469 71.8C43.2469 67 50.1135 64.6 58.6469 64.6ZM33.8469 121.6H112.647V140H33.8469V121.6Z" fill="white"/>
<path d="M196.138 62.6C202.404 62.6 207.737 62.8 212.137 63.2C216.537 63.4667 220.604 63.9333 224.338 64.6C228.071 65.1333 231.937 65.9333 235.938 67L233.738 85.6C229.604 85.3333 225.737 85.1333 222.137 85C218.537 84.7333 214.671 84.5333 210.538 84.4C206.538 84.2667 201.738 84.2 196.138 84.2C188.404 84.2 182.338 85.7333 177.938 88.8C173.538 91.8667 170.404 97 168.538 104.2C166.804 111.4 165.938 121.333 165.938 134C165.938 146.667 166.804 156.6 168.538 163.8C170.404 171 173.538 176.133 177.938 179.2C182.338 182.267 188.404 183.8 196.138 183.8C205.071 183.8 212.538 183.667 218.538 183.4C224.671 183 230.671 182.467 236.538 181.8L238.738 200.2C232.738 202.067 226.538 203.4 220.138 204.2C213.738 205 205.738 205.4 196.138 205.4C182.271 205.4 171.204 203.133 162.938 198.6C154.671 193.933 148.671 186.4 144.938 176C141.337 165.6 139.538 151.6 139.538 134C139.538 116.4 141.337 102.4 144.938 92C148.671 81.6 154.671 74.1333 162.938 69.6C171.204 64.9333 182.271 62.6 196.138 62.6Z" fill="white"/>
</svg>
