<svg width="1280" height="455" viewBox="0 0 1280 455" fill="none" xmlns="http://www.w3.org/2000/svg">
<path d="M226.89 0.26001C101.777 0.26001 0 102.047 0 227.15C0 352.253 101.777 454.04 226.89 454.04C352.003 454.04 453.78 352.253 453.78 227.15C453.78 102.047 351.993 0.26001 226.89 0.26001Z" fill="#00243F"/>
<path d="M186.507 122.535L272.203 296.856H355.213L267.564 122.535H186.507Z" fill="url(#paint0_linear)"/>
<path d="M267.545 122.535L181.848 296.856H98.8389L186.487 122.535H267.545Z" fill="white"/>
<path d="M649.947 172.608C642.833 161.408 627.044 154.445 607.773 154.445C588.191 154.445 571.486 161.489 558.113 175.416C544.95 189.182 538.269 206.47 538.269 226.928C538.269 247.578 544.759 264.514 558.123 278.723C571.577 292.448 588.312 299.412 607.773 299.412C627.044 299.412 642.833 292.448 649.947 281.299V296.474H685.168V157.423H649.947V172.608ZM640.609 255.709C632.981 263.336 623.391 267.211 612.101 267.211C606.902 267.324 601.735 266.363 596.925 264.388C592.114 262.412 587.764 259.464 584.146 255.729C576.87 248.181 573.177 238.501 573.177 226.928C573.177 215.356 576.87 205.675 584.136 198.148C587.753 194.408 592.104 191.457 596.917 189.479C601.729 187.502 606.899 186.541 612.101 186.656C623.391 186.656 632.981 190.521 640.629 198.168C648.277 205.816 652.383 215.346 652.383 226.928C652.383 238.511 648.428 248.151 640.629 255.688L640.609 255.709Z" fill="#00243F"/>
<path d="M797.219 154.717C779.981 154.717 765.732 161.761 757.973 173.705V157.424H723.115V296.433H758.024V223.396C758.024 201.721 771.589 188.256 793.435 188.256C797.886 188.26 802.325 188.705 806.688 189.585L808.318 189.907V155.773L807.222 155.552C803.922 154.953 800.572 154.673 797.219 154.717Z" fill="#00243F"/>
<path d="M901.29 185.298C907.597 185.195 913.854 186.429 919.649 188.92C925.444 191.411 930.645 195.101 934.91 199.749L935.917 200.755L957.814 177.972L956.938 177.026C942.136 161.127 923.418 153.066 901.32 153.066C880.319 153.066 862.266 160.201 847.644 174.269C833.023 188.337 825.858 205.464 825.858 226.597C825.858 247.729 833.194 265.319 847.644 279.226C862.095 293.133 880.138 300.167 901.32 300.167C923.459 300.167 942.136 292.117 956.938 276.207L957.814 275.261L935.856 252.579L934.85 253.585C930.583 258.23 925.381 261.918 919.587 264.407C913.792 266.896 907.535 268.129 901.23 268.026C889.758 268.026 879.987 264.071 872.188 256.272C864.55 248.373 860.676 238.41 860.676 226.667C860.676 214.923 864.55 204.971 872.178 197.082C880.047 189.263 889.818 185.298 901.29 185.298Z" fill="#00243F"/>
<path d="M1102.81 157.423H1084.01L1045.49 209.751L1007.25 157.423H988.455L1036.24 222.883L984.179 296.433H1002.94L1045.76 236.045L1088.59 296.433H1107.35L1055.02 222.621L1102.81 157.423Z" fill="#00243F"/>
<path d="M1259.62 174.883C1246.25 161.006 1229.54 153.962 1209.96 153.962C1196.66 153.962 1184.68 157.212 1174.34 163.632C1166.45 168.664 1160.8 174.319 1157.23 180.739V157.423H1140.97V348.62H1157.24V273.148C1160.84 279.729 1166.58 285.545 1174.35 290.516C1184.41 296.745 1196.36 299.915 1209.95 299.915C1229.53 299.915 1246.24 292.871 1259.61 278.944C1273.14 264.856 1280 247.346 1280 226.888C1280 206.43 1273.15 188.961 1259.62 174.883ZM1209.96 284.509C1194.16 284.509 1181.49 279.256 1171.2 268.408C1160.91 257.56 1155.62 243.583 1155.62 226.898C1155.62 210.395 1160.86 196.528 1171.2 185.64C1181.53 174.752 1194.56 169.298 1209.96 169.298C1225.37 169.298 1237.8 174.732 1248.2 185.912C1258.54 196.78 1263.78 210.556 1263.78 226.878C1263.78 242.979 1258.54 256.725 1248.19 267.865C1237.85 279.004 1225.3 284.509 1209.96 284.509Z" fill="#00243F"/>
<defs>
<linearGradient id="paint0_linear" x1="362.87" y1="287.719" x2="178.044" y2="132.628" gradientUnits="userSpaceOnUse">
<stop stop-color="#4FBEA2"/>
<stop offset="0.25" stop-color="#4DBDA4"/>
<stop offset="0.39" stop-color="#44BAAA"/>
<stop offset="0.51" stop-color="#36B5B5"/>
<stop offset="0.61" stop-color="#22AEC5"/>
<stop offset="0.71" stop-color="#09A5D8"/>
<stop offset="0.73" stop-color="#00A2DF"/>
</linearGradient>
</defs>
</svg>
