<?xml version="1.0" encoding="UTF-8" standalone="no"?>
<!-- Created with Inkscape (http://www.inkscape.org/) -->

<svg
   xmlns:dc="http://purl.org/dc/elements/1.1/"
   xmlns:cc="http://creativecommons.org/ns#"
   xmlns:rdf="http://www.w3.org/1999/02/22-rdf-syntax-ns#"
   xmlns:svg="http://www.w3.org/2000/svg"
   xmlns="http://www.w3.org/2000/svg"
   xmlns:sodipodi="http://sodipodi.sourceforge.net/DTD/sodipodi-0.dtd"
   xmlns:inkscape="http://www.inkscape.org/namespaces/inkscape"
   width="302.36032"
   height="45.744274"
   id="svg12696"
   version="1.1"
   inkscape:version="0.47 r22583"
   sodipodi:docname="New document 3">
  <defs
     id="defs12698">
    <inkscape:perspective
       sodipodi:type="inkscape:persp3d"
       inkscape:vp_x="0 : 526.18109 : 1"
       inkscape:vp_y="0 : 1000 : 0"
       inkscape:vp_z="744.09448 : 526.18109 : 1"
       inkscape:persp3d-origin="372.04724 : 350.78739 : 1"
       id="perspective12704" />
    <inkscape:perspective
       id="perspective12674"
       inkscape:persp3d-origin="0.5 : 0.33333333 : 1"
       inkscape:vp_z="1 : 0.5 : 1"
       inkscape:vp_y="0 : 1000 : 0"
       inkscape:vp_x="0 : 0.5 : 1"
       sodipodi:type="inkscape:persp3d" />
  </defs>
  <sodipodi:namedview
     id="base"
     pagecolor="#ffffff"
     bordercolor="#666666"
     borderopacity="1.0"
     inkscape:pageopacity="0.0"
     inkscape:pageshadow="2"
     inkscape:zoom="1.979899"
     inkscape:cx="263.373"
     inkscape:cy="30.067409"
     inkscape:document-units="px"
     inkscape:current-layer="layer1"
     showgrid="false"
     inkscape:window-width="1280"
     inkscape:window-height="750"
     inkscape:window-x="-8"
     inkscape:window-y="-8"
     inkscape:window-maximized="1" />
  <metadata
     id="metadata12701">
    <rdf:RDF>
      <cc:Work
         rdf:about="">
        <dc:format>image/svg+xml</dc:format>
        <dc:type
           rdf:resource="http://purl.org/dc/dcmitype/StillImage" />
        <dc:title></dc:title>
      </cc:Work>
    </rdf:RDF>
  </metadata>
  <g
     inkscape:label="Layer 1"
     inkscape:groupmode="layer"
     id="layer1"
     transform="translate(-40.580182,-350.81583)">
    <g
       transform="matrix(3.9377011,0,0,-3.9377011,-250.19148,712.26529)"
       id="g12647">
      <path
         id="path1642"
         style="fill:#1162a5;fill-opacity:1;fill-rule:nonzero;stroke:none"
         d="m 89.947,90.709 c -0.328,-0.235 -0.679,-0.605 -0.881,-0.901 -0.23,0.289 -0.622,0.635 -0.921,0.84 0.295,0.231 0.743,0.69 0.921,0.942 0.178,-0.25 0.612,-0.674 0.881,-0.881" />
      <path
         id="path1644"
         style="fill:#1162a5;fill-opacity:1;fill-rule:nonzero;stroke:none"
         d="m 95.286,88.389 c -0.048,-0.61 -0.515,-1.225 -1.165,-1.225 -0.606,0 -0.98,0.246 -1.185,0.678 l -0.081,-0.05 0,-4.103 c 0.346,-0.185 0.886,-0.51 1.185,-0.709 l 0.648,0.668 0.101,-0.089 -1.55,-1.611 c -0.687,0.497 -1.635,1.072 -2.218,1.347 l 0,0.031 c 0.274,0.17 0.375,0.436 0.375,1.083 l 0,2.806 c 1.063,0.414 1.904,1.003 2.502,1.529 0.117,-0.193 0.386,-0.435 0.729,-0.435 0.285,0 0.508,0.064 0.619,0.142 l 0.04,-0.062 z" />
      <path
         id="path1646"
         style="fill:#1162a5;fill-opacity:1;fill-rule:nonzero;stroke:none"
         d="m 90.879,83.284 -1.296,-1.346 c -0.336,0.285 -0.939,0.68 -1.448,0.962 l 0,0.032 c 0.192,0.08 0.323,0.394 0.323,0.789 l 0,3.696 -0.465,0.324 -0.375,-0.384 -0.091,0.09 1.266,1.326 c 0.302,-0.249 0.915,-0.662 1.428,-0.941 l 0,-0.02 C 90.013,87.687 89.917,87.285 89.917,86.82 l 0,-3.536 0.486,-0.304 0.375,0.397 0.101,-0.093 z" />
      <path
         id="path1648"
         style="fill:#1162a5;fill-opacity:1;fill-rule:nonzero;stroke:none"
         d="m 87.902,83.266 -1.287,-1.328 c -0.263,0.204 -0.791,0.56 -1.144,0.749 l 0,4.457 c -0.279,0.127 -0.66,0.405 -0.82,0.557 l -0.456,-0.476 0,-3.93 0.638,-0.363 0,-0.032 -0.942,-0.962 c -0.358,0.304 -0.976,0.701 -1.459,0.951 l 0,0.021 c 0.172,0.162 0.294,0.447 0.294,0.992 l 0,6.686 c 0,0.506 -0.091,0.658 -0.192,0.83 l 0.07,0.03 c 0.223,-0.193 0.362,-0.356 0.416,-0.698 l 0.021,0 c 0.326,0.544 0.731,0.901 1.519,1.002 l 0.02,-0.041 C 84.36,91.443 84.195,91.15 84.195,90.699 l 0,-3.282 1.256,1.327 c 0.425,-0.355 1.144,-0.912 1.772,-1.236 l 0,-0.029 C 87.051,87.295 86.95,86.942 86.95,86.332 l 0,-3.066 0.476,-0.305 0.385,0.394 0.091,-0.089 z" />
      <path
         id="path1650"
         style="fill:#1162a5;fill-opacity:1;fill-rule:nonzero;stroke:none"
         d="m 80.123,82.343 -0.111,0 0,7.525 0.111,0 0,-7.525 z" />
      <path
         id="path1652"
         style="fill:#1162a5;fill-opacity:1;fill-rule:nonzero;stroke:none"
         d="m 82.169,83.467 c -0.656,-0.764 -1.894,-2.016 -3.808,-2.016 -2.605,0 -4.518,1.77 -4.518,4.791 0,2.773 2.287,4.31 3.768,4.882 l 0.122,-0.061 c -1.397,-0.926 -2.148,-2.047 -2.148,-4 0,-1.723 0.618,-2.95 1.55,-3.667 l 0.314,0.213 0,4.315 c 0,0.779 -0.141,1.326 -0.375,1.517 l 0,0.063 c 1.145,0.535 2.33,1.377 3.151,2.127 0.253,-0.296 0.567,-0.426 0.962,-0.426 0.43,0 0.719,0.152 0.911,0.293 l 0.071,-0.06 c -0.038,-0.881 -0.506,-1.701 -1.61,-1.701 -0.689,0 -1.064,0.232 -1.408,0.628 l -0.051,-0.01 0,-5.835 c -0.539,-0.302 -1.419,-0.905 -1.843,-1.225 0.631,-0.436 1.551,-0.516 2.492,-0.516 0.88,0 1.661,0.344 2.37,0.839 l 0.05,-0.151 z" />
      <path
         id="path1654"
         style="fill:#1162a5;fill-opacity:1;fill-rule:nonzero;stroke:none"
         d="m 108.988,82.88 0,4.193 c -0.342,0.212 -0.894,0.643 -1.113,0.82 l -0.162,-0.091 0,-4.193 c 0.235,-0.138 0.689,-0.486 1.115,-0.82 l 0.16,0.091 z m 1.805,4.599 c -0.204,-0.092 -0.324,-0.375 -0.324,-0.954 l 0,-3.017 c -0.602,-0.264 -1.976,-1.031 -2.665,-1.58 -0.719,0.525 -1.094,0.81 -1.894,1.246 l 0,0.029 c 0.203,0.123 0.335,0.457 0.335,0.983 l 0,2.978 c 0.921,0.445 1.923,1.074 2.633,1.59 0.456,-0.334 1.358,-0.952 1.915,-1.246 l 0,-0.029 z" />
      <path
         id="path1656"
         style="fill:#1162a5;fill-opacity:1;fill-rule:nonzero;stroke:none"
         d="m 103.408,83.203 0,3.91 c -0.494,0.305 -0.921,0.617 -1.124,0.791 l -0.152,-0.092 0,-4.173 c 0.248,-0.142 0.775,-0.522 1.013,-0.699 l 0.263,0.263 z m 2.076,-0.789 c 0,-0.395 -0.562,-0.81 -1.164,-1.295 -0.788,-0.639 -1.195,-0.944 -1.195,-0.944 -0.391,0.221 -0.616,0.284 -1.195,0.284 -0.731,0 -1.145,-0.076 -1.661,-0.284 l -0.031,0.011 c 0.416,0.775 1.242,1.418 2.4,1.418 0.517,0 1.101,-0.215 1.48,-0.467 0.101,0.064 0.425,0.301 0.425,0.476 0,0.518 -0.955,0.469 -1.114,1.418 l -1.094,-1.103 c -0.481,0.38 -1.456,1.002 -1.976,1.275 l 0,0.041 c 0.224,0.143 0.315,0.336 0.315,0.831 l 0,3.089 c 1.072,0.565 2.054,1.131 2.654,1.59 0.47,-0.391 1.381,-0.971 1.883,-1.246 l 0,-0.029 c -0.232,-0.143 -0.314,-0.366 -0.314,-1.176 l 0,-2.451 c 0,-0.821 0.587,-0.759 0.587,-1.438" />
      <path
         id="path1658"
         style="fill:#1162a5;fill-opacity:1;fill-rule:nonzero;stroke:none"
         d="m 97.655,83.021 0,2.706 c -0.881,-0.105 -1.377,-0.73 -1.377,-1.511 0,-0.595 0.425,-1.204 1.074,-1.406 l 0.303,0.211 z m 0,2.836 0,1.206 c -0.361,0.208 -0.979,0.638 -1.255,0.861 l -0.162,-0.102 c 0.05,-0.714 0.149,-1.648 0.627,-2.128 0.174,0.06 0.582,0.139 0.79,0.163 m 2.543,-2.603 -1.297,-1.306 c -0.316,0.263 -0.934,0.698 -1.286,0.87 l -0.01,0 c -0.441,-0.313 -0.797,-0.578 -1.226,-0.88 -0.769,0.253 -1.387,0.945 -1.387,1.751 0,1.086 0.875,1.645 1.681,1.935 l 0,0.011 c -0.694,0.336 -1.262,0.973 -1.418,1.742 l 2.228,1.377 c 0.437,-0.373 1.439,-1.024 1.996,-1.337 l 0,-0.03 C 99.205,87.204 99.135,86.98 99.135,86.404 l 0,-3.058 0.587,-0.376 0.375,0.385 0.101,-0.101 z" />
      <path
         id="path1660"
         style="fill:#1162a5;fill-opacity:1;fill-rule:nonzero;stroke:none"
         d="m 146.102,83.244 -1.297,-1.316 c -0.325,0.256 -0.851,0.595 -1.144,0.759 l 0,4.487 c -0.216,0.131 -0.549,0.385 -0.689,0.507 l -0.608,-0.618 0,-3.779 c 0.199,-0.086 0.486,-0.261 0.628,-0.364 l 0,-0.031 -0.941,-0.961 c -0.343,0.287 -0.953,0.677 -1.47,0.952 l 0,0.03 c 0.213,0.121 0.315,0.374 0.315,0.953 l 0,3.291 -0.698,0.557 -0.376,-0.385 -0.092,0.091 1.297,1.327 c 0.227,-0.242 0.875,-0.769 1.337,-1.053 l 0,-0.396 1.377,1.449 c 0.477,-0.375 1.246,-0.867 1.692,-1.135 l 0,-0.031 c -0.243,-0.131 -0.314,-0.455 -0.314,-1.032 l 0,-3.262 0.506,-0.334 0.385,0.386 0.092,-0.092 z" />
      <path
         id="path1662"
         style="fill:#1162a5;fill-opacity:1;fill-rule:nonzero;stroke:none"
         d="m 140.318,83.274 -1.287,-1.336 c -0.346,0.283 -0.925,0.671 -1.266,0.861 l 0,0.467 -1.468,-1.338 c -0.588,0.486 -1.084,0.801 -1.61,1.062 l 0,0.031 c 0.271,0.147 0.334,0.416 0.334,1.054 l 0,3.321 -0.466,0.326 -0.395,-0.406 -0.101,0.091 1.286,1.337 c 0.248,-0.214 0.784,-0.596 1.135,-0.76 l 0,-4.578 c 0.151,-0.085 0.444,-0.283 0.688,-0.474 l 0.587,0.546 c 0,0 -0.001,2.876 0,3.929 -0.159,0.124 -0.46,0.284 -0.608,0.355 l 0,0.03 c 0.255,0.216 0.727,0.673 0.942,0.952 0.359,-0.289 1.081,-0.728 1.45,-0.932 l 0,-0.02 c -0.225,-0.104 -0.315,-0.345 -0.315,-0.87 l 0,-3.576 0.649,-0.366 0.364,0.375 0.081,-0.081 z" />
      <path
         id="path1664"
         style="fill:#1162a5;fill-opacity:1;fill-rule:nonzero;stroke:none"
         d="m 127.901,90.699 c -0.299,-0.208 -0.701,-0.652 -0.882,-0.902 -0.143,0.176 -0.516,0.57 -0.901,0.861 0.257,0.209 0.701,0.666 0.901,0.961 0.204,-0.259 0.638,-0.713 0.882,-0.92" />
      <path
         id="path1666"
         style="fill:#1162a5;fill-opacity:1;fill-rule:nonzero;stroke:none"
         d="m 128.853,83.274 -1.297,-1.346 c -0.387,0.31 -1.036,0.741 -1.459,0.961 l 0,0.031 c 0.223,0.143 0.315,0.426 0.315,0.851 l 0,3.625 -0.476,0.334 -0.365,-0.373 -0.092,0.09 1.267,1.317 c 0.355,-0.342 1.059,-0.752 1.428,-0.942 l 0,-0.02 c -0.208,-0.124 -0.304,-0.323 -0.304,-0.862 l 0,-3.666 0.506,-0.304 0.386,0.396 0.091,-0.092 z" />
      <path
         id="path1668"
         style="fill:#1162a5;fill-opacity:1;fill-rule:nonzero;stroke:none"
         d="m 125.571,88.34 c -0.046,-0.527 -0.517,-1.207 -1.104,-1.207 -0.429,0 -0.759,0.193 -0.982,0.508 l -0.152,-0.153 0,-3.94 c 0.357,-0.169 0.824,-0.449 1.022,-0.578 l 0.375,0.385 0.102,-0.089 -1.316,-1.338 c -0.611,0.462 -1.441,0.987 -1.935,1.235 l 0,0.011 c 0.216,0.077 0.304,0.254 0.304,0.605 l 0,3.385 -0.649,0.566 -0.364,-0.394 -0.092,0.092 1.246,1.316 c 0.372,-0.41 0.996,-0.885 1.287,-1.094 l 1.033,1.083 c 0.194,-0.239 0.406,-0.444 0.77,-0.444 0.141,0 0.293,0.04 0.405,0.09 l 0.05,-0.039 z" />
      <path
         id="path1670"
         style="fill:#1162a5;fill-opacity:1;fill-rule:nonzero;stroke:none"
         d="m 121.621,91.51 c -0.144,-1.121 -0.605,-2.119 -1.793,-2.119 -0.141,0 -0.405,0.021 -0.496,0.031 l 0,-6.643 c 0.719,0.101 1.597,0.45 1.945,0.729 l 0.051,-0.131 c -0.543,-0.778 -2.038,-1.967 -3.89,-1.967 -2.341,0 -4.153,1.542 -4.153,4.033 0,2.145 1.771,3.692 2.927,4.101 l 0.101,-0.04 c -0.807,-0.735 -1.377,-1.736 -1.377,-3.313 0,-1.315 0.537,-2.187 1.357,-2.836 l 0.364,0.233 0,3.262 c 0,0.688 -0.058,1.193 -0.455,1.338 l 0,0.05 c 0.529,0.219 1.506,0.701 2.107,1.073 l 0,-4.799 c -0.535,-0.294 -1.437,-0.908 -1.894,-1.258 0.527,-0.365 1.296,-0.547 2.096,-0.547 0.275,0 0.402,0.014 0.71,0.061 l 0,6.666 c -1.458,0.121 -3.012,0.726 -4.204,0.726 -0.837,0 -1.468,-0.342 -1.468,-0.98 0,-0.386 0.303,-0.552 0.496,-0.639 l -0.162,-0.09 c -0.356,0.161 -0.8,0.548 -0.8,1.367 0,1.192 0.959,1.974 2.248,1.974 1.783,0 3.46,-0.941 5.034,-0.941 0.486,0 0.936,0.257 1.165,0.729 l 0.091,-0.07 z" />
      <path
         id="path1672"
         style="fill:#1162a5;fill-opacity:1;fill-rule:nonzero;stroke:none"
         d="m 149.271,86.111 c -0.208,0.295 -0.864,1.272 -1.154,1.731 l -0.101,-0.08 0,-2.491 1.255,0.84 z m 1.358,0.699 c -0.844,-0.517 -1.848,-1.181 -2.613,-1.732 l 0,-1.43 c 0.338,-0.151 0.919,-0.51 1.185,-0.687 l 0.688,0.709 0.091,-0.082 -1.609,-1.66 c -0.5,0.361 -1.478,0.984 -2.169,1.356 l 0,0.03 c 0.222,0.063 0.346,0.386 0.346,1.095 l 0,2.755 c 0.951,0.426 1.832,1.012 2.541,1.59 l 1.54,-1.944 z" />
      <path
         id="path1674"
         style="fill:#1162a5;fill-opacity:1;fill-rule:nonzero;stroke:none"
         d="m 132.145,82.889 0,4.244 -0.801,0.548 -0.476,-0.456 0,-3.607 1.084,-0.829 0.193,0.1 z m 1.792,4.579 c -0.248,-0.103 -0.313,-0.415 -0.313,-1.136 l 0,-2.846 c -0.629,-0.22 -2.017,-0.941 -2.665,-1.558 -0.488,0.34 -1.266,0.873 -1.895,1.246 l 0,0.029 c 0.294,0.163 0.335,0.436 0.335,1.258 l 0,6.076 c 0,0.455 -0.081,0.688 -0.183,0.87 l 0.062,0.031 c 0.213,-0.182 0.355,-0.395 0.415,-0.688 l 0.021,0 c 0.326,0.543 0.732,0.892 1.518,0.992 l 0.011,-0.06 c -0.219,-0.27 -0.375,-0.51 -0.375,-1.034 l 0,-3.231 1.246,1.327 c 0.375,-0.336 1.34,-0.947 1.823,-1.246 l 0,-0.03 z" />
    </g>
  </g>
</svg>
