<svg viewBox="0 0 500 124.9" xmlns="http://www.w3.org/2000/svg"><g fill="#FFF"><path d="M402.5 49.1c3.9 0 6.9-3.5 6.9-6.9 0-2.7-1.9-5.4-4.9-5.4-3.9 0-6.9 3.5-6.9 6.9-.1 2.6 1.9 5.4 4.9 5.4z" fill="#000"></path><path d="M498.7 74.4c-.2 0-10.9 9-13.8 9-.4 0-.5-.5-.5-1.1 0-2.7 10.4-20 10.4-23.7 0-2.5-1.6-4-5.7-4-5.5 0-24.4 16.9-25.5 16.9-.3 0-.5-.4-.5-.6 0-.5 5-11.5 7.3-16.5h-9.1c-.5 0-1.1 1.1-1.5 2.7-1.3 5.3-11.6 14.9-12.9 15.9-.6.5-1.2 1-1.6 1.4-.4.1-2.9 2.8-5.6 2.8-.8 0-1.4 0-1.7-.2.2-1.3 1.3-2.9 1.3-4.2 0-1.3-.6-3-1-4 .6-.9 2.5-1.6 2.5-5.5 0-7.4-5.9-11.6-11.6-11.6-10.8 0-22.6 7.6-24.6 23.5-.4.4-.8.9-1.3 1.3-1.5 1.1-8.8 7-10.8 7-.5 0-.6-.6-.6-1 0-1 1-3.2 1.7-5l10.2-23h-10.1c-.5 1-1.1 3.8-1.9 5.3-1.6 3-25.4 24.5-27.9 24.5-.9 0-1.4-.9-1.4-1.8 0-1.9 7.1-18 13.6-35h5.8c2.3 0 3.1-1.9 3.1-4.9 0-1.8-.4-2.1-1.4-2.1h-4.9c2.1-6 6.1-14.6 6.1-17.2 0-2.6-.8-4.5-2.9-4.5-6.2 0-10.5 14.5-11.7 18.9l-.8 2.8h-6.9c-1.8 0-3.2 2-3.2 5.4 0 1.3.3 1.6 1.2 1.6h5.8l-3.6 10.4c-1.2 3.1-16.3 18-17 18.6-2.7 2.3-9.6 7.4-10.7 7.4-.6 0-1.1-.6-1.1-1.1 0-.6 4-10.3 6.9-15.3h-5.9c-.9 0-2.5-.3-3.2-.5-3.5 6.8-11.2 17.7-16.7 17.7-1.7 0-2.4-1.7-2.4-3.6V78c0-9.1 12.2-16.4 20.8-16.4 4.5 0 7.6 1.8 7.8 1.8.3 0 .6-.3.6-1 0-2.3-.4-6-.8-7.4-1.6-.6-5.5-.9-8.1-.9-12.3 0-32.3 8.4-32.3 23.9v2.5c0 8.5 4.9 13 10.7 13h2c4.9 0 7.7-2 10.9-5.4-.2 3.6.5 5.6 4.4 5.6 4.3 0 10.5-3.9 14.7-6.6 2.8-1.7 7.4-6.6 11.3-9.6h.2c-1.8 5-3.6 10.3-3.6 12.3 0 3.4 3.2 4 5.8 4 5.3 0 14.3-5.6 17.1-7.5 1.1-.7 5.6-4.4 7.9-6.2l.2.2c-.9 2.8-2.9 6.1-2.9 9.1 0 3.1 1.6 4.3 5.4 4.3 7.6 0 16.5-7 19.9-9.7 1.3 6.3 5.9 9.9 12.5 9.9 7.9 0 12.6-2.7 17.7-8.7 1 .5 2 .9 3.1.9 2 0 3.5-.6 5.8-1.7.1.2.1-.2.2-.2.5 0 3.9-3.7 4.5-3.7h.2c-1 2-3.3 7.6-3.3 10.2 0 1.4 1.1 3 3.1 3 3.3 0 6.9-4.1 15.1-11 3-2.4 15.3-13 16.6-13 .1 0 .2.2.2.4 0 1.2-8 15.8-8 19.5 0 3.1 2.5 4.4 6.2 4.4 5.3 0 17.2-7.2 20.3-10.4.4-.4 1.3-1.5 1.3-4.5-.1-3.3-.6-4.7-1.4-4.7zm-73.3 1.5c0 1.2.8 3.1 1.4 4.8-.9 2.1-4.5 4-6.7 4-3.5 0-5.8-1.6-5.8-6.6 0-9.8 7.2-16.8 11.9-16.8 3.5 0 4.7 2.4 4.7 4.2.1 2.4-5.5 3.5-5.5 10.4zm-190 18.5c11.4-11.6 31.6-59.4 35.1-68 2.3-6 5.1-8.9 8.5-8.9 5.4 0 6.6 3.3 6.6 11.1v42.7h.3c4.1-11.6 9-28.2 14.9-37.9 3.4-5.7 5.7-8.6 6.5-8.6 1.2 0 2.8 11.1 2.8 11.7 0 .3-.5 1.3-1.5 2.8-7.9 13.8-5 9-11.7 27.9-7.3 20.9-9.1 26-14.4 26-4.3 0-5.2-2.2-5.2-9.5v-49h-1c-6.3 14.9-17.5 45.4-28 59.5-.3.4-.8.2-1.4.2h-11.5zm4.6-20.2c-.3 0-8 6.1-13.6 10.2l-.2-.9c2.1-5.7 4.6-11.2 7.4-18.2h-9.2c-2.8 5-10.4 18.5-16.9 18.5-2.6 0-3-2.1-3-4.1v-2.9c0-7.8 8.5-15.5 19.9-15.5 6.9 0 8.6 1.5 9.1 1.5.6 0 .8-.5.8-4.8 0-3.7-.3-4.1-8.7-4.1-13.5 0-29.3 7-31.1 20.7-.6 3.3-1.3 3.2-2.2 3.7-1.1.7-3.1.9-4 .7-.6-.1-1.3-.8-1.3-1.7 0-1.7 6.8-12 6.8-17.1 0-2.4-.2-5.7-3.4-5.7-8 0-11.9 19.4-12.7 21.1-.5 1.4-7.7 10.3-11.1 10.3-.9 0-1.5-.7-1.5-1.3 0-1.9 7.3-21.5 7.3-23.7 0-1.7-1-2.9-3.1-2.9-3.5 0-5.4 3.8-7.8 8.6-4.1 8.1-14.5 19.2-17.4 19.2-.9 0-1.6-.5-1.6-1.5 0-1.8 11.9-27.6 11.9-29.1 0-.3-.5-1-1.5-1H147c-3.2 0-3.4 5.7-5 7.8-1.3 1.8-7.1 7.9-9.9 10.8-1.1 1-2.7 2.4-3.9 3.3-2.9 2.3-9.6 7.4-10.7 7.4-.6 0-1.1-.6-1.1-1.1 0-.6 4-10.3 6.9-15.3h-5.9c-.9 0-2.5-.3-3.2-.5-3.5 6.8-11.6 17.7-17 17.7-1.7 0-2.7-1.7-2.7-3.6v-3.1c0-9.1 12.6-16.4 21.2-16.4 4.5 0 7.7 1.8 7.9 1.8.3 0 .7-.3.7-1 0-2.3-.4-6-.7-7.4-1.6-.6-5.4-.9-7.9-.9-12.3 0-32.1 8.4-32.1 23.9v2.5c0 8.5 4.6 13 10.4 13h2c4.9 0 7.7-2 10.9-5.4-.2 3.6.5 5.6 4.4 5.6 4.3 0 10.4-4.1 14.7-6.7 3.3-2.1 6.6-4.9 8.3-6.6v.1c-1 2.6-1.7 4.6-1.7 7.2 0 3.9 3.6 6.3 7 6.3 8.2 0 11.6-2.5 16.7-7.9.5 6.1 2.7 7.9 8.4 7.9 7.1 0 12.4-4.5 16.7-9.2 1.4 1.5 2.9 2.1 4.9 2.1 2.3 0 4.6-1.2 6.5-2.4.7-.4 1.2-.8 1.5-1.4.4 6.4 3.8 10.9 10.5 10.9 2.3 0 5.1-.6 7.8-2.5 0 .3-.1 1.1-.1 1.6 0 2.5-13.8 15.3-13.8 27.5 0 2.3 1.6 4.5 4.7 4.5 6.2 0 9.1-11.3 14.2-22 2.1-4.4 18.4-16.7 22.1-19.6.9-.6 1.1-1.6 1.1-5 .1-1.9-.4-3.9-.8-3.9zM40.4 92.8c-3.4 0-8.4-1.1-11.9-1.1-.3 0-2.1.4-4.5.8s-5.4.8-8 .8C6.8 93.3.8 91.2.8 86.9c0-6.1 6.7-6.6 11.3-6.6 2.8 0 5.6.5 8.3 1 2.8.4 5.5 1 8.3 1 5.5 0 22.1-37.5 22.1-41 0-3.4-18.8-14.2-23-14.2-1.6 0-3.1 1.1-3.1 2.7 0 2.7 3.9 7.7 7.7 11.1 3.5 3.1 6.5 4.7 6.5 5.4 0 1.6-2.1 7.5-4.5 7.5-2.7 0-20.1-13-20.1-25.1 0-7.6 4.4-11.1 11.6-11.1 10.6 0 22.5 8.2 30.3 14.2 4.5 3.5 23.1 19 23.1 37.2 0 13.6-7.8 23.9-24.6 23.9H40.4zM59 48.6c-6.9 14.8-9.3 23.9-17.7 34.7 1.5.1 3.2.4 7.5.4 12.7 0 20.1-4.3 20.1-14.6 0-7.9-5.4-14.5-9.9-20.5z" fill="#000"></path></g><path d="M265.5 17.4 0 0c21.3 5.1 37.1 11.2 48.9 17.4L262.7 24l2.8-6.6zm-51 12.6L72.2 34c7.6 7.6 9.9 13.7 10.5 15.7.1.5.2.7.2.7l171-6.1 6.7-15.6-46.1 1.3z" fill="#D12027"></path><path d="m72.2 34 186.4-.4 4.1-9.6-213.8-6.6c11.2 5.9 18.7 11.9 23.8 17.1-.1-.2-.3-.3-.5-.5z" fill="#FFF"></path></svg>
