<svg viewBox="0 0 579 99.1" xmlns="http://www.w3.org/2000/svg" version="1.1" xml:space="preserve" id="Capa_1" style="enable-background:new 0 0 579 99.1" x="0px" xmlns:xlink="http://www.w3.org/1999/xlink" y="0px"><style type="text/css">.st0{fill:#012fb3}.st1{fill:#fff}</style><rect height="159" width="612" y="-20" x="-13" class="st0"></rect><path d="M575.7,85.1c0,0.2-0.2,0.4-0.2,0.6c-0.2,2.3-2.1,4.3-4.5,4.5c-1.9,0.4-3.8,0.2-5.7-0.4
	c-1.7-0.6-3-2.1-3.2-4h4.5c0.2,0,0.2,0.2,0.4,0.2c0.6,0.9,1.9,1.1,2.8,0.6c0.9-0.4,1.1-1.5,0.9-3c-1.3,1.3-3.2,1.7-4.9,1.1
	c-1.9-0.6-3.4-2.3-3.6-4.5c-0.4-2.3,0-4.7,1.1-6.8c1.3-2.1,4-3,6.4-1.5c0.4,0.2,0.9,0.4,1.1,0.9L571,73c0-0.4,0-0.9,0.2-1.3h4.7
	v13.4L575.7,85.1L575.7,85.1z M566.5,78.5c0.2,0.6,0.2,1.3,0.4,1.9c0.2,0.9,1.1,1.3,1.9,1.3c0.9,0,1.5-0.6,1.9-1.5
	c0.6-1.1,0.6-2.6,0-3.6c-0.4-0.6-1.1-1.3-1.9-1.3c-0.9,0-1.5,0.4-1.9,1.3C566.7,77.3,566.7,77.9,566.5,78.5z" class="st1" id="Path_69_1_"></path><path d="M459,75.4c2.8,1.5,3.8,4.9,2.3,7.7c-0.6,1.5-2.1,2.8-4,2.8c-3.8,0.2-7.7,0-11.5,0V66.6
	c-0.2,0,0-0.2,0-0.2c3.6,0,7.2-0.2,10.8,0.2c2.6,0.2,4.5,2.3,4.3,4.9c0,0.4,0,0.6-0.2,1.1C460.7,73.9,460.1,74.9,459,75.4L459,75.4z
	 M451.1,81.7h4c1.1,0,1.7-0.9,1.7-1.9c0-1.1-0.6-1.9-1.5-1.9h-4v3.8H451.1z M451.1,74.1h3.2c1.1,0,1.9-0.6,1.9-1.5
	c0-1.1-0.6-1.5-1.7-1.7h-2.8c-0.2,0-0.4,0.2-0.4,0.4C450.9,72.4,450.9,73.2,451.1,74.1z" class="st1" id="Path_70_1_"></path><path d="M512.3,86h-4.9v-7.4c0-0.4,0-0.9-0.2-1.3c-0.2-0.6-0.6-1.3-1.3-1.3s-1.3,0.4-1.5,0.9
	c-0.2,0.6-0.4,1.3-0.4,1.9V86h-4.9V72.4h4.5c0,0.6,0,1.3,0.2,1.9c0.9-1.5,2.3-2.3,4-2.3s3.2,0.9,3.8,2.3c0.9-1.5,2.6-2.3,4.3-2.3
	c2.1-0.2,4.3,1.5,4.5,3.6c0.2,0.9,0.2,1.7,0.2,2.5V86h-4.9v-7.9c0-1.5-0.6-2.1-1.5-2.1c-1.1,0.2-1.7,1.3-1.5,2.3V86H512.3z" class="st1" id="Path_71_1_"></path><path d="M522.1,85.8V66.6h4.9v6.8c0.9-1.1,2.1-1.7,3.6-1.7c2.1-0.2,4.3,0.9,5.1,3
	c1.3,2.8,1.3,5.7,0.2,8.5c-1.1,2.6-4,3.8-6.8,2.8c-0.9-0.4-1.5-0.9-2.1-1.5c0,0.6-0.2,0.9-0.2,1.5C525.1,85.8,523.8,85.8,522.1,85.8
	z M526.6,79c0.2,0.9,0.4,1.9,0.9,2.8c0.4,0.9,1.7,1.3,2.6,0.9c0.4-0.2,0.6-0.4,0.9-0.9c0.6-1.5,0.6-3.4,0-4.9
	c-0.4-0.9-1.5-1.5-2.3-1.1c-0.4,0.2-0.9,0.4-1.1,0.9C527,77.3,526.8,78.1,526.6,79L526.6,79z" class="st1" id="Path_72_1_"></path><path d="M551,80.5h-9.1c0.2,1.1,0.4,1.9,1.5,2.3s1.7,0.2,2.6-0.9c0.2-0.2,0.4-0.2,0.6-0.2h4
	c-0.2,2.8-3.2,5.1-7.7,4.7c-3.8-0.4-6.4-3.6-6.2-7.4v-0.2c-0.2-3.6,2.8-6.8,6.4-7h0.9C549.3,72,551.2,76,551,80.5z M546.1,77.5
	c0.2-1.1-0.6-2.1-1.7-2.3c-1.1-0.2-2.1,0.6-2.3,1.7v0.6C542.1,77.5,546.1,77.5,546.1,77.5z" class="st1" id="Path_73_1_"></path><path d="M469,79.2c-0.2-3,1.5-5.7,4.5-6.8c3-1.1,6.2-0.4,8.3,1.9c2.6,3.2,2.3,10.6-3.6,11.9
	C473.2,87.3,468.8,84.3,469,79.2L469,79.2z M473.7,79.2c0.2,0.9,0.2,1.9,0.6,2.8c0.2,0.9,0.9,1.3,1.7,1.3s1.5-0.4,1.7-1.1
	c0.6-1.7,0.6-3.8,0-5.5c-0.2-0.6-0.9-1.3-1.7-1.1c-0.9,0-1.5,0.4-1.7,1.3C474.1,77.3,474.1,78.3,473.7,79.2L473.7,79.2z" class="st1" id="Path_74_1_"></path><path d="M498.1,79.2c0.2,3.6-2.3,7-6.2,7.2h-1.1c-4.5,0-7-3-7-7.7c-0.2-3.6,2.8-6.8,6.4-7h0.9
	c3.8-0.2,7,2.8,7,6.4L498.1,79.2L498.1,79.2z M493.2,79.2c0-0.9-0.4-1.9-0.6-2.8c-0.2-0.6-0.9-1.3-1.7-1.1c-0.9,0-1.5,0.4-1.7,1.3
	c-0.6,1.7-0.6,3.6,0,5.3c0.2,0.9,0.9,1.3,1.7,1.3s1.5-0.4,1.7-1.1C493,81.1,493.2,80,493.2,79.2z" class="st1" id="Path_75_1_"></path><path d="M467.7,86h-4.9V66.6h4.9V86z" class="st1" id="Path_76_1_"></path><path d="M552.3,72.2h4.5v1.9c0.6-0.6,1.3-1.3,2.1-1.9c0.9-0.4,1.7-0.6,2.8-0.6v4.5h-1.1
	c-1.5-0.2-3,0.9-3.2,2.3v0.2c-0.2,1.5-0.2,3.2-0.2,4.7v2.3h-4.9L552.3,72.2L552.3,72.2z" class="st1" id="Path_77_1_"></path><path d="M128.5,15.7c0-3.6,0.9-3.6,5.7-4.3V8.6h-19.3v2.8c5.1,0.9,5.7,0.9,5.7,4.3V52
	c0,3.6-0.9,3.6-5.7,4.3v2.8h37.6l0.9-11.7h-3c-1.5,6.4-1.9,8.1-6.4,8.1l-15.5,0.6V15.7z M96.5,35.4c3.6,0.2,3.6,1.9,4.3,7h3V25h-3
	c-0.9,4.9-0.9,6.8-4.3,7l-9.1,0.4V11.8l14.6,0.5c4.3,0.2,4.5,1.7,6,8.3h3l-0.4-11.7H73.7v2.8c5.1,0.9,5.7,0.9,5.7,4.3v36.3
	c0,3.6-0.9,3.6-5.7,4.3v2.8h37.6l0.9-11.7h-3c-1.5,6.4-1.9,8.1-6.4,8.1l-15.5,0.6v-21C87.3,35.4,96.5,35.4,96.5,35.4z" class="st1" id="Path_42498_1_"></path><path d="M534,33.9c0-13.6,6.8-23,16.6-23s16.6,9.4,16.6,23s-6.8,23-16.6,23S534,47.5,534,33.9
	 M525.5,33.9c-0.4,13.8,10.6,25.5,24.4,25.9c13.8,0.4,25.5-10.6,25.9-24.4v-1.3c0.4-13.8-10.6-25.5-24.4-25.9
	c-13.8-0.4-25.5,10.6-25.9,24.4V33.9 M516.2,59h12.3v-2.8c-3.8-0.9-4.3-1.1-6.4-4L510.2,36c9.1-2.3,11.9-8.1,11.9-14
	c0-7.9-5.7-13.4-16.6-13.4h-21.7v2.8c5.1,0.9,5.7,0.9,5.7,4.3V52c0,3.6-0.9,3.6-5.7,4.3v2.8h19.3v-2.8c-5.1-0.9-5.7-0.9-5.7-4.3
	V36.9h4.7L516.2,59z M497.5,33.9V11.6h6.4c8.3,0,10.4,5.3,10.4,11.1c0,6.4-2.1,11.1-11.9,11.1L497.5,33.9z M464.9,35.4
	c3.6,0.2,3.6,1.9,4.3,7h3V25h-3c-0.9,4.9-0.9,6.8-4.3,7l-9.1,0.4V11.8l14.7,0.4c4.3,0.2,4.5,1.7,6,8.3h3L479,8.9h-36.8v2.8
	c5.1,0.9,5.7,0.9,5.7,4.3v36.3c0,3.6-0.9,3.6-5.7,4.3v2.8h37.6l0.9-11.7h-3c-1.5,6.4-1.9,8.1-6.4,8.1l-15.5,0.6v-21L464.9,35.4
	L464.9,35.4z M424.6,52c0,3.6-0.9,3.6-5.7,4.3v2.8h19.3v-2.8c-5.1-0.9-5.7-0.9-5.7-4.3V15.7c0-3.6,0.9-3.6,5.7-4.3V8.6h-19.3v2.8
	c5.1,0.9,5.7,0.9,5.7,4.3V52z M414.6,12.3C409.7,9.5,404.2,8,398.4,8C384.2,8,374,18.6,374,33.9c0,15.1,10.2,25.9,24.4,25.9
	c5.7,0,11.3-1.5,16.2-4.3l0.9-11.7h-3C410.8,54,405.1,57,398.9,57c-9.8,0-16.6-9.4-16.6-23s6.6-23,16.6-23c5.7,0,11.5,3.2,13.2,13.2
	h3C415.1,24.2,414.6,12.3,414.6,12.3z M333,52c0,3.6-1.3,3.6-6.4,4.3v2.8h16.6v-2.8c-5.1-0.9-6.6-0.9-6.6-4.3l-0.4-35.9h0.9
	l27.2,43.1h4.7V15.4c0-3.6,1.3-3.6,6.4-4.3V8.3h-16.6v2.8c5.1,0.9,6.6,0.9,6.6,4.3l0.4,30h-0.9l-23.2-37h-15.1v2.8
	c5.1,0.9,6.4,0.9,6.4,4.3V52z M289,42h16.6l3.8,10c1.3,3.4,0.6,3.6-4.3,4.3v2.8h19.3v-2.8c-4-0.9-4.7-0.9-6-4.3L302,8.2h-4.5L282,52
	c-1.3,3.4-1.9,3.6-7.4,4.3v2.8h16.6v-2.8c-5.3-0.9-6.4-0.9-5.1-4.3L289,42z M297.7,18.2l7,20.8H290l7-20.8H297.7z M235.9,52
	c0,3.6-1.3,3.6-6.4,4.3v2.8h16.6v-2.8c-5.1-0.9-6.6-0.9-6.6-4.3l-0.4-35.9h0.9l27,43.1h4.7V15.4c0-3.6,1.3-3.6,6.4-4.3V8.3h-16.6
	v2.8c5.1,0.9,6.6,0.9,6.6,4.3l0.4,30h-0.6l-23.2-37h-15.1v2.8c5.1,0.9,6.4,0.9,6.4,4.3L235.9,52L235.9,52z M212.1,52
	c0,3.6-0.9,3.6-5.7,4.3v2.8h19.3v-2.8c-5.1-0.9-5.7-0.9-5.7-4.3V15.7c0-3.6,0.9-3.6,5.7-4.3V8.6h-19.6v2.8c5.1,0.9,5.7,0.9,5.7,4.3
	L212.1,52z M179.1,36.5l9.1,0.4c3.6,0.2,3.6,1.9,4.3,7h3V26.5h-3c-0.9,4.9-0.9,6.8-4.3,7l-9.1,0.4V11.8l14.7,0.4
	c4.3,0.2,4.5,1.7,6,8.3h3l-0.4-11.7h-36.8v2.8c5.1,0.9,5.7,0.9,5.7,4.3v36.3c0,3.6-0.9,3.6-5.7,4.3v2.8h19.3v-2.8
	c-5.1-0.9-5.7-0.9-5.7-4.3L179.1,36.5z" class="st1" id="Path_42499_1_"></path><path d="M7.8,47.2l0.9-2.5C8.4,45.6,8.1,46.5,7.8,47.2z" class="st1" id="Path_42504_1_"></path><path d="M8.3,13.9c0.1-0.1,0.3-0.1,0.4-0.3c0-0.1,0.1-0.1,0.3-0.3l-0.4,0.3L8.3,13.9z" class="st1" id="Path_42505_1_"></path><path d="M44.1,51.7l5.8,0.9H50c0.4-2.4,0.7-4.6,0.9-7c-2.1-0.3-6-0.9-6-0.9l-0.3,1.9l-1.2,5.1H44.1z
	" class="st1" id="Path_42506_1_"></path><path d="M50.8,52.6c1.6,0.1,3.4,0.1,5.1,0c0.4-2.2,0.7-4.6,0.9-6.9c-1.6,0.1-3.1,0.1-4.8-0.1h-0.3
	C51.6,48,51.3,50.4,50.8,52.6z" class="st1" id="Path_42507_1_"></path><path d="M14,21.6c-1-0.7-2.1-1.6-3-2.5c-2.1,1.6-4,3.4-5.8,5.4c1,1,2.2,2.1,3.6,3.1
	C10.2,25.5,12,23.5,14,21.6z" class="st1" id="Path_42508_1_"></path><path d="M5,55.5c0.4-1.9,0.7-4,1.3-6c-2.1-1.2-3.9-2.4-5.4-3.4c-0.3,1.6-0.4,3.3-0.6,5.1v1.6
	C1.7,53.7,3.3,54.6,5,55.5z" class="st1" id="Path_42509_1_"></path><path d="M3.6,35.7c1.2-2.1,2.4-4.2,3.7-6.1c-1.3-1-2.5-2.1-3.7-3.1c-1.3,1.6-2.5,3.4-3.6,5.2v1.2
	C1.2,33.7,2.4,34.8,3.6,35.7z" class="st1" id="Path_42510_1_"></path><path d="M0.6,43.6c0.4-2.1,1.2-4.2,2.1-6.1c-0.9-0.7-1.8-1.3-2.5-1.9v7.7
	C0.3,43.3,0.5,43.5,0.6,43.6z" class="st1" id="Path_42511_1_"></path><path d="M12.9,17.7c0.9,0.9,1.8,1.6,2.8,2.4c2.4-2.2,5.2-4.2,8.1-5.7c-0.7-0.4-1.3-0.9-1.9-1.5
	C18.8,14.1,15.8,15.7,12.9,17.7z" class="st1" id="Path_42512_1_"></path><path d="M20.3,22.8C20.3,22.8,20.4,22.8,20.3,22.8c2.1-2.4,4.3-4.6,6.9-6.6c-0.9-0.6-1.8-1-2.5-1.5
	c-3,1.5-5.8,3.3-8.2,5.5C17.6,21.3,18.9,22,20.3,22.8z" class="st1" id="Path_42513_1_"></path><path d="M14.4,22c-1.9,1.8-3.6,3.9-5.2,6c1.6,1.2,3.3,2.1,5.1,3.1h0.1c1.3-2.2,2.8-4.3,4.5-6.3h-0.1
	C17,23.8,15.6,22.8,14.4,22z" class="st1" id="Path_42514_1_"></path><path d="M1.1,43.9c1.5,1,3.3,2.2,5.5,3.6c0.6-2.1,1.4-4.2,2.3-6.1C7,40.4,5,39.2,3.2,38
	C2.3,39.9,1.7,41.8,1.1,43.9z" class="st1" id="Path_42515_1_"></path><path d="M0.2,60.4" class="st1" id="Path_42516_1_"></path><path d="M1.1,22.6c-0.3-0.4-0.4-1-0.6-1.6c-0.1,0.1-0.3,0.3-0.3,0.4v2.4C0.5,23.4,0.8,22.9,1.1,22.6
	z" class="st1" id="Path_42517_1_"></path><path d="M11.6,61l-0.1-0.3l-3.1-1.5L6,58H5.7c0,1.2-0.1,2.2-0.1,3.1C5.6,61,11.6,61,11.6,61z" class="st1" id="Path_42518_1_"></path><path d="M21.2,23.4l1.9,1l0.9,0.4l1.9,0.9l0.6-0.9l1-1.6l3.3-4.8l-0.3-0.1l-1.6-0.7l-0.3-0.1
	L28,17.1C25.5,18.7,23.3,20.8,21.2,23.4z" class="st1" id="Path_42519_1_"></path><path d="M20.6,11.1c-3.3,0.9-6.6,2.2-9.6,4c0.4,0.7,0.9,1.3,1.5,1.9c2.8-1.9,5.8-3.6,9-4.8
	C21.2,12,20.9,11.5,20.6,11.1z" class="st1" id="Path_42520_1_"></path><path d="M4.8,57.4c-1.6-0.7-3.1-1.8-4.6-2.7c0,2.1,0.3,4.2,0.7,6.3h3.7C4.7,60,4.7,58.8,4.8,57.4z" class="st1" id="Path_42521_1_"></path><path d="M9.8,39.4c1.2-2.2,2.4-4.3,3.4-6.3c-1.8-1-3.4-2.1-5.1-3.3c-1.3,1.9-2.5,4-3.7,6.1
	C6,37.2,7.8,38.4,9.8,39.4z" class="st1" id="Path_42522_1_"></path><path d="M6.2,56.1l2.2,1.2L9,57.6l0.7,0.3l2.5,1l0.9-3.1l0.7-2.7l-1-0.4l-5.2-2.5l-0.3-0.1
	c-0.4,1.9-0.9,4-1.2,6C6.1,56.1,6.2,56.1,6.2,56.1z" class="st1" id="Path_42523_1_"></path><path d="M21,26.1l-1.3-0.8c-1.2,1.6-2.5,3.4-3.9,5.5l-0.6,0.7l1.5,0.9l1,0.6l1.8,0.9l1.6,0.7
	l0.6-1.2v-0.1l3-5.4C24.7,27.9,21,26.1,21,26.1z" class="st1" id="Path_42524_1_"></path><path d="M20.4,10.8c-0.1-0.3-0.1-0.6,0-0.9c-3.4,0.6-6.9,1.8-10,3.4c0,0.4,0.3,1,0.4,1.5
	C13.8,13,17.1,11.7,20.4,10.8z" class="st1" id="Path_42525_1_"></path><path d="M6.8,17.4C7.4,17,8,16.5,8.6,16.1c-0.3-0.6-0.3-1.2-0.1-1.8c-2.2,1.3-4.5,3-6.4,4.8
	c0.1,0.7,0.3,1.3,0.6,1.9C3.9,19.8,5.3,18.4,6.8,17.4z" class="st1" id="Path_42526_1_"></path><path d="M8.9,16.5c-0.6,0.4-1.2,0.7-1.8,1.2c-1.5,1.2-3,2.4-4.3,3.7c0.6,0.9,1.2,1.8,1.8,2.5
	c1.8-1.9,3.7-3.9,5.8-5.4C9.8,18,9.2,17.2,8.9,16.5z" class="st1" id="Path_42527_1_"></path><path d="M3.3,25.8c-0.7-0.7-1.3-1.6-1.9-2.7C1,23.5,0.7,24,0.2,24.6v5.7C1.1,28.6,2.1,27.1,3.3,25.8
	z" class="st1" id="Path_42528_1_"></path><path d="M30,14.2c1.9-1.2,4-2.1,6.1-2.7c0,0-6,0.4-8.1,1.6C28.7,13.5,29.3,13.9,30,14.2z" class="st1" id="Path_42529_1_"></path><path d="M35.3,10.9c-3.1-0.1-6.1,0.1-9.1,0.7c0.3,0.3,0.7,0.6,1.2,0.9C27.5,12.4,29,11.7,35.3,10.9z
	" class="st1" id="Path_42530_1_"></path><path d="M34.7,10.3c-3.1-0.4-6.4-0.4-9.6,0c0.1,0.3,0.4,0.6,0.6,0.9C28.7,10.6,31.7,10.3,34.7,10.3z
	" class="st1" id="Path_42531_1_"></path><path d="M34.5,9.9c0,0-3.1-1.2-9.9-0.7c0,0.3,0,0.6,0.1,0.9C28.1,9.4,31.2,9.4,34.5,9.9z" class="st1" id="Path_42532_1_"></path><path d="M32.9,9.3c0,0-1.8-0.9-7.8-0.7l-0.3,0.3C27.5,8.7,30.2,8.8,32.9,9.3z" class="st1" id="Path_42533_1_"></path><path d="M33.5,9c-2.2-0.7-4.8-1.2-7.2-1.2c-0.3,0-0.6,0.1-0.9,0.3C28.2,8.1,30.9,8.4,33.5,9z" class="st1" id="Path_42534_1_"></path><path d="M28.1,7.6h0.3h-0.7c2.5,0.1,4.9,0.6,7.3,1.3C32.7,8.1,30.3,7.6,28.1,7.6z" class="st1" id="Path_42535_1_"></path><path d="M49.2,23.7c0.1,0.3,0.3,0.6,0.3,1c0.9,2.7,1.6,5.5,1.9,8.2h0.3c1.2,0.1,2.5,0.1,3.7,0.1
	c-0.4-1.5-0.9-3.1-1.5-4.5c-0.6-1.6-1.5-3.3-2.4-4.8H49.2z" class="st1" id="Path_42536_1_"></path><path d="M48.4,23.5h-0.3c-0.9-0.1-1.9-0.3-2.8-0.4c0,0,0.1,0.6,0.3,1c0.1,0.6,0.1,1.2,0.3,1.8
	c0.1,1.8,0.4,5.5,0.4,5.5V32l1.3,0.1l2.1,0.3l1.2,0.1c-0.3-2.7-1-5.4-1.9-7.9C48.7,24.3,48.6,24,48.4,23.5z" class="st1" id="Path_42537_1_"></path><path d="M56.7,35.7c0.4,2.5,0.7,5.2,0.7,7.8c1.2-0.1,2.2-0.3,3.3-0.9c-0.1-2.7-0.4-5.2-1.2-7.8
	C58.6,35.2,57.6,35.5,56.7,35.7z" class="st1" id="Path_42538_1_"></path><path d="M56.1,33c0.9-0.1,1.8-0.3,2.7-0.6c-1-3.1-2.7-6.1-4.6-8.8c0-0.1-0.1-0.1-0.1-0.3
	c-0.4,0.3-1,0.4-1.6,0.4c0.9,1.5,1.6,3.1,2.2,4.6C55.2,29.8,55.6,31.3,56.1,33z" class="st1" id="Path_42539_1_"></path><path d="M61.2,42.4c0.6-0.3,1-0.7,1.3-1.2v-0.6c-0.1-2.1-0.6-4.3-1.2-6.3l-0.1-0.6L61,33.4
	c-0.1,0.6-0.6,1-1,1.3C60.6,37.2,61,39.7,61.2,42.4z" class="st1" id="Path_42540_1_"></path><path d="M58.5,27.1l-3.3-4.9L55,21.9c0,0.4-0.3,0.7-0.6,0.9c0,0.1,0.1,0.1,0.1,0.3
	c1.9,2.7,3.4,5.7,4.6,9c0.4-0.3,0.7-0.6,1-1L60,30.5C59.7,29.4,59.1,28.2,58.5,27.1z" class="st1" id="Path_42541_1_"></path><path d="M60.3,55.8c0.4-0.9,0.7-1.6,0.9-2.5V53c-0.4,0.3-0.9,0.6-1.5,0.9c-0.6,2.1-1.3,4-2.2,6
	c0.4-0.3,0.9-0.6,1.2-1c0,0,0-0.1,0.1-0.3v-0.1c0,0,0-0.1,0.1-0.1l0.1-0.1C59.7,57.3,60.1,56.5,60.3,55.8z" class="st1" id="Path_42542_1_"></path><path d="M59.4,54c-1,0.3-2.2,0.6-3.3,0.6c-0.4,1.5-0.9,3-1.5,4.3c-0.3,0.6-0.4,1.2-0.7,1.6
	c1-0.1,2.2-0.3,3.3-0.7C57.9,58,58.8,56.1,59.4,54z" class="st1" id="Path_42543_1_"></path><path d="M47.1,60.7c0.9-1.9,1.8-4,2.5-6.1l-1.2-0.1l-5.4-1l-0.9,2.7l-1.5,3.4
	C40.6,59.6,47.1,60.7,47.1,60.7z" class="st1" id="Path_42544_1_"></path><path d="M48,60.9c1.8,0.1,3.4,0.1,5.2,0l0.9-1.9c0.6-1.3,1-2.7,1.5-4.2c-1.6,0.1-3.3,0.1-5.1,0h-0.1
	C49.6,56.7,48.7,58.8,48,60.9z" class="st1" id="Path_42545_1_"></path><path d="M59.8,51.7c0.4-2.2,0.7-4.6,0.9-6.9c-1,0.4-2.1,0.7-3.3,0.9c0,2.2-0.3,4.6-0.9,6.9
	C57.7,52.5,58.8,52.2,59.8,51.7z" class="st1" id="Path_42546_1_"></path><path d="M61.2,44.5c0,2.2-0.3,4.6-0.7,6.9c0.6-0.3,1-0.7,1.5-1.2c0.3-0.9,0.4-1.9,0.6-2.8
	c0.1-1.2,0.3-2.4,0.1-3.4v-0.7C62.4,43.8,61.8,44.2,61.2,44.5z" class="st1" id="Path_42547_1_"></path><path d="M55,21.1v0.4l0.3,0.3l3.7,5.7c0.4,0.7,0.9,1.6,1.2,2.5l-0.1-0.9l-0.3-0.8
	c-0.1-0.6-0.4-1.2-0.9-1.6L55,21.1z" class="st1" id="Path_42548_1_"></path><path d="M23.6,45.7l1.3,0.6l0.7,0.3l1.5-3.9l0.9-2.8L25.6,39l-1.3-0.6l-2.1-0.7l-1-0.4l-1.5,3.3
	l-1.3,3.1l0.7,0.3l2.7,1C21.8,45,23.6,45.7,23.6,45.7z" class="st1" id="Path_42549_1_"></path><path d="M40.5,9.9l-0.3,0.6h1.2L40.5,9.9z" class="st1" id="Path_42550_1_"></path><path d="M34.4,26.5l-0.7,2.2l4.2,1.3l1,0.3H39l0.1-0.6l0.1-0.7l0.7-7.5l-3.4-1.2
	C36.5,20.3,34.4,26.5,34.4,26.5z" class="st1" id="Path_42551_1_"></path><path d="M39.3,9.4l-1-0.3l0.9,0.7L39.3,9.4z" class="st1" id="Path_42552_1_"></path><path d="M34.1,8.2l-1.8-0.3l3.9,1.5C36.2,9.4,34.1,8.2,34.1,8.2z" class="st1" id="Path_42553_1_"></path><path d="M36.9,9l-1.2-0.3l2.1,1C37.8,9.7,36.9,9,36.9,9z" class="st1" id="Path_42554_1_"></path><path d="M45.1,34.6l-1.5-0.3l-4-1.2l-1.2,6.2v0.1l-0.3,1.3l1.8,0.4l1.9,0.4l1.2,0.3l1.6,0.3l0.3-1.5
	l0.6-6v-0.3h-0.4C45.1,34.3,45.1,34.6,45.1,34.6z" class="st1" id="Path_42555_1_"></path><path d="M42.6,10.9h-1.2l2.2,0.6L42.6,10.9z" class="st1" id="Path_42556_1_"></path><path d="M46.8,13l-1.7-0.7l-2.4-0.6C42.7,11.7,46.8,13,46.8,13z" class="st1" id="Path_42557_1_"></path><path d="M42.6,51.4l1-4.5l0.4-2.4l-3-0.6l-1.2-0.3l-2.7-0.7l-0.6,2.5l-1.2,3.7l-0.1,0.6
	C35.2,49.7,42.6,51.4,42.6,51.4z" class="st1" id="Path_42558_1_"></path><path d="M14.7,49.9l0.9-2.2l0.9-2.2l0.1-0.3l-0.9-0.4L10,42c0,0.1-0.1,0.3-0.3,0.6l-0.6,1.5
	c0,0.3-0.1,0.4-0.3,0.7L8,47.4c0,0.3-0.1,0.4-0.3,0.7l1.5,0.7l5.2,2.5L14.7,49.9z" class="st1" id="Path_42559_1_"></path><path d="M8.7,44.7l-0.9,2.5L8.7,44.7z" class="st1" id="Path_42560_1_"></path><path d="M19.1,39.1l1.2-2.4l-2.5-1l-1-0.4L14,33.7l-0.6,1.2c-0.9,1.6-1.8,3.3-2.7,5.1l6.6,3.1
	l0.3-0.6C17.6,42.5,19.1,39.1,19.1,39.1z" class="st1" id="Path_42561_1_"></path><path d="M32.7,59.8l-1-0.3L31.1,61h6.1L32.7,59.8z" class="st1" id="Path_42562_1_"></path><path d="M30.6,59.2L29,58.8l-0.6-0.1l-2.4-1l-1.8-0.6l-1-0.3l-0.9,2.5l-0.6,1.6h8.2
	C29.9,60.9,30.6,59.2,30.6,59.2z" class="st1" id="Path_42563_1_"></path><path d="M54.1,35.7c-0.7,0-1.5-0.1-2.4-0.1c0,0.9,0.1,1.6,0.1,2.5v5.4c0.9,0.1,1.9,0.1,2.8,0.1h2
	v-0.1c0-2.5-0.3-5.2-0.7-7.8C55.9,35.7,54.1,35.7,54.1,35.7z" class="st1" id="Path_42564_1_"></path><path d="M51.1,35.4c-0.4,0-0.7-0.1-1.2-0.1L49,35.1l-2.4-0.3h-0.4v1.3l-0.4,4l-0.3,2.2h0.3
	c1.3,0.3,2.5,0.6,3.6,0.7h0.1c0.6,0,1.2,0.1,1.6,0.1c0-1.6,0.1-3.4,0-5.2C51.3,37.2,51.3,36.3,51.1,35.4L51.1,35.4z" class="st1" id="Path_42565_1_"></path><path d="M22.7,54.6l0.6-1.8l0.3-0.9l0.1-0.3V51l0.1-0.1l0.1-0.3l0.3-1l0.3-0.7h-0.1l-0.8-0.6
	l-1.2-0.4l-1.9-0.7l-3.1-1.3h-0.1L17,46.2l-0.8,2.1l-0.7,2.1L15.4,51l-0.3,1l0.3,0.1l0.9,0.3l2.8,1.2l1.6,0.6l1.2,0.4
	C21.9,54.6,22.7,54.6,22.7,54.6z" class="st1" id="Path_42566_1_"></path><path d="M29,47.7l1.9,0.6l2.7,0.9l0.7,0.1l1-3.3l0.9-3.4l-1-0.3l-2.1-0.6l-1.3-0.4l-2.5-1L28.4,43
	l-1.5,3.9l0.6,0.3C27.5,47.2,29,47.7,29,47.7z" class="st1" id="Path_42567_1_"></path><path d="M38.1,59.2l1.6,0.4l1.5-3.6l0.9-2.5L35.8,52l-1-0.3V52l-0.9,2.3L33,56.5l-0.6,1.2
	C32.4,57.7,38.1,59.2,38.1,59.2z" class="st1" id="Path_42568_1_"></path><path d="M31.1,57.4l0.3,0.1l0.4-1l0.1-0.6l0.7-2.1l0.7-2.1l0.1-0.4h-0.1l-3.3-1l-1.9-0.6L27,49.3
	L26.1,49H26l-0.3,0.7l-0.3,1L25.3,51l-0.2,0.3V52L25,52.3l-0.3,0.9l-0.7,2l0.4,0.1l1.2,0.4l1.6,0.6l2.8,0.9
	C30,57.2,31.1,57.4,31.1,57.4z" class="st1" id="Path_42569_1_"></path><path d="M26,36.6l3,1.2l1.3-3.7l1.2-3.4l-2.5-1l-2.1-0.9l-1-0.4L23,33.3l-0.9,1.8l1.5,0.6L26,36.6z" class="st1" id="Path_42570_1_"></path><path d="M37.6,13.9l0.6-1.6L37,13.2c-0.4,0.4-1,0.9-1.5,1.3l-1.6,1.8l2.4,1L37.6,13.9z" class="st1" id="Path_42571_1_"></path><path d="M43.2,31.6l2.1,0.4l-0.4-6.6c0-0.7-0.1-1.6-0.3-2.4v-0.1c-0.1,0-0.4-0.1-0.6-0.1
	c-1.6-0.4-2.7-0.7-2.7-0.7l-0.6,5.8l-0.3,1.9l-0.1,1l2.1,0.6C42.4,31.4,43.2,31.6,43.2,31.6z" class="st1" id="Path_42572_1_"></path><path d="M32.1,18.7l-4.2,6.1l-0.4,0.7l-0.3,0.6h0.1l1,0.4l4.2,1.6l0.9-2.2l2.1-6L32.1,18.7z" class="st1" id="Path_42573_1_"></path><path d="M37.5,32.5l-2.1-0.7l-2.7-0.9l-1.2,3.4L30.2,38l3,1l2.4,0.7l1.4,0.6l0.6-1.9l1-5.7
	C38.6,32.7,37.5,32.5,37.5,32.5z" class="st1" id="Path_42574_1_"></path><path d="M48.4,18.1c0.4,0.6,0.9,1.2,1.3,1.6c0.4,0,0.7-0.1,1-0.3c-2.2-2.4-4.8-4.3-7.6-6.1
	C45.1,14.8,46.8,16.3,48.4,18.1z" class="st1" id="Path_42575_1_"></path><path d="M21.2,58.9l0.9-2.5l-1-0.3l-1.9-0.8l-2.4-0.9l-0.6-0.3l-1.5-0.7l-0.6,1.8l-1,4l0.3,0.1
	l1.8,0.7l1.6,0.6h3.6C20.4,60.6,21.2,58.9,21.2,58.9z" class="st1" id="Path_42576_1_"></path><path d="M47.4,19.8h1.7c-0.3-0.4-0.7-0.9-1.2-1.3c-1.5-1.6-3-3.1-4.8-4.3
	C44.8,15.7,46.2,17.7,47.4,19.8z" class="st1" id="Path_42577_1_"></path><path d="M8.3,13.9l0.1-0.1l0.4-0.3L9,13.3l-3,1.8l-0.7,0.6l1.5-0.9C7.4,14.5,7.7,14.2,8.3,13.9z" class="st1" id="Path_42578_1_"></path><path d="M8.4,13.9l0.4-0.3L8.4,13.9z" class="st1" id="Path_42579_1_"></path><path d="M51.3,19.3c0.1-0.1,0.3-0.3,0.3-0.6c-2.1-2.2-4.5-4-7.3-5.2C46.9,15.1,49.2,17.1,51.3,19.3z
	" class="st1" id="Path_42580_1_"></path><path d="M51.7,18.3V18c-4-3.7-6-4.2-6-4.2C47.8,15,49.9,16.5,51.7,18.3z" class="st1" id="Path_42581_1_"></path><path d="M51.4,17.5l-0.3-0.6c-1.8-1.6-3.7-2.8-6-3.7C47.4,14.4,49.6,15.7,51.4,17.5z" class="st1" id="Path_42582_1_"></path><path d="M50.7,16.2l-0.3-0.4c-1.8-1.5-3.9-2.7-6.3-3.4C46.5,13.5,48.7,14.7,50.7,16.2z" class="st1" id="Path_42583_1_"></path><path d="M32.7,13.6l-1.6,1l0.4,0.3l1.8,0.7c1.2-1.3,2.4-2.5,3.7-3.6l0.3-0.1l-2.3,1
	C34.1,12.9,33.5,13.2,32.7,13.6z" class="st1" id="Path_42584_1_"></path><path d="M21,8.7c0,0-8.2,1.8-10,3.6c3-1.3,6.3-2.4,9.4-3.1C20.6,9.1,20.9,8.8,21,8.7z" class="st1" id="Path_42585_1_"></path><path d="M21.9,8.1c-2.8,0.6-5.7,1.5-8.4,2.7c2.5-0.9,5.1-1.6,7.8-2.2L21.9,8.1z" class="st1" id="Path_42586_1_"></path><path d="M59.4,27.1c-1.4-2.8-3.2-5.4-5.1-7.8c0.3,0.3,0.4,0.6,0.4,1C54.7,20.2,58.2,25,59.4,27.1z" class="st1" id="Path_42587_1_"></path><path d="M61,32.7c0.4,1.2,0.9,2.4,1.2,3.7c-0.1-1.5-0.6-2.8-1.2-4.2V32.7z" class="st1" id="Path_42588_1_"></path><path d="M40,18.3c0-1.9-0.3-3.7-0.6-5.7l-1.8,4.9C37.6,17.5,40,18.3,40,18.3z" class="st1" id="Path_42589_1_"></path><path d="M43.3,19.2c-0.6-2.1-1.6-4.2-2.8-6c0.6,1.8,0.7,3.6,0.6,5.4L43.3,19.2z" class="st1" id="Path_42590_1_"></path><path d="M46.6,19.6c-1.3-2.4-3.1-4.6-5.1-6.6c1.3,1.9,2.4,4,3,6.1C45.1,19.5,45.9,19.6,46.6,19.6z" class="st1" id="Path_42591_1_"></path><path d="M1.2,73.4h6.5v2.3h-4v2.8h3.4v2.2H3.7v3h4.1V86H1.2V73.4z M8.7,79.7c0-3.7,2.8-6.5,6.6-6.5
	c1.7,0,2.9,0.6,3.7,1.2l-0.7,2.2c-0.6-0.4-1.7-1-3-1c-2.3,0-3.9,1.8-3.9,4.2c0,2.4,1.6,4.2,3.9,4.2c1.4,0,2.5-0.6,3.1-1l0.7,2.2
	c-0.8,0.6-2,1.2-3.9,1.2C11.4,86.2,8.7,83.4,8.7,79.7L8.7,79.7z M19.8,79.7c0-3.7,2.7-6.5,6.6-6.5s6.6,2.9,6.6,6.5
	c0,3.7-2.7,6.5-6.6,6.5S19.8,83.4,19.8,79.7z M22.4,79.7c0,2.4,1.6,4.2,3.9,4.2s3.9-1.7,3.9-4.2c0-2.4-1.6-4.2-3.9-4.2
	S22.4,77.3,22.4,79.7z M36.7,77.5V86h-2.5V73.4h2.6l5.4,8.6v-8.6h2.5V86h-2.5L36.7,77.5z M45.9,79.7c0-3.7,2.7-6.5,6.6-6.5
	S59,76,59,79.7s-2.7,6.5-6.6,6.5S45.9,83.4,45.9,79.7z M48.5,79.7c0,2.4,1.6,4.2,3.9,4.2s3.9-1.7,3.9-4.2c0-2.4-1.6-4.2-3.9-4.2
	C50.2,75.5,48.5,77.3,48.5,79.7z M67.2,82l3.6-8.6h3.3V86h-2.4v-9l-3.3,7.9H66L62.7,77v9h-2.4V73.4h3.3L67.2,82z M76,73.4h2.5V86H76
	V73.4z M77.2,70.1h2.6l-1.7,2.6H76L77.2,70.1z M83.1,82.8L82,86h-2.6l4.5-12.6h2.7L91,86h-2.6l-1.1-3.2
	C87.3,82.8,83.1,82.8,83.1,82.8z M85.2,76.1l-1.5,4.5h2.9L85.2,76.1z M92.6,86.2c-0.8-0.2-1.2-0.8-1.2-1.5c0-0.8,0.7-1.5,1.5-1.5
	c0.9,0,1.6,0.6,1.6,1.7c0,1.6-0.9,3.1-2,3.9l-1-1.1C91.9,87.4,92.5,86.8,92.6,86.2z M106.7,82l3.6-8.6h3.3V86h-2.4v-9l-3.3,7.9h-2.4
	l-3.3-7.9v9h-2.4V73.4h3.3C103.1,73.4,106.7,82,106.7,82z M115.6,73.4h6.5v2.3h-3.9v2.8h3.4v2.2h-3.4v3h4.1V86h-6.6L115.6,73.4
	L115.6,73.4z M123.8,73.4h3.8c2.8,0,4.3,1.7,4.3,3.7c0,1.5-0.8,2.7-1.9,3.3l3,5.5h-2.8l-2.4-4.9h-1.4v5h-2.5V73.4H123.8z
	 M127.5,78.9c0.9,0,1.7-0.6,1.7-1.7c0-1-0.7-1.6-1.9-1.6h-1.1v3.3C126.2,78.9,127.5,78.9,127.5,78.9z M133.2,79.7
	c0-3.7,2.8-6.5,6.6-6.5c1.7,0,2.9,0.6,3.7,1.2l-0.7,2.2c-0.6-0.4-1.7-1-3-1c-2.3,0-3.9,1.8-3.9,4.2c0,2.4,1.6,4.2,3.9,4.2
	c1.4,0,2.5-0.6,3.1-1l0.7,2.2c-0.8,0.6-2,1.2-3.9,1.2C135.8,86.2,133.2,83.4,133.2,79.7L133.2,79.7z M147.5,82.8l-1.1,3.2h-2.6
	l4.5-12.6h2.7l4.5,12.6h-2.6l-1.1-3.2H147.5L147.5,82.8z M149.6,76.1l-1.5,4.5h2.9L149.6,76.1z M156.3,73.4h3.3
	c4.1,0,6.7,2.4,6.7,6.3c0,4-2.6,6.3-6.7,6.3h-3.3V73.4z M159.8,83.8c2.4,0,3.9-1.4,3.9-4.1c0-2.6-1.5-4.1-3.9-4.1h-0.9v8.2H159.8z
	 M167,79.7c0-3.7,2.7-6.5,6.6-6.5s6.6,2.9,6.6,6.5c0,3.7-2.7,6.5-6.6,6.5S167,83.4,167,79.7z M169.6,79.7c0,2.4,1.6,4.2,3.9,4.2
	s3.9-1.7,3.9-4.2c0-2.4-1.6-4.2-3.9-4.2C171.3,75.5,169.6,77.3,169.6,79.7z M188.8,75.9l-2.1,1c-0.3-0.6-0.7-1.4-1.8-1.4
	c-0.9,0-1.4,0.5-1.4,1.2c0,2.1,5.5,1.8,5.5,5.7c0,2.2-1.6,3.8-4.2,3.8c-2.7,0-3.8-1.9-4.2-2.9l2.1-1c0.3,0.8,1,1.6,2.2,1.6
	c0.9,0,1.5-0.5,1.5-1.3c0-2.2-5.4-1.8-5.4-5.8c0-2.1,1.5-3.6,4-3.6S188.5,75,188.8,75.9L188.8,75.9z M197.1,80.2l-3.9-6.8h2.9
	l2.3,4.5l2.3-4.5h2.9l-3.9,6.8V86h-2.5v-5.8H197.1z M210.9,77.5V86h-2.5V73.4h2.6l5.4,8.6v-8.6h2.5V86h-2.5L210.9,77.5z M220.8,73.4
	h6.5v2.3h-3.9v2.8h3.4v2.2h-3.4v3h4.1V86h-6.6V73.4H220.8z M239.8,75.2l-1.6,1.7c-0.4-0.4-1.5-1.4-3.3-1.4c-2.5,0-4,1.8-4,4.2
	c0,2.6,1.7,4.2,4,4.2c1.8,0,2.8-0.7,3-1v-1.5h-2.4v-2.1h4.8v5c-1.4,1.2-2.9,2.1-5.5,2.1c-3.6,0-6.5-2.6-6.5-6.5
	c0-3.6,2.7-6.5,6.5-6.5C237.5,73.2,239.2,74.5,239.8,75.2z M241.3,79.7c0-3.7,2.7-6.5,6.6-6.5s6.6,2.9,6.6,6.5
	c0,3.7-2.7,6.5-6.6,6.5S241.3,83.4,241.3,79.7z M244,79.7c0,2.4,1.6,4.2,3.9,4.2s3.9-1.7,3.9-4.2c0-2.4-1.6-4.2-3.9-4.2
	S244,77.3,244,79.7z M255.1,79.7c0-3.7,2.8-6.5,6.6-6.5c1.7,0,2.9,0.6,3.7,1.2l-0.7,2.2c-0.6-0.4-1.7-1-3-1c-2.3,0-3.9,1.8-3.9,4.2
	c0,2.4,1.6,4.2,3.9,4.2c1.4,0,2.5-0.6,3.1-1l0.7,2.2c-0.8,0.6-2,1.2-3.9,1.2C257.7,86.2,255.1,83.4,255.1,79.7L255.1,79.7z
	 M266.8,73.4h2.5V86h-2.5V73.4z M270.6,79.7c0-3.7,2.7-6.5,6.6-6.5s6.6,2.9,6.6,6.5c0,3.7-2.7,6.5-6.6,6.5S270.6,83.4,270.6,79.7z
	 M273.3,79.7c0,2.4,1.6,4.2,3.9,4.2s3.9-1.7,3.9-4.2c0-2.4-1.6-4.2-3.9-4.2S273.3,77.3,273.3,79.7z M292.4,75.9l-2.1,1
	c-0.3-0.6-0.7-1.4-1.8-1.4c-0.9,0-1.4,0.5-1.4,1.2c0,2.1,5.5,1.8,5.5,5.7c0,2.2-1.6,3.8-4.2,3.8c-2.7,0-3.8-1.9-4.2-2.9l2.1-1
	c0.3,0.8,1,1.6,2.2,1.6c0.9,0,1.5-0.5,1.5-1.3c0-2.2-5.4-1.8-5.4-5.8c0-2.1,1.5-3.6,4-3.6S292.1,75,292.4,75.9L292.4,75.9z
	 M297.9,73.4h6.5v2.3h-3.9v2.8h3.4v2.2h-3.4v3h4.1V86H298V73.4H297.9z M308.6,77.5V86h-2.5V73.4h2.6l5.4,8.6v-8.6h2.5V86h-2.5
	L308.6,77.5z M325.1,82.8L324,86h-2.6l4.5-12.6h2.7l4.5,12.6h-2.6l-1.1-3.2H325.1z M327.3,76.1l-1.5,4.5h2.9L327.3,76.1z M334,73.4
	h2.5v10.3h4.1V86H334V73.4z M341.7,73.4h2.5V86h-2.5V73.4z M348.8,82.8l-1.1,3.2h-2.6l4.5-12.6h2.7l4.5,12.6h-2.6l-1.1-3.2H348.8z
	 M351,76.1l-1.5,4.5h2.9L351,76.1z M360.1,77.5V86h-2.5V73.4h2.6l5.4,8.6v-8.6h2.5V86h-2.5L360.1,77.5z M369.4,84.3l6.2-8.7h-6v-2.3
	h9.4V75l-6.2,8.7h6.3V86h-9.6L369.4,84.3L369.4,84.3z M383,82.8l-1.1,3.2h-2.6l4.5-12.6h2.7L391,86h-2.6l-1.1-3.2H383z M385.2,76.1
	l-1.5,4.5h2.9L385.2,76.1z M395.2,79.7c0-3.7,2.8-6.5,6.6-6.5c1.7,0,2.9,0.6,3.7,1.2l-0.7,2.2c-0.6-0.4-1.7-1-3-1
	c-2.3,0-3.9,1.8-3.9,4.2c0,2.4,1.6,4.2,3.9,4.2c1.4,0,2.5-0.6,3.1-1l0.7,2.2c-0.8,0.6-2,1.2-3.9,1.2
	C397.8,86.2,395.2,83.4,395.2,79.7L395.2,79.7z M406.3,79.7c0-3.7,2.7-6.5,6.6-6.5s6.6,2.9,6.6,6.5c0,3.7-2.7,6.5-6.6,6.5
	S406.3,83.4,406.3,79.7z M408.9,79.7c0,2.4,1.6,4.2,3.9,4.2s3.9-1.7,3.9-4.2c0-2.4-1.6-4.2-3.9-4.2S408.9,77.3,408.9,79.7z
	 M423.1,77.5V86h-2.5V73.4h2.6l5.4,8.6v-8.6h2.5V86h-2.5L423.1,77.5z" class="st1"></path></svg>
