<svg height="222.072775" viewBox="0 0 1097.261 541.05147" width="450.302835" xmlns="http://www.w3.org/2000/svg" xmlns:xlink="http://www.w3.org/1999/xlink"><linearGradient id="a"><stop offset="0" stop-color="#49b3df"/><stop offset="1" stop-color="#1d59ad"/></linearGradient><linearGradient id="b" gradientTransform="matrix(177.33384 -228.52184 228.52184 177.33384 -530.87429 585.94701)" gradientUnits="userSpaceOnUse" spreadMethod="pad" x1="0" x2="1" xlink:href="#a" y1="0" y2="0"/><linearGradient id="c" gradientUnits="userSpaceOnUse" spreadMethod="pad" x1="-592.96292" x2="-437.97363" xlink:href="#a" y1="467.92485" y2="467.92485"/><linearGradient id="d" gradientUnits="userSpaceOnUse" spreadMethod="pad" x1="-747.97203" x2="-592.96798" y1="312.92903" y2="312.92903"><stop offset="0" stop-color="#469ddc"/><stop offset="1" stop-color="#244990"/></linearGradient><linearGradient id="e" gradientTransform="matrix(422.36788 0 0 -422.36788 -863.82632 396.23494)" gradientUnits="userSpaceOnUse" spreadMethod="pad" x1="0" x2="1" xlink:href="#a" y1="0" y2="0"/><g transform="translate(863.54338 -119.84815)"><g fill="#e51636"><path d="m-197.54552 369.61863c17.41991 0 32.54333-12.5616 32.54333-33.06166 0-20.50007-15.12342-33.05567-32.54333-33.05567-17.42591 0-32.54933 12.5556-32.54933 33.05567 0 20.50006 15.12342 33.06166 32.54933 33.06166m24.59283 29.7284c18.96903 0 31.77779 7.67323 31.77779 26.63621 0 29.9876-31.51255 38.19727-57.91368 38.19727-13.83347 0-26.13589-2.32068-36.6421-6.67262-12.55563-5.12955-17.41995-8.18557-17.41995-17.1728v-7.93842c0-4.09277 2.04338-5.64188 8.4508-5.64188 9.48149 0 11.01854 8.98121 17.69115 14.09263 7.93843 6.15428 17.67307 9.99387 27.15456 9.99387 13.32714 0 39.71624-2.81493 39.71624-22.80863 0-7.17292-2.81493-12.03123-15.11735-12.03123h-40.74092c-20.75924 0-28.70368-5.37665-28.70368-17.17275 0-13.32714 7.94444-15.88891 18.19748-22.03712-14.0987-10.25304-22.54946-20.25292-22.54946-37.92599 0-31.26544 25.11123-48.68539 54.06806-48.68539 4.61116 0 8.1976.25904 12.29642 1.27788 9.4875-15.11736 19.73452-20.74717 34.59271-20.74717 8.96915 0 10.51221.75948 10.51221 5.11142v9.48754c0 4.09882-2.31461 5.12954-6.6666 5.12954-5.63583 0-9.22832-3.0741-14.35182-3.0741-6.66059 0-10.75935 4.09277-14.599 7.42003 17.41994 8.45076 27.1606 22.29629 27.1606 41.77165 0 29.98155-25.37039 46.3828-53.30251 46.3828-5.89505 0-15.37654-2.29654-16.40125-2.29654-1.02472 0-8.45682 2.54368-8.45682 9.98781 0 6.14219 6.40744 8.71599 14.09269 8.71599z"/><path d="m-90.94405 386.26942c0 9.23439 1.79021 10.50621 11.53693 10.50621 6.39536 0 7.93842 1.03679 7.93842 4.35799v5.12955c0 2.55572-1.54306 3.8336-4.87639 3.8336h-45.34601c-3.33327 0-4.87639-1.27788-4.87639-3.8336v-5.12955c0-3.3212 1.54312-4.35799 7.94448-4.35799 6.66655 0 8.71599-1.79022 8.71599-10.50621v-60.73461c0-4.34597-1.02472-5.63587-3.58649-5.63587-2.30856 0-4.86431 2.30861-7.94443 2.30861s-4.09882-1.01871-4.09882-3.59251v-5.88297c0-1.79627.51239-3.33933 3.08016-5.12955l19.72246-14.09869c2.82094-2.04939 4.87033-3.32727 7.69732-3.32727 2.81489 0 4.09277.75949 4.09277 3.32727v11.27775c9.47547-7.4321 18.70379-14.60502 34.08037-14.60502 6.66055 0 7.94444 1.27788 7.94444 19.72852 0 3.59249-1.53705 5.38271-7.43811 5.38271-9.21631 0-8.19159-4.35199-15.62369-4.35199-6.40136 0-14.0987 7.67924-18.96301 11.5249z"/><path d="m41.02664 344.7612c-34.8579.51238-60.73462 8.45081-60.73462 30.49394 0 15.62969 11.79009 20.74717 25.87672 20.74717 15.38254 0 29.7344-11.51884 34.8579-18.96301zm18.95695 47.14835c0 3.0741 1.27788 4.86432 3.07411 4.86432 2.56778 0 5.63587-.25317 8.71599-.25317 3.0741 0 4.35799 1.53099 4.35799 5.38267 0 6.40743-13.07398 10.76542-20.24686 10.76542-10.75936 0-12.80879-7.4321-14.09268-16.66648-11.7901 10.77744-25.62352 16.66648-43.30865 16.66648-21.5308 0-37.15449-13.84553-37.15449-35.62949 0-35.09298 38.95071-45.60524 79.69764-45.60524v-7.69127c0-13.32715-12.5616-20.24085-27.16663-20.24085-23.82733 0-24.85806 15.64176-38.69153 15.64176-5.1295 0-6.15422-1.03679-6.15422-3.34535v-11.28376c0-7.92034 25.62958-14.33378 45.6173-14.33378 16.91359 0 45.35203 3.0741 45.35203 33.82721z"/><path d="m167.33794 318.61804c1.53104-3.33329 1.78421-5.62982 1.78421-7.93843 0-3.08011-4.60515-4.61717-9.98786-4.61717-2.82094 0-3.84561-1.28388-3.84561-3.8396v-5.62985c0-2.56778 1.53705-3.8637 4.87033-3.8637h37.15447c3.33328 0 4.87635 1.29592 4.87635 3.8637v5.89504c0 7.67925-10.77139-1.54307-17.17882 14.59295l-44.0742 107.87695c-2.56172 6.40738-4.61115 12.3145-4.61115 17.69721 0 4.85826 5.12955 8.18552 13.32714 8.18552 5.63588 0 6.91371.5244 6.91371 3.5925v5.90105c0 2.55576-1.531 3.83965-4.86428 3.83965h-34.08637c-3.33333 0-4.86433-1.28389-4.86433-3.83965v-8.46883c0-4.60515 2.30857-8.70393 3.58645-12.03118l11.53092-29.73445-43.30269-95.58655c-5.89505-13.303-15.6297-5.62981-15.6297-12.54352v-5.37669c0-2.56778 1.531-3.8637 4.86432-3.8637h39.45703c3.33328 0 4.87634 1.29592 4.87634 3.8637v5.37669c0 2.80888-1.54306 4.09276-5.63583 4.09276-5.12955 0-8.45681 2.30861-8.45681 5.12955 0 3.83961 1.02471 5.88899 2.29654 8.96915l31.52461 68.66703z"/></g><path d="m-323.01198 391.06666-42.06097-.0317c-.0665 94.49568-58.04025 175.6641-140.26955 209.90722-83.36847 34.47214-183.07192 17.23907-249.84625-51.17483l-30.10813 29.39087c52.66961 53.9535 122.62659 81.01769 192.65589 81.07194v.15053c36.57578.0181 71.45781-7.29946 103.30191-20.53017 30.84954-12.73041 59.80642-31.4342 85.1105-56.14155l-.10262-.0963c50.09582-48.92649 81.27085-117.1535 81.31908-192.54739" fill="#fbbf16"/><path d="m-351.47578 390.57298-37.69697-.018c-.0543 84.68252-52.01262 157.42427-125.70069 188.11106-74.7188 30.89777-164.07876 15.43684-223.92134-45.85238l-26.96771 26.32278c47.19053 48.35385 109.88416 72.62118 172.64407 72.66336v.13245c32.7784.0181 64.04986-6.53395 92.57274-18.40841 27.64885-11.40433 53.60993-28.16122 76.28597-50.30079l-.0905-.0905c44.89999-43.84517 72.83216-104.98968 72.87434-172.5597" fill="#2d9edf"/><path d="m-744.6193 166.51422-.0665-.1085c-25.75014 17.44405-47.52203 38.56495-65.12877 62.2054-16.787 22.47111-30.34923 47.93192-39.72222 75.93642-13.61647 40.68061-16.9799 82.34376-11.50076 122.21669 5.37064 40.13215 19.84904 79.64944 44.0501 115.38739 16.96783 25.05698 37.43174 46.35269 60.30664 63.70628 22.91717 17.46814 49.02897 31.51259 77.82907 41.13874l.0362-.1085c77.20223 25.74412 165.1216 16.62431 237.55589-32.44083l-21.47651-31.71146c-84.4836 57.2205-193.51786 51.16872-270.67786-7.29951-49.264-37.44981-81.38536-93.24177-89.67943-153.89203-8.02883-60.06559 7.72142-121.74057 44.50218-170.72125 58.47424-77.61814 162.24035-113.1391 259.33979-80.638l12.16984-36.32261c-28.38419-9.51164-57.2446-14.0143-85.64693-14.0143-54.62261 0-107.51528 16.68452-151.89087 46.66607" fill="url(#e)"/><path d="m-592.96712 149.0666v-.13246c-35.52094 0-69.27583 7.70936-99.67329 21.54283-25.03283 11.30786-48.51053 27.10034-69.22759 47.37135l-.0181-.0181c-.39782.39782-.78358.79564-1.18141 1.18741-.21699.22288-.44619.43399-.66305.64498l.004.0135c-19.78276 19.77676-35.40644 42.19358-46.87105 66.12339-.0181.0226-.0181.0362-.0362.0484-.67508 1.41048-1.33212 2.82094-1.97705 4.24345-.34358.75347-.68716 1.50088-1.02472 2.26642-.2952.68109-.59674 1.35016-.89207 2.03131-12.81481 29.45113-19.93951 61.93414-19.93951 96.03861h.13247c-.004 60.97576 22.85085 121.99369 68.77556 168.91296l26.93755-26.36496c-58.65506-59.93295-72.75377-147.13506-42.7662-220.19023.0362-.0782.0665-.16275.0963-.24096.43987-1.06083.89814-2.1157 1.36229-3.16452.31328-.7414.63891-1.49482.97042-2.23622.17495-.39195.35578-.78363.53648-1.18145 20.42772-44.68301 56.5394-80.75246 101.25857-101.11387.55452-.25317 1.10908-.4943 1.66965-.74747.7414-.31962 1.49487-.65098 2.24229-.9885 74.32699-31.74767 163.83164-17.34762 224.39148 43.20621l26.6543-26.65429c-47.08185-47.0822-108.93164-70.60814-170.76331-70.59607" fill="#fbbf16"/><path d="m-561.87585 218.19958c.89207.15687 1.7902.3377 2.68229.50633.39782.0782.79564.14465 1.19347.22919 1.26581.26537 2.53162.53042 3.79743.82581 18.70984 4.22535 37.02188 11.61527 54.16453 22.35656l20.22276-32.26001c-20.82556-13.05591-43.05553-22.03107-65.75567-27.19077-.0135 0-.0226 0-.0317-.0135-1.62746-.37387-3.25493-.71125-4.8824-1.04276-.39783-.0905-.80772-.15686-1.21156-.24095-1.16938-.23508-2.34477-.45207-3.50809-.66305-.90415-.16863-1.79022-.3133-2.69437-.4581-.6088-.10849-1.21757-.21111-1.82637-.30153-40.0417-6.34111-79.63136-.98855-114.97148 13.75508-34.00199 14.07461-64.63453 37.0279-88.05802 67.94977-.0782.10849-.15687.21111-.22921.31961-.80767 1.05482-1.60332 2.12777-2.39296 3.21877-.43987.60881-.88606 1.22363-1.31405 1.84446-.45207.6329-.90415 1.27182-1.35622 1.91078-.74741 1.07892-1.48881 2.16996-2.2242 3.26095-.15687.24096-.31962.48823-.48218.72933-13.78528 20.80147-24.11065 44.36958-29.97554 70.08957l37.11831 8.47489c4.49058-19.67426 12.16377-37.80546 22.33246-54.00174.75343-1.21156 1.52498-2.39902 2.30254-3.57442.12659-.1867.24729-.37386.36755-.55455.61481-.92224 1.24171-1.83239 1.86254-2.73053.35578-.50632.71731-1.02467 1.07897-1.53099.36753-.52441.7414-1.0428 1.12114-1.5612.6329-.86798 1.27181-1.74197 1.9228-2.60996.0723-.0904.14467-.1867.217-.28345 18.81835-24.72542 43.87528-43.92952 72.26554-55.77992 29.66812-12.29036 62.45253-16.34095 94.54979-11.30787.434.0723.88001.14466 1.32007.21112.79565.14466 1.59731.28345 2.39295.42179" fill="#e51636"/><path d="m-585.14443 565.27191c-.91016.0407-1.8143.0723-2.73052.10262-.4037.0135-.80772.0226-1.20555.0226-1.2899.0362-2.59188.0484-3.89385.0484-19.17996.0181-38.66738-3.12836-57.76901-9.80699l-12.56766 35.93687c23.18837 8.11924 46.85897 11.95284 70.13174 11.95284h.0362c1.67566 0 3.33328-.0181 5.00293-.0543.4037 0 .81373-.0181 1.22363-.0317 1.19347-.0362 2.38094-.0845 3.57441-.13246.90415-.0484 1.8083-.0963 2.71845-.15054.62084-.0317 1.23566-.0723 1.86255-.1207 40.45159-2.67026 77.85922-16.67249 109.05836-38.87236 30.04181-21.2535 54.82754-50.42733 70.82495-85.77952.0484-.10849.0963-.23508.15054-.34358.55456-1.22362 1.08497-2.44725 1.61539-3.6769.29521-.68715.59073-1.38633.88607-2.09157.2952-.7173.59674-1.42854.88006-2.15793.50631-1.22358.98249-2.45321 1.45264-3.68286.0963-.28345.21112-.54249.30741-.81373 8.83055-23.33308 13.6888-48.60701 13.71896-74.99005l-38.08272-.0407c-.0181 20.18058-3.49001 39.55946-9.80698 57.61231-.47622 1.34416-.96446 2.68229-1.46472 3.99633-.0782.2048-.15054.41592-.23508.62084-.39782 1.03674-.80171 2.05545-1.20555 3.08012-.23507.57264-.47616 1.15731-.71125 1.72995-.24727.58466-.5003 1.1754-.74745 1.75405-.42812 1.00057-.86192 1.99513-1.30198 2.97162-.0543.11437-.10849.22286-.16274.34357-12.86301 28.27574-33.04359 52.54909-58.10057 70.39096-26.21423 18.55313-57.28682 29.77058-89.69751 31.97068-.43986.0317-.88606.0665-1.33813.0845l-2.42312.12658" fill="#e51636"/><path d="m-493.95687 545.50298-20.488-32.09726c-48.23929 30.8013-107.90105 29.58974-153.91613 1.92886-1.68778-1.0187-3.35141-2.05544-4.97887-3.14042-.33771-.21699-.66907-.4462-1.00058-.66306-1.75405-1.1814-3.484-2.39296-5.17172-3.62862-.24729-.18083-.49426-.35577-.74141-.54854-1.72995-1.29592-3.42975-2.62203-5.09338-3.97825-.20479-.16275-.42179-.34946-.6329-.51234-1.66364-1.3743-3.29111-2.78477-4.88842-4.23141-.19891-.18083-.4037-.36753-.60881-.55456-1.57321-1.44058-3.11628-2.91737-4.62318-4.41225-.20479-.20478-.4037-.41002-.60881-.62083-1.4828-1.49487-2.92943-3.03192-4.33991-4.58706-.20479-.22287-.4037-.45207-.6088-.67508-1.39841-1.56721-2.77271-3.1585-4.09878-4.78597-.17495-.21112-.34946-.42179-.51839-.6329-1.35622-1.68172-2.68229-3.38152-3.95416-5.10541-.10262-.14467-.20479-.28933-.31961-.434-33.53784-45.76797-38.63725-109.06436-7.89019-160.85998l-32.75426-19.43317c-36.58184 61.63876-32.90498 136.1888 3.17054 192.89698l-.0226.0226c1.39845 2.19406 2.85111 4.34592 4.33391 6.44961.0543.0723.0963.14467.14466.21699.72332 1.01866 1.44663 2.04939 2.19405 3.04997.20479.28345.4037.55455.6088.83182.63291.86196 1.2839 1.72393 1.93489 2.57384.30153.39782.61482.78959.91016 1.1814.59674.75347 1.19953 1.51295 1.80228 2.26638.37387.46415.7414.91622 1.12114 1.3743.57265.69321 1.13924 1.38638 1.71789 2.06752.42179.48824.84388.97648 1.27181 1.47674.56057.651 1.11513 1.27788 1.68778 1.92286.45809.50633.89809 1.01264 1.35017 1.50088.56662.62685 1.14528 1.25375 1.71186 1.86255.47015.49426.9343.97648 1.40446 1.47074.58467.61481 1.17539 1.22363 1.76608 1.82036.47015.48218.94636.9584 1.41653 1.43456.60876.59074 1.21756 1.1995 1.83238 1.79022.47618.45207.94633.91016 1.41649 1.35622.64497.60275 1.27788 1.20555 1.91679 1.7842.48223.43987.9584.86799 1.43461 1.31401.65701.5847 1.314 1.16336 1.97105 1.74201.48823.42812.97648.84385 1.46472 1.25976.66301.56662 1.33207 1.13321 2.00115 1.69979.51238.41591 1.01264.83181 1.52502 1.25379.66302.53642 1.33208 1.06083 2.00721 1.59129.54249.434 1.07893.85592 1.63348 1.28389.6329.48219 1.26581.97043 1.90473 1.45266.61481.44619 1.22363.91016 1.83243 1.3502.5726.434 1.14524.84385 1.7239 1.24773.71125.49426 1.42254 1.01265 2.1398 1.50088.45207.31962.91021.62685 1.36829.94032.86197.57865 1.72995 1.16933 2.60996 1.74197.25316.16863.51238.33771.77757.50031 2.04337 1.32607 4.1169 2.63406 6.23261 3.89987l.0135-.0317c57.85946 34.20696 132.48785 35.45468 192.90904-3.12835" fill="#2d9edf"/><path d="m-747.97066 389.13964v1.29592h38.08272c0-64.48385 52.44661-116.91238 116.91843-116.91238v-38.09478c-85.03215 0-154.29591 68.84183-155.00115 153.71124" fill="url(#d)"/><path d="m-476.05112 390.42353c0 64.46577-52.43455 116.91838-116.91238 116.92444v38.08874c85.47216 0 155.00115-69.55309 154.99509-155.01318z" fill="url(#c)"/><path d="m-644.47101 536.55255c-37.43775-13.20056-69.84242-40.63243-88.29911-79.1853l34.3456-16.4314c13.92388 29.06537 38.37205 49.7583 66.61159 59.70393z" fill="#1e59ae"/><path d="m-344.32876 371.47258h-124.56753-37.10022c2.15186 9.84315 2.55575 19.71645 1.43461 29.27632-.36754 3.03795-.86799 6.03972-1.52503 8.96915h37.10023 107.46104c-.0723.82577-.15054 1.65758-.23508 2.47131-.13246 1.35021-.25316 2.71245-.4037 4.06265-.72332 6.51588-1.72991 13.06798-3.03794 19.61401h.0135c-2.05544 10.27112-4.82214 20.53018-8.34832 30.68678h.004c-2.07954 5.96132-4.40622 11.89859-7.00416 17.78157l35.03276 15.47902c8.56527-19.35479 14.64114-39.20387 18.39638-59.16746.0407-.13879.0665-.27712.0963-.41003.20478-1.08498.37974-2.19405.57865-3.28508.13879-.81373.28933-1.62142.42811-2.42312.0226-.15055.0362-.31329.0665-.45809 1.24166-7.61894 2.16389-15.24995 2.73053-22.85686.0407-.34946.0665-.69923.0905-1.04281.0484-.61481.0845-1.23565.12071-1.83839.17495-2.58587.31961-5.15971.4037-7.74557.0362-1.04882.0601-2.10364.0905-3.15245.0317-1.01866.0484-2.01928.0601-3.03192.0135-1.091.0601-2.16996.0665-3.23686v-.58467h-.0317v-.36753c0-.75948.004-1.51898 0-2.27846-.004-.65098-.0226-1.29596-.0362-1.94089-.0723-4.87037-.27124-9.72863-.60881-14.54475z" fill="url(#b)"/><path d="m-680.49228 406.70059c2.09763 11.37419 6.46164 22.51329 13.21865 32.76032l-30.48787 20.11427c-9.37299-14.19512-15.47296-29.61989-18.4868-45.36415z" fill="#e51636"/><path d="m-243.84211 526.40516-2.40503.31962v-24.50242h-7.36578l.54249-2.39296h16.24451v2.39296h-7.01619z"/><path d="m-221.2517 510.44514c-.89207-.97648-2.36285-1.71183-4.14099-1.71183-4.58707 0-7.91428 3.36343-7.91428 7.75153 0 .51238.0362 1.09105.15687 1.59131zm-11.27775 9.64427c.77156 1.78416 3.2911 4.53277 6.89567 4.53277 2.83297 0 5.27417-1.47074 7.36577-3.21271v2.71245c-1.71186 1.6998-4.80405 2.75461-7.20909 2.75461-6.00955 0-10.07821-4.55088-10.07821-10.42785 0-5.88899 4.34592-9.95765 10.16262-9.95765 3.55633 0 6.4978 2.29047 7.66717 4.53276z"/><path d="m-211.64662 526.40516-2.24829.47016v-28.0587l2.24829-.47016z"/><path d="m-193.28155 510.44514c-.89209-.97648-2.36286-1.71183-4.15307-1.71183-4.56894 0-7.90221 3.36343-7.90221 7.75153 0 .51238.0407 1.09105.16274 1.59131zm-11.2717 9.64427c.77151 1.78416 3.29109 4.53277 6.88961 4.53277 2.83297 0 5.28022-1.47074 7.36577-3.21271v2.71245c-1.71186 1.6998-4.80405 2.75461-7.20302 2.75461-6.00355 0-10.07823-4.55088-10.07823-10.42785 0-5.88899 4.33386-9.95765 10.1445-9.95765 3.57441 0 6.51592 2.29047 7.67924 4.53276z"/><path d="m-180.49568 521.44862 7.01619-14.96063 2.39902.46415-9.37303 19.92743h-.0782l-9.379-19.92743 2.16995-.46415z"/><path d="m-168.71824 526.87591v-19.92743l2.24829-.4641v19.92137zm2.71244-26.51565-1.77814 2.01928-1.79022-2.01928 1.79022-2.0072z"/><path d="m-160.93416 522.50164c1.47679 1.38036 2.79079 2.12176 4.8824 2.12176 2.29053 0 4.18924-1.19347 4.18924-3.60456 0-4.87635-10.27113-2.05541-10.27113-8.87269 0-3.56234 3.0982-5.65996 6.43148-5.65996 2.36887 0 3.95415.97042 5.81068 2.29048l-1.27186 1.77819c-1.36223-1.00063-2.87519-1.82638-4.65934-1.82638-2.20011 0-4.06266 1.09099-4.06266 3.2971 0 4.88842 10.26511 1.66965 10.26511 8.86667 0 4.07473-3.13441 5.98546-6.93184 5.98546-2.39897 0-4.57498-1.1814-6.08188-2.95354z"/><path d="m-145.04525 526.87591v-19.92743l2.2483-.4641v19.92137zm2.71245-26.51565-1.78421 2.01928-1.78415-2.01928 1.78415-2.0072z"/><path d="m-136.56194 516.68137c0 4.14705 3.33328 7.93841 7.70935 7.93841 4.38214 0 7.71542-3.79136 7.71542-7.93841 0-4.14101-3.33328-7.95046-7.71542-7.95046-4.37607 0-7.70935 3.80945-7.70935 7.95046m17.66706 0c0 5.22597-4.22541 10.19277-9.95771 10.19277s-9.95765-4.9668-9.95765-10.19277c0-5.23199 4.22535-10.19274 9.95765-10.19274s9.95771 4.96075 9.95771 10.19274"/><path d="m-115.98895 526.72102v-19.77068l2.2483-.4581v3.20069h.0723c1.04881-1.73596 3.26099-3.20069 5.61778-3.20069 3.76727 0 7.24526 1.46473 7.24526 6.85946v13.04989l-2.24229.31961v-13.86962c0-2.83297-1.82037-4.34594-4.92462-4.34594-2.12773 0-5.76846 1.54913-5.76846 5.30433v12.5918z"/><path d="m-79.3366 519.78196c-3.71907 0-6.66054-2.93546-6.66054-6.66656-.0484-3.64674 2.89929-6.63043 6.66054-6.63043 3.68292 0 6.62438 2.98369 6.62438 6.63043 0 3.68287-2.94146 6.66656-6.62438 6.66656"/><path d="m-54.93119 524.00135h3.91798c6.31096 0 10.84978-4.6895 10.84978-11.04264 0-6.12411-3.86976-10.72925-10.26511-10.72925h-4.50265zm-2.39903-24.17693h6.82334c7.28137 0 12.97149 5.6238 12.97149 13.13429 0 7.55868-5.53339 13.44767-12.97149 13.44767h-6.82334z"/><path d="m-33.11473 526.87591v-19.92743l2.2483-.4641v19.92137zm2.71244-26.51565-1.77814 2.01928-1.79022-2.01928 1.79022-2.0072z"/><path d="m-24.40237 513.74166c0 3.17659 2.90535 4.94872 5.85288 4.94872 2.86913 0 5.96737-1.77213 5.96737-4.94872 0-3.26094-3.01985-5.15965-5.93121-5.15965-2.90535 0-5.88904 1.89871-5.88904 5.15965m-1.51295 13.7973c1.83244 2.0856 3.99634 3.74924 7.10059 3.74924 3.13437 0 6.4737-1.97711 6.4737-4.88241 0-3.32726-3.1826-5.60572-6.28686-5.60572-1.85648 0-3.33328.45208-5.07525 1.11509l.81974-2.56778c-2.02528-.88001-3.76125-3.25493-3.76125-5.49722 0-4.64732 3.71907-7.35977 8.09516-7.35977.77756 0 1.58524.0723 2.3628.0723 2.17602 0 4.30981-.30742 6.39536-.72934l-.65099 2.28447c-.62688.19303-1.05482.25904-1.71186.25904-.34946 0-.69317-.0226-1.04882-.10262l-.0723.0782c1.66364 1.34421 2.94151 3.06208 2.94151 5.34054 0 2.68228-1.7842 4.99691-4.2254 5.97339 2.68234 1.22964 4.46048 3.36343 4.46048 6.43152 0 4.68349-4.38209 7.43811-8.9149 7.43811-3.60452 0-6.66054-2.12778-8.60148-4.71965z"/><path d="m-5.147 526.87591v-19.92743l2.24831-.4641v19.92137zm2.71245-26.51565-1.77814 2.01928-1.7842-2.01928 1.7842-2.0072z"/><path d="m3.07108 502.18484 2.2483-1.22964v5.99752h5.26821v2.24831h-5.26821v12.01314c0 2.36887 1.00664 3.24888 3.484 3.24888.62083 0 1.19347 0 1.82037-.0723v2.08559c-.6269.12659-1.32006.24096-2.01327.24096-3.56234 0-5.5394-2.05544-5.5394-5.54546v-11.97092h-2.59793l.53647-2.2483h2.06146z"/><path d="m19.22822 524.62038c2.7486 0 4.6895-2.04939 4.6895-4.80402 0-2.86917-1.97707-4.84022-4.76786-4.84022-2.98368 0-5.23804 2.01928-5.23804 5.11747 0 2.86313 2.71845 4.52677 5.3164 4.52677m-4.81007-16.96784c1.7902-.7414 3.71907-1.16938 5.66597-1.16938 3.01384 0 6.08795 1.5913 6.08795 4.93064v14.99077l-2.25435.47016v-2.43518h-.0782c-.77151 1.42253-2.47737 2.43518-4.76785 2.43518-3.99633 0-7.39594-2.55571-7.39594-6.78112 0-4.30374 2.82095-7.36577 7.1247-7.36577 1.94088 0 3.79742 1.08498 5.11747 2.2483v-3.24892c0-1.63949-1.9771-2.99571-4.57498-2.99571-1.86255 0-3.95417.96441-5.65396 1.54908z"/><path d="m33.6717 526.40516-2.23627.47016v-28.0587l2.23627-.47016z"/><path d="m56.22537 519.78196c-3.71908 0-6.6666-2.93546-6.6666-6.66656-.0362-3.64674 2.90534-6.63043 6.6666-6.63043 3.68291 0 6.63043 2.98369 6.63043 6.63043 0 3.68287-2.94752 6.66656-6.63043 6.66656"/><path d="m99.69803 499.20355h.0845l5.34654 27.20283-2.41109.31962-3.78536-19.69837h-.0905l-8.05898 19.99977h-.0723l-8.37241-19.99977h-.0723l-3.6467 19.69837-2.40503-.31962 5.42488-27.20283h.0845l9.02941 21.66339z"/><path d="m108.80398 516.68137c0 4.14705 3.32726 7.93841 7.70936 7.93841 4.38212 0 7.71541-3.79136 7.71541-7.93841 0-4.14101-3.33329-7.95046-7.71541-7.95046-4.3821 0-7.70936 3.80945-7.70936 7.95046m17.66705 0c0 5.22597-4.2254 10.19277-9.95769 10.19277-5.72625 0-9.95165-4.9668-9.95165-10.19277 0-5.23199 4.2254-10.19274 9.95165-10.19274 5.73229 0 9.95769 4.96075 9.95769 10.19274"/><path d="m139.7192 524.62038c4.57499 0 7.67925-3.36945 7.82993-7.86004 0-4.6654-3.29111-8.02883-7.9505-8.02883-4.44841 0-7.9806 3.36343-7.9806 8.14334 0 4.56898 3.72509 7.74553 8.10117 7.74553m-10.34346-25.8044 2.24229-.46409v12.28434c2.33271-2.59793 4.99692-4.15307 8.42065-4.15307 5.34049 0 9.75875 3.83964 9.75875 9.96372 0 5.65996-4.37608 10.42785-10.1144 10.42785-6.50987 0-10.30729-4.2254-10.30729-10.6147z"/><path d="m154.13313 526.87591v-19.92743l2.2483-.4641v19.92137zm2.71244-26.51565-1.7842 2.01928-1.78415-2.01928 1.78415-2.0072z"/><path d="m164.97568 526.40516-2.24229.47016v-28.0587l2.24229-.47016z"/><path d="m183.3468 510.44514c-.89209-.97648-2.36286-1.71183-4.15308-1.71183-4.56893 0-7.90225 3.36343-7.90225 7.75153 0 .51238.0362 1.09105.16275 1.59131zm-11.27171 9.64427c.7655 1.78416 3.2911 4.53277 6.88961 4.53277 2.82695 0 5.27417-1.47074 7.35977-3.21271v2.71245c-1.6998 1.6998-4.79804 2.75461-7.20308 2.75461-6.00955 0-10.07822-4.55088-10.07822-10.42785 0-5.88899 4.34592-9.95765 10.15055-9.95765 3.56841 0 6.51592 2.29047 7.67924 4.53276z"/><path d="m222.38547 299.39647h1.06088c1.22964 0 2.23021-.41002 2.23021-1.41046 0-.88002-.64497-1.46472-2.06146-1.46472-.59072 0-1.00057.0543-1.22963.11437zm-.0601 5.46106h-2.23026v-9.63822c.88005-.16863 2.12176-.28345 3.701-.28345 1.82037 0 2.64011.28345 3.34535.69918.53647.41591.94632 1.17539.94632 2.11571 0 1.05487-.82576 1.88062-2.00115 2.23627v.11437c.94031.35579 1.47073 1.05487 1.76005 2.35079.28934 1.46472.47618 2.05544.71126 2.40504h-2.41105c-.30154-.34946-.47016-1.22965-.77156-2.33872-.16862-1.06088-.75948-1.53104-1.99514-1.53104h-1.05482zm-5.93121-5.05116c0 4.28567 3.17053 7.70334 7.52251 7.70334 4.21935 0 7.33562-3.41767 7.33562-7.64308 0-4.29167-3.11627-7.75153-7.39592-7.75153-4.29168 0-7.46221 3.45986-7.46221 7.69127m17.32348 0c0 5.46707-4.27965 9.75273-9.86127 9.75273-5.52132 0-9.93356-4.28566-9.93356-9.75273 0-5.34654 4.41224-9.6322 9.93356-9.6322 5.58162 0 9.86127 4.28566 9.86127 9.6322" fill="#e51636"/></g></svg>