<?xml version="1.0" encoding="utf-8"?>
<!-- Generator: Adobe Illustrator 21.1.0, SVG Export Plug-In . SVG Version: 6.00 Build 0)  -->
<svg version="1.1" id="Capa_1" xmlns="http://www.w3.org/2000/svg" xmlns:xlink="http://www.w3.org/1999/xlink" x="0px" y="0px"
	 viewBox="0 0 249.3 59.3" style="enable-background:new 0 0 249.3 59.3;" xml:space="preserve">
<style type="text/css">
	.st0{fill:#F68E1E;}
</style>
<g>
	<path class="st0" d="M9.7,18.9c-1.7,0-3.2-0.7-4.3-1.7v39.4H14V17.2C12.9,18.2,11.4,18.9,9.7,18.9z"/>
	<ellipse class="st0" cx="9.7" cy="9.6" rx="4.8" ry="4.9"/>
	<g>
		<path class="st0" d="M21.1,16.9h8.2v5.8l0.2,0.2c1.3-2.2,3-3.9,5.1-5.2c2.1-1.3,4.5-1.9,7-1.9c4.3,0,7.7,1.1,10.1,3.4
			c2.5,2.2,3.7,5.6,3.7,10.1v27.2h-8.6V31.6c-0.1-3.1-0.8-5.4-2-6.8s-3.1-2.1-5.7-2.1c-1.5,0-2.8,0.3-3.9,0.8
			c-1.2,0.5-2.1,1.3-2.9,2.2c-0.8,0.9-1.4,2.1-1.9,3.3c-0.5,1.3-0.7,2.6-0.7,4.1v23.4h-8.6C21.1,56.5,21.1,16.9,21.1,16.9z"/>
		<path class="st0" d="M58.2,16.9h6.4v-3.3c0-2.5,0.3-4.5,0.9-6.1s1.4-2.8,2.4-3.6s2.2-1.4,3.4-1.7c1.3-0.3,2.6-0.4,4-0.4
			c2.8,0,4.8,0.2,6,0.5v6.8c-0.6-0.2-1.1-0.3-1.8-0.3c-0.4,0-1.2-0.1-2-0.1c-1.2,0-2.2,0.3-3,0.8c-0.8,0.6-1.2,1.7-1.2,3.3v4.1h7.3
			v6.5h-7.3v33.1h-8.6V23.4h-6.4L58.2,16.9L58.2,16.9z"/>
		<path class="st0" d="M101.4,57.6c-3.1,0-5.9-0.5-8.3-1.6c-2.4-1-4.5-2.5-6.2-4.3s-3-4-3.9-6.6s-1.3-5.4-1.3-8.4
			c0-3,0.4-5.8,1.3-8.4s2.2-4.8,3.9-6.6c1.7-1.8,3.7-3.3,6.2-4.3c2.4-1,5.2-1.6,8.3-1.6c3.1,0,5.9,0.5,8.3,1.6
			c2.4,1,4.5,2.5,6.2,4.3s3,4,3.9,6.6s1.3,5.3,1.3,8.4s-0.4,5.9-1.3,8.4c-0.9,2.6-2.2,4.8-3.9,6.6c-1.7,1.8-3.8,3.3-6.2,4.3
			C107.3,57.1,104.5,57.6,101.4,57.6z M101.4,50.7c1.9,0,3.6-0.4,5-1.2s2.6-1.9,3.5-3.2s1.6-2.8,2-4.5s0.6-3.4,0.6-5.1
			c0-1.7-0.2-3.4-0.6-5.1c-0.4-1.7-1.1-3.2-2-4.5s-2.1-2.4-3.5-3.2c-1.4-0.8-3.1-1.2-5-1.2s-3.6,0.4-5,1.2c-1.4,0.8-2.6,1.9-3.5,3.2
			c-0.9,1.3-1.6,2.8-2,4.5c-0.4,1.7-0.6,3.4-0.6,5.1s0.2,3.4,0.6,5.1c0.4,1.7,1.1,3.2,2,4.5s2.1,2.4,3.5,3.2S99.5,50.7,101.4,50.7z"
			/>
		<path class="st0" d="M126.2,1.8h8.6V22h0.2c0.6-1,1.3-1.8,2.2-2.6c0.9-0.8,1.8-1.4,2.8-2c1-0.5,2.1-0.9,3.2-1.2
			c1.1-0.3,2.3-0.4,3.4-0.4c3.1,0,5.7,0.5,8,1.6s4.2,2.6,5.7,4.5s2.6,4.2,3.4,6.7c0.8,2.6,1.1,5.3,1.1,8.2c0,2.7-0.3,5.2-1,7.7
			s-1.7,4.7-3.1,6.6c-1.4,1.9-3.1,3.5-5.2,4.6c-2.1,1.2-4.6,1.7-7.5,1.7c-1.3,0-2.6-0.1-4-0.3c-1.3-0.2-2.6-0.5-3.8-1
			s-2.3-1.2-3.3-2s-1.8-1.9-2.5-3.2h-0.1v5.4h-8.2L126.2,1.8L126.2,1.8z M156.2,36.8c0-1.8-0.2-3.5-0.7-5.2s-1.1-3.2-2-4.5
			s-2-2.4-3.4-3.1c-1.4-0.8-2.9-1.2-4.7-1.2c-3.6,0-6.4,1.3-8.2,3.8c-1.8,2.6-2.8,6-2.8,10.2c0,2,0.2,3.8,0.7,5.6
			c0.5,1.7,1.2,3.2,2.2,4.4s2.1,2.2,3.4,2.9c1.3,0.7,2.9,1.1,4.6,1.1c2,0,3.6-0.4,5-1.2s2.5-1.9,3.4-3.2s1.5-2.8,1.9-4.4
			C156,40.2,156.2,38.5,156.2,36.8z"/>
		<path class="st0" d="M202.4,47.7c0,1.1,0.1,1.8,0.4,2.3c0.3,0.5,0.8,0.7,1.6,0.7c0.3,0,0.6,0,0.9,0c0.4,0,0.8-0.1,1.2-0.2v6.1
			c-0.3,0.1-0.7,0.2-1.2,0.3s-1,0.2-1.5,0.3s-1,0.2-1.5,0.2c-0.5,0.1-0.9,0.1-1.3,0.1c-1.8,0-3.2-0.4-4.4-1.1
			c-1.2-0.7-1.9-2-2.3-3.8c-1.7,1.7-3.8,2.9-6.3,3.7s-4.9,1.1-7.2,1.1c-1.8,0-3.4-0.2-5.1-0.7c-1.6-0.5-3-1.2-4.3-2.1
			c-1.2-0.9-2.2-2.1-2.9-3.6s-1.1-3.2-1.1-5.1c0-2.5,0.4-4.4,1.3-6c0.9-1.5,2-2.7,3.5-3.6c1.4-0.9,3-1.5,4.8-1.9s3.6-0.7,5.4-0.9
			c1.6-0.3,3-0.5,4.5-0.7c1.4-0.1,2.7-0.3,3.7-0.7c1.1-0.3,1.9-0.8,2.6-1.4c0.6-0.6,0.9-1.6,0.9-2.9c0-1.1-0.3-2-0.8-2.8
			c-0.5-0.7-1.2-1.3-2-1.6c-0.8-0.4-1.6-0.6-2.6-0.8c-1-0.1-1.9-0.2-2.7-0.2c-2.4,0-4.4,0.5-6,1.5s-2.4,2.6-2.6,4.8h-8.6
			c0.2-2.6,0.8-4.7,1.8-6.4c1.1-1.7,2.4-3,4-4.1c1.6-1,3.5-1.7,5.6-2.1s4.2-0.6,6.3-0.6c1.9,0,3.8,0.2,5.7,0.6s3.5,1.1,5,2
			s2.7,2.1,3.6,3.6c0.9,1.5,1.4,3.2,1.4,5.3v20.7H202.4z M193.8,36.7c-1.3,0.9-2.9,1.4-4.8,1.6c-1.9,0.2-3.8,0.4-5.7,0.8
			c-0.9,0.2-1.8,0.4-2.6,0.7c-0.9,0.3-1.6,0.7-2.3,1.2s-1.2,1.1-1.5,1.9c-0.4,0.8-0.6,1.8-0.6,2.9c0,1,0.3,1.8,0.8,2.5
			c0.6,0.7,1.2,1.2,2,1.6c0.8,0.4,1.6,0.7,2.6,0.8c0.9,0.2,1.8,0.2,2.5,0.2c1,0,2-0.1,3.1-0.4c1.1-0.3,2.2-0.7,3.1-1.3
			c1-0.6,1.8-1.4,2.5-2.3c0.7-0.9,1-2.1,1-3.5v-6.7H193.8z"/>
		<path class="st0" d="M216.1,39c0,1.5,0.2,3,0.6,4.4c0.4,1.4,1.1,2.7,1.9,3.8c0.9,1.1,1.9,1.9,3.2,2.6c1.3,0.6,2.9,1,4.7,1
			c2.5,0,4.5-0.5,6.1-1.6c1.5-1.1,2.7-2.7,3.4-4.9h8.2c-0.5,2.1-1.2,4.1-2.3,5.8s-2.4,3.1-4,4.3c-1.6,1.1-3.3,2-5.2,2.6
			s-4,0.9-6.1,0.9c-3.1,0-5.8-0.5-8.2-1.5s-4.4-2.5-6-4.3s-2.9-4-3.7-6.6s-1.2-5.4-1.2-8.4c0-2.8,0.4-5.5,1.3-8
			c0.9-2.5,2.1-4.8,3.8-6.7c1.6-1.9,3.6-3.4,5.9-4.6c2.3-1.1,4.9-1.7,7.9-1.7c3.1,0,5.8,0.7,8.3,2c2.4,1.3,4.5,3,6.1,5.2
			c1.6,2.1,2.8,4.6,3.5,7.4c0.7,2.8,0.9,5.7,0.6,8.6h-28.8V39z M236.2,33.2c-0.1-1.4-0.4-2.7-0.9-4s-1.1-2.4-2-3.3
			c-0.8-0.9-1.8-1.7-3-2.3c-1.2-0.6-2.5-0.9-4-0.9s-2.9,0.3-4.1,0.8c-1.2,0.5-2.3,1.3-3.2,2.2c-0.9,0.9-1.6,2.1-2.1,3.3
			c-0.5,1.3-0.8,2.7-0.9,4.1L236.2,33.2L236.2,33.2z"/>
	</g>
</g>
</svg>
