<?xml version="1.0" encoding="UTF-8"?>
<svg width="735px" height="76px" viewBox="0 0 735 76" version="1.1" xmlns="http://www.w3.org/2000/svg" xmlns:xlink="http://www.w3.org/1999/xlink">
    <!-- Generator: Sketch 55.2 (78181) - https://sketchapp.com -->
    <title>Group</title>
    <desc>Created with Sketch.</desc>
    <g id="Page-1" stroke="none" stroke-width="1" fill="none" fill-rule="evenodd">
        <g id="Group" fill="#279655" fill-rule="nonzero">
            <g transform="translate(110.000000, 14.000000)">
                <polygon id="Path" points="23.8 37.7 23.5 37.7 6 11.9 6 50.9 0.7 50.9 0.7 2.7 6.2 2.7 23.8 29 41.4 2.7 46.9 2.7 46.9 50.9 41.5 50.9 41.5 11.9"></polygon>
                <path d="M75.3,47.1 C80.2,47.1 83.6,45.1 86.5,42.1 L89.8,45.1 C86.2,49.1 81.9,51.8 75.1,51.8 C65.3,51.8 57.3,44.3 57.3,33.2 C57.3,22.9 64.5,14.6 74.4,14.6 C85,14.6 91,23 91,33.4 C91,33.9 91,34.4 90.9,35.1 L62.7,35.1 C63.5,42.8 69,47.1 75.3,47.1 Z M85.7,31.2 C85.1,24.7 81.4,19.1 74.3,19.1 C68.1,19.1 63.4,24.3 62.7,31.2 L85.7,31.2 Z" id="Shape"></path>
                <path d="M107.5,40.8 C107.5,45.1 109.9,46.7 113.5,46.7 C115.3,46.7 116.8,46.4 118.7,45.5 L118.7,50 C116.8,51 114.8,51.5 112.3,51.5 C106.6,51.5 102.2,48.7 102.2,41.4 L102.2,20 L97.2,20 L97.2,15.3 L102.2,15.3 L102.2,4.6 L107.5,4.6 L107.5,15.3 L118.8,15.3 L118.8,20 L107.5,20 L107.5,40.8 L107.5,40.8 Z" id="Path"></path>
                <path d="M133.5,50.9 L128.2,50.9 L128.2,15.3 L133.5,15.3 L133.5,24.6 C136.1,18.7 141.3,14.4 148,14.7 L148,20.4 L147.6,20.4 C139.8,20.4 133.5,26 133.5,36.7 L133.5,50.9 L133.5,50.9 Z" id="Path"></path>
                <path d="M170.8,51.7 C160.1,51.7 152.3,43.3 152.3,33.2 C152.3,23.1 160.1,14.5 170.9,14.5 C181.6,14.5 189.4,22.9 189.4,33 C189.4,43.1 181.5,51.7 170.8,51.7 Z M170.8,19.2 C163.1,19.2 157.8,25.3 157.8,33 C157.8,40.7 163.4,47 170.9,47 C178.6,47 184,40.9 184,33.2 C184,25.4 178.3,19.2 170.8,19.2 Z" id="Shape"></path>
                <polygon id="Path" points="249.8 2.6 254.3 2.6 267.5 42.9 281.3 2.7 287 2.7 269.8 51.2 265.2 51.2 252 12.1 238.7 51.2 234.1 51.2 216.9 2.7 222.8 2.7 236.6 42.9"></polygon>
                <path d="M307.7,51.7 C297,51.7 289.2,43.3 289.2,33.2 C289.2,23.1 297,14.5 307.8,14.5 C318.5,14.5 326.3,22.9 326.3,33 C326.3,43.1 318.5,51.7 307.7,51.7 Z M307.7,19.2 C300,19.2 294.7,25.3 294.7,33 C294.7,40.7 300.4,47 307.9,47 C315.6,47 321,40.9 321,33.2 C320.9,25.4 315.2,19.2 307.7,19.2 Z" id="Shape"></path>
                <path d="M341.3,50.9 L336,50.9 L336,15.3 L341.3,15.3 L341.3,24.6 C343.9,18.7 349.1,14.4 355.8,14.7 L355.8,20.4 L355.4,20.4 C347.6,20.4 341.3,26 341.3,36.7 L341.3,50.9 Z" id="Path"></path>
                <polygon id="Path" points="364.3 50.9 364.3 0.6 369.6 0.6 369.6 50.9"></polygon>
                <path d="M410.6,50.9 L410.6,43.7 C407.7,48 403.5,51.6 397,51.6 C388.5,51.6 380,44.8 380,33.1 C380,21.4 388.5,14.5 397,14.5 C403.6,14.5 407.9,18.1 410.6,22.1 L410.6,0.7 L415.9,0.7 L415.9,51 L410.6,50.9 L410.6,50.9 Z M397.9,19.3 C391,19.3 385.4,24.4 385.4,33.1 C385.4,41.6 391.2,46.9 397.9,46.9 C404.5,46.9 410.8,41.4 410.8,33.1 C410.8,24.8 404.5,19.3 397.9,19.3 Z" id="Shape"></path>
                <polygon id="Path" points="484.7 2.7 490 2.7 490 50.9 485.7 50.9 454.6 11.4 454.6 50.9 449.3 50.9 449.3 2.7 454.4 2.7 484.8 41.3"></polygon>
                <path d="M518.5,47.1 C523.4,47.1 526.8,45.1 529.7,42.1 L533,45.1 C529.4,49.1 525.1,51.8 518.3,51.8 C508.5,51.8 500.5,44.3 500.5,33.2 C500.5,22.9 507.7,14.6 517.6,14.6 C528.1,14.6 534.2,23 534.2,33.5 C534.2,34 534.2,34.5 534.1,35.2 L505.9,35.2 C506.7,42.8 512.2,47.1 518.5,47.1 Z M528.9,31.2 C528.3,24.7 524.6,19.1 517.5,19.1 C511.3,19.1 506.6,24.3 505.9,31.2 L528.9,31.2 Z" id="Shape"></path>
                <polygon id="Path" points="577.4 43.9 586.8 15.3 592.3 15.3 579.8 51.2 575.2 51.2 565.6 23.1 556 51.2 551.3 51.2 538.8 15.3 544.5 15.3 553.9 43.9 563.5 15.2 567.9 15.2"></polygon>
                <path d="M611.9,51.6 C606.8,51.6 601.2,49.6 597.2,46.4 L599.9,42.6 C603.7,45.5 608,47.1 612.2,47.1 C616.5,47.1 619.6,44.9 619.6,41.4 L619.6,41.3 C619.6,37.7 615.4,36.3 610.7,35 C605.1,33.4 598.9,31.5 598.9,25 L598.9,24.9 C598.9,18.8 604,14.7 611,14.7 C615.3,14.7 620.2,16.2 623.8,18.6 L621.4,22.6 C618.1,20.5 614.3,19.2 610.9,19.2 C606.7,19.2 604,21.4 604,24.4 L604,24.5 C604,27.9 608.4,29.2 613.2,30.6 C618.7,32.3 624.6,34.4 624.6,40.8 L624.6,40.9 C624.5,47.7 619,51.6 611.9,51.6 Z" id="Path"></path>
            </g>
            <path d="M63.9,12 C49.2,-2.7 25.6,-2.7 11,12 C-3.6,26.7 -3.6,50.3 11,64.9 C25.6,79.5 49.3,79.5 63.9,64.9 C78.5,50.2 78.5,26.6 63.9,12 Z M62.3,59.5 C60.5,57.9 58.7,56.5 56.7,55.4 C58,50.9 58.8,45.9 59,40.8 L70,40.8 C69.5,47.7 66.8,54.2 62.3,59.5 L62.3,59.5 Z M4.9,40.8 L15.9,40.8 C16.1,46 16.8,50.9 18.2,55.4 C16.2,56.6 14.4,58 12.6,59.5 C8,54.2 5.4,47.7 4.9,40.8 Z M12.5,17.3 C14.3,18.9 16.1,20.3 18.1,21.4 C16.8,25.9 16,30.9 15.8,36 L4.8,36 C5.4,29.1 8,22.6 12.5,17.3 Z M35,21.9 C31.1,21.6 27.4,20.7 23.9,19.1 C25.9,13.9 29.7,7.7 35,6.1 L35,21.9 Z M35,26.7 L35,36 L20.6,36 C20.8,31.7 21.4,27.5 22.4,23.6 C26.4,25.4 30.6,26.4 35,26.7 Z M35,40.8 L35,50.1 C30.6,50.4 26.4,51.4 22.4,53.1 C21.4,49.3 20.8,45.1 20.6,40.7 L35,40.8 L35,40.8 Z M35,54.9 L35,70.7 C29.6,69.2 25.9,62.9 23.9,57.7 C27.4,56.1 31.1,55.2 35,54.9 Z M39.8,54.9 C43.7,55.2 47.4,56.1 50.9,57.7 C48.9,62.9 45.1,69.1 39.8,70.7 L39.8,54.9 Z M39.8,50.1 L39.8,40.8 L54.2,40.8 C54,45.1 53.4,49.3 52.4,53.2 C48.4,51.4 44.2,50.4 39.8,50.1 L39.8,50.1 Z M39.8,36 L39.8,26.7 C44.2,26.4 48.4,25.4 52.4,23.7 C53.4,27.5 54,31.7 54.2,36.1 L39.8,36 L39.8,36 Z M39.8,21.9 L39.8,6.1 C45.2,7.6 48.9,13.9 50.9,19.1 C47.4,20.7 43.7,21.6 39.8,21.9 Z M50.5,8.5 C53.6,9.8 56.4,11.7 58.9,13.9 C57.7,15 56.4,15.9 55.1,16.8 C53.9,13.9 52.4,11 50.5,8.5 Z M19.7,16.8 C18.4,15.9 17.1,15 15.9,13.9 C18.5,11.7 21.3,9.8 24.3,8.5 C22.4,11 20.9,13.9 19.7,16.8 L19.7,16.8 Z M19.7,60 C20.9,62.9 22.4,65.8 24.3,68.3 C21.2,67 18.4,65.1 15.9,62.9 C17.1,61.9 18.4,60.9 19.7,60 Z M55.1,60 C56.4,60.9 57.7,61.8 58.9,62.9 C56.3,65.1 53.5,67 50.5,68.3 C52.4,65.8 53.9,63 55.1,60 L55.1,60 Z M59,36 C58.8,30.8 58.1,25.9 56.7,21.4 C58.7,20.2 60.5,18.8 62.3,17.3 C66.8,22.6 69.5,29.1 70,36 L59,36 L59,36 Z" id="Shape"></path>
        </g>
    </g>
</svg>