<?xml version="1.0" encoding="UTF-8" standalone="no"?>
<!-- Generator: Adobe Illustrator 13.0.2, SVG Export Plug-In . SVG Version: 6.00 Build 14948)  -->
<svg
   xmlns:dc="http://purl.org/dc/elements/1.1/"
   xmlns:cc="http://creativecommons.org/ns#"
   xmlns:rdf="http://www.w3.org/1999/02/22-rdf-syntax-ns#"
   xmlns:svg="http://www.w3.org/2000/svg"
   xmlns="http://www.w3.org/2000/svg"
   xmlns:sodipodi="http://sodipodi.sourceforge.net/DTD/sodipodi-0.dtd"
   xmlns:inkscape="http://www.inkscape.org/namespaces/inkscape"
   version="1.0"
   id="Layer_1"
   x="0px"
   y="0px"
   width="443.202"
   height="40"
   viewBox="0 0 443.202 35.604"
   enable-background="new 0 0 443.202 35.604"
   xml:space="preserve"
   sodipodi:version="0.32"
   inkscape:version="0.46"
   sodipodi:docname="The Irish Times logo.svg"
   inkscape:output_extension="org.inkscape.output.svg.inkscape"><metadata
   id="metadata2511"><rdf:RDF><cc:Work
       rdf:about=""><dc:format>image/svg+xml</dc:format><dc:type
         rdf:resource="http://purl.org/dc/dcmitype/StillImage" /></cc:Work></rdf:RDF></metadata><defs
   id="defs2509"><inkscape:perspective
     sodipodi:type="inkscape:persp3d"
     inkscape:vp_x="0 : 17.802 : 1"
     inkscape:vp_y="0 : 1000 : 0"
     inkscape:vp_z="443.202 : 17.802 : 1"
     inkscape:persp3d-origin="221.601 : 11.868 : 1"
     id="perspective2513" /></defs><sodipodi:namedview
   inkscape:window-height="750"
   inkscape:window-width="1280"
   inkscape:pageshadow="2"
   inkscape:pageopacity="0.0"
   guidetolerance="10.0"
   gridtolerance="10.0"
   objecttolerance="10.0"
   borderopacity="1.0"
   bordercolor="#666666"
   pagecolor="#ffffff"
   id="base"
   showgrid="false"
   inkscape:zoom="1.2274313"
   inkscape:cx="204.16588"
   inkscape:cy="17.802"
   inkscape:window-x="-8"
   inkscape:window-y="-8"
   inkscape:current-layer="Layer_1" />
<g
   id="g2480"
   transform="matrix(0.9852941,0,0,0.9852941,3.2588382,0.8616184)">
	<path
   d="M 30.749,0.736 L 30.749,10.005 L 29.866,10.005 C 29.326,7.871 28.726,6.338 28.069,5.405 C 27.411,4.473 26.509,3.728 25.362,3.175 C 24.72,2.874 23.597,2.722 21.995,2.722 L 19.494,2.722 L 19.494,29.058 C 19.494,30.81 19.588,31.907 19.779,32.343 C 19.969,32.782 20.34,33.163 20.894,33.492 C 21.447,33.821 22.202,33.986 23.161,33.986 L 24.276,33.986 L 24.276,34.869 L 6.473,34.869 L 6.473,33.986 L 7.594,33.986 C 8.573,33.986 9.362,33.809 9.96,33.455 C 10.392,33.219 10.732,32.813 10.982,32.241 C 11.164,31.837 11.255,30.777 11.255,29.057 L 11.255,2.722 L 8.754,2.722 C 6.427,2.722 4.738,3.209 3.685,4.185 C 2.207,5.545 1.274,7.486 0.883,10.005 L 0,10.005 L 0,0.736 L 30.749,0.736 z"
   id="path2482" />
	<path
   d="M 46.683,18.465 L 46.683,29.058 C 46.683,30.81 46.778,31.907 46.969,32.343 C 47.159,32.782 47.533,33.163 48.09,33.492 C 48.646,33.821 49.397,33.986 50.344,33.986 L 51.465,33.986 L 51.465,34.869 L 33.662,34.869 L 33.662,33.986 L 34.788,33.986 C 35.772,33.986 36.565,33.809 37.166,33.455 C 37.599,33.219 37.933,32.813 38.167,32.241 C 38.351,31.837 38.443,30.777 38.443,29.057 L 38.443,6.547 C 38.443,4.796 38.351,3.699 38.167,3.263 C 37.983,2.824 37.612,2.44 37.053,2.111 C 36.494,1.783 35.739,1.619 34.787,1.619 L 33.661,1.619 L 33.661,0.736 L 51.463,0.736 L 51.463,1.618 L 50.342,1.618 C 49.363,1.618 48.574,1.796 47.976,2.149 C 47.544,2.386 47.203,2.789 46.955,3.361 C 46.772,3.765 46.682,4.828 46.682,6.547 L 46.682,16.258 L 58.673,16.258 L 58.673,6.547 C 58.673,4.796 58.581,3.699 58.397,3.263 C 58.213,2.824 57.838,2.44 57.271,2.111 C 56.703,1.783 55.944,1.619 54.993,1.619 L 53.892,1.619 L 53.892,0.736 L 71.694,0.736 L 71.694,1.618 L 70.593,1.618 C 69.591,1.618 68.799,1.796 68.215,2.149 C 67.78,2.386 67.438,2.789 67.189,3.361 C 67.005,3.765 66.913,4.828 66.913,6.547 L 66.913,29.058 C 66.913,30.81 67.004,31.907 67.188,32.343 C 67.372,32.782 67.747,33.163 68.314,33.492 C 68.881,33.821 69.642,33.986 70.593,33.986 L 71.694,33.986 L 71.694,34.869 L 53.892,34.869 L 53.892,33.986 L 54.993,33.986 C 55.994,33.986 56.787,33.809 57.371,33.455 C 57.805,33.219 58.146,32.813 58.397,32.241 C 58.581,31.837 58.673,30.777 58.673,29.057 L 58.673,18.465 L 46.683,18.465 z"
   id="path2484" />
	<path
   d="M 86.796,2.722 L 86.796,16.552 L 87.479,16.552 C 89.653,16.552 91.229,15.869 92.208,14.504 C 93.185,13.138 93.809,11.124 94.079,8.46 L 94.962,8.46 L 94.962,26.409 L 94.079,26.409 C 93.877,24.46 93.451,22.862 92.802,21.616 C 92.153,20.373 91.399,19.536 90.539,19.108 C 89.679,18.678 88.431,18.464 86.796,18.464 L 86.796,28.075 C 86.796,29.953 86.876,31.102 87.035,31.521 C 87.194,31.941 87.491,32.284 87.928,32.552 C 88.364,32.822 89.068,32.954 90.041,32.954 L 92.078,32.954 C 95.264,32.954 97.817,32.219 99.737,30.75 C 101.657,29.281 103.036,27.035 103.875,24.015 L 104.82,24.015 L 103.284,34.868 L 73.775,34.868 L 73.775,33.985 L 74.901,33.985 C 75.885,33.985 76.678,33.808 77.279,33.454 C 77.713,33.218 78.046,32.812 78.28,32.24 C 78.464,31.836 78.556,30.776 78.556,29.056 L 78.556,6.547 C 78.556,4.998 78.514,4.044 78.431,3.69 C 78.263,3.102 77.955,2.647 77.505,2.328 C 76.87,1.856 76.003,1.619 74.901,1.619 L 73.775,1.619 L 73.775,0.736 L 102.317,0.736 L 102.317,10.814 L 101.434,10.814 C 100.942,8.358 100.252,6.595 99.363,5.526 C 98.473,4.458 97.215,3.673 95.59,3.172 C 94.64,2.87 92.862,2.721 90.253,2.721 L 86.796,2.721 L 86.796,2.722 z"
   id="path2486" />
	<path
   d="M 138.867,33.986 L 138.867,34.869 L 121.065,34.869 L 121.065,33.986 L 122.191,33.986 C 123.175,33.986 123.968,33.809 124.57,33.455 C 125.002,33.219 125.335,32.813 125.57,32.241 C 125.754,31.837 125.846,30.777 125.846,29.057 L 125.846,6.547 C 125.846,4.796 125.754,3.699 125.57,3.263 C 125.386,2.824 125.016,2.44 124.457,2.111 C 123.898,1.783 123.142,1.619 122.19,1.619 L 121.064,1.619 L 121.064,0.736 L 138.866,0.736 L 138.866,1.618 L 137.746,1.618 C 136.767,1.618 135.978,1.796 135.381,2.149 C 134.949,2.386 134.606,2.789 134.358,3.361 C 134.176,3.765 134.084,4.828 134.084,6.547 L 134.084,29.058 C 134.084,30.81 134.181,31.907 134.372,32.343 C 134.562,32.782 134.935,33.163 135.492,33.492 C 136.048,33.821 136.8,33.986 137.747,33.986 L 138.867,33.986 L 138.867,33.986 z"
   id="path2488" />
	<path
   d="M 153.788,19.348 L 153.788,28.911 C 153.788,30.765 153.902,31.93 154.131,32.408 C 154.36,32.888 154.762,33.272 155.339,33.557 C 155.916,33.844 156.993,33.987 158.57,33.987 L 158.57,34.87 L 140.988,34.87 L 140.988,33.987 C 142.581,33.987 143.663,33.84 144.231,33.546 C 144.799,33.252 145.198,32.868 145.426,32.397 C 145.654,31.926 145.77,30.765 145.77,28.912 L 145.77,6.694 C 145.77,4.841 145.655,3.675 145.426,3.195 C 145.197,2.717 144.795,2.334 144.218,2.049 C 143.641,1.761 142.565,1.618 140.988,1.618 L 140.988,0.736 L 156.882,0.736 C 161.019,0.736 164.047,1.02 165.964,1.593 C 167.881,2.162 169.444,3.218 170.656,4.753 C 171.867,6.291 172.473,8.091 172.473,10.158 C 172.473,12.678 171.564,14.76 169.748,16.406 C 168.587,17.447 166.964,18.229 164.879,18.749 L 173.071,30.316 C 174.149,31.788 174.915,32.705 175.37,33.068 C 176.06,33.581 176.86,33.861 177.77,33.912 L 177.77,34.868 L 167.016,34.868 L 156.024,19.347 L 153.788,19.347 L 153.788,19.348 z M 153.788,2.648 L 153.788,17.582 L 155.219,17.582 C 157.547,17.582 159.288,17.368 160.443,16.94 C 161.598,16.512 162.506,15.743 163.169,14.627 C 163.83,13.512 164.161,12.059 164.161,10.264 C 164.161,7.666 163.554,5.749 162.34,4.507 C 161.127,3.269 159.171,2.648 156.476,2.648 L 153.788,2.648 L 153.788,2.648 z"
   id="path2490" />
	<path
   d="M 196.18,33.986 L 196.18,34.869 L 178.378,34.869 L 178.378,33.986 L 179.504,33.986 C 180.488,33.986 181.281,33.809 181.883,33.455 C 182.315,33.219 182.648,32.813 182.883,32.241 C 183.067,31.837 183.159,30.777 183.159,29.057 L 183.159,6.547 C 183.159,4.796 183.067,3.699 182.883,3.263 C 182.699,2.824 182.329,2.44 181.77,2.111 C 181.211,1.783 180.455,1.619 179.503,1.619 L 178.377,1.619 L 178.377,0.736 L 196.179,0.736 L 196.179,1.618 L 195.059,1.618 C 194.08,1.618 193.291,1.796 192.693,2.149 C 192.261,2.386 191.919,2.789 191.671,3.361 C 191.489,3.765 191.397,4.828 191.397,6.547 L 191.397,29.058 C 191.397,30.81 191.494,31.907 191.685,32.343 C 191.875,32.782 192.248,33.163 192.804,33.492 C 193.361,33.821 194.112,33.986 195.059,33.986 L 196.18,33.986 L 196.18,33.986 z"
   id="path2492" />
	<path
   d="M 221.546,0 L 221.84,11.402 L 220.81,11.402 C 220.322,8.549 219.122,6.256 217.212,4.517 C 215.302,2.782 213.235,1.913 211.014,1.913 C 209.297,1.913 207.938,2.368 206.937,3.278 C 205.935,4.188 205.435,5.237 205.435,6.423 C 205.435,7.175 205.612,7.844 205.967,8.428 C 206.457,9.214 207.243,9.991 208.324,10.759 C 209.117,11.311 210.95,12.287 213.824,13.69 C 217.845,15.647 220.546,17.493 221.926,19.231 C 223.289,20.971 223.972,22.96 223.972,25.199 C 223.972,28.04 222.855,30.486 220.623,32.534 C 218.391,34.583 215.556,35.605 212.12,35.605 C 211.042,35.605 210.022,35.495 209.061,35.279 C 208.1,35.06 206.896,34.651 205.448,34.047 C 204.639,33.714 203.973,33.546 203.451,33.546 C 203.012,33.546 202.549,33.716 202.06,34.054 C 201.571,34.395 201.176,34.909 200.872,35.606 L 199.989,35.606 L 199.989,22.731 L 200.872,22.731 C 201.615,26.342 203.047,29.096 205.167,30.993 C 207.287,32.89 209.573,33.839 212.023,33.839 C 213.915,33.839 215.422,33.329 216.546,32.311 C 217.67,31.293 218.232,30.106 218.232,28.752 C 218.232,27.949 218.016,27.173 217.585,26.421 C 217.154,25.669 216.499,24.954 215.621,24.278 C 214.743,23.602 213.187,22.719 210.958,21.634 C 207.832,20.114 205.588,18.818 204.226,17.746 C 202.864,16.675 201.817,15.479 201.086,14.158 C 200.355,12.836 199.989,11.379 199.989,9.788 C 199.989,7.077 200.989,4.769 202.991,2.861 C 204.993,0.953 207.52,0 210.566,0 C 211.676,0 212.752,0.136 213.796,0.405 C 214.587,0.607 215.549,0.984 216.684,1.531 C 217.82,2.081 218.614,2.354 219.069,2.354 C 219.506,2.354 219.85,2.218 220.103,1.949 C 220.356,1.678 220.592,1.03 220.81,0 L 221.546,0 z"
   id="path2494" />
	<path
   d="M 240.149,18.465 L 240.149,29.058 C 240.149,30.81 240.245,31.907 240.435,32.343 C 240.626,32.782 240.999,33.163 241.556,33.492 C 242.113,33.821 242.863,33.986 243.81,33.986 L 244.931,33.986 L 244.931,34.869 L 227.128,34.869 L 227.128,33.986 L 228.255,33.986 C 229.238,33.986 230.031,33.809 230.633,33.455 C 231.067,33.219 231.4,32.813 231.634,32.241 C 231.818,31.837 231.909,30.777 231.909,29.057 L 231.909,6.547 C 231.909,4.796 231.817,3.699 231.634,3.263 C 231.45,2.824 231.078,2.44 230.52,2.111 C 229.961,1.783 229.207,1.619 228.255,1.619 L 227.128,1.619 L 227.128,0.736 L 244.931,0.736 L 244.931,1.618 L 243.81,1.618 C 242.831,1.618 242.042,1.796 241.445,2.149 C 241.012,2.386 240.672,2.789 240.423,3.361 C 240.24,3.765 240.15,4.828 240.15,6.547 L 240.15,16.258 L 252.141,16.258 L 252.141,6.547 C 252.141,4.796 252.049,3.699 251.865,3.263 C 251.681,2.824 251.306,2.44 250.739,2.111 C 250.171,1.783 249.413,1.619 248.461,1.619 L 247.359,1.619 L 247.359,0.736 L 265.162,0.736 L 265.162,1.618 L 264.06,1.618 C 263.058,1.618 262.266,1.796 261.682,2.149 C 261.247,2.386 260.905,2.789 260.656,3.361 C 260.472,3.765 260.381,4.828 260.381,6.547 L 260.381,29.058 C 260.381,30.81 260.472,31.907 260.655,32.343 C 260.839,32.782 261.214,33.163 261.781,33.492 C 262.349,33.821 263.109,33.986 264.06,33.986 L 265.162,33.986 L 265.162,34.869 L 247.359,34.869 L 247.359,33.986 L 248.461,33.986 C 249.462,33.986 250.255,33.809 250.839,33.455 C 251.274,33.219 251.615,32.813 251.865,32.241 C 252.05,31.837 252.141,30.777 252.141,29.057 L 252.141,18.465 L 240.149,18.465 z"
   id="path2496" />
	<path
   d="M 311.621,0.736 L 311.621,10.005 L 310.738,10.005 C 310.197,7.871 309.597,6.338 308.94,5.405 C 308.283,4.473 307.38,3.728 306.233,3.175 C 305.591,2.874 304.468,2.722 302.866,2.722 L 300.365,2.722 L 300.365,29.058 C 300.365,30.81 300.46,31.907 300.65,32.343 C 300.838,32.782 301.212,33.163 301.765,33.492 C 302.318,33.821 303.073,33.986 304.032,33.986 L 305.147,33.986 L 305.147,34.869 L 287.344,34.869 L 287.344,33.986 L 288.465,33.986 C 289.443,33.986 290.233,33.809 290.83,33.455 C 291.263,33.219 291.602,32.813 291.851,32.241 C 292.033,31.837 292.125,30.777 292.125,29.057 L 292.125,2.722 L 289.623,2.722 C 287.297,2.722 285.607,3.209 284.555,4.185 C 283.076,5.545 282.143,7.486 281.752,10.005 L 280.869,10.005 L 280.869,0.736 L 311.621,0.736 z"
   id="path2498" />
	<path
   d="M 332.336,33.986 L 332.336,34.869 L 314.533,34.869 L 314.533,33.986 L 315.66,33.986 C 316.643,33.986 317.436,33.809 318.038,33.455 C 318.472,33.219 318.805,32.813 319.039,32.241 C 319.223,31.837 319.315,30.777 319.315,29.057 L 319.315,6.547 C 319.315,4.796 319.222,3.699 319.039,3.263 C 318.855,2.824 318.483,2.44 317.925,2.111 C 317.366,1.783 316.612,1.619 315.66,1.619 L 314.533,1.619 L 314.533,0.736 L 332.336,0.736 L 332.336,1.618 L 331.215,1.618 C 330.236,1.618 329.447,1.796 328.85,2.149 C 328.417,2.386 328.077,2.789 327.828,3.361 C 327.645,3.765 327.555,4.828 327.555,6.547 L 327.555,29.058 C 327.555,30.81 327.651,31.907 327.841,32.343 C 328.031,32.782 328.405,33.163 328.962,33.492 C 329.519,33.821 330.268,33.986 331.216,33.986 L 332.336,33.986 L 332.336,33.986 z"
   id="path2500" />
	<path
   d="M 358.083,23.193 L 367.292,0.736 L 381.168,0.736 L 381.168,1.618 L 380.066,1.618 C 379.064,1.618 378.262,1.798 377.663,2.154 C 377.245,2.393 376.911,2.793 376.662,3.354 C 376.477,3.763 376.386,4.828 376.386,6.546 L 376.386,29.057 C 376.386,30.809 376.477,31.906 376.661,32.342 C 376.845,32.781 377.22,33.162 377.787,33.491 C 378.354,33.82 379.114,33.985 380.066,33.985 L 381.168,33.985 L 381.168,34.868 L 363.365,34.868 L 363.365,33.985 L 364.467,33.985 C 365.468,33.985 366.269,33.808 366.87,33.454 C 367.287,33.218 367.62,32.812 367.871,32.24 C 368.055,31.836 368.147,30.776 368.147,29.056 L 368.147,3.752 L 355.154,34.869 L 354.548,34.869 L 341.228,3.979 L 341.228,28.027 C 341.228,29.711 341.269,30.747 341.356,31.133 C 341.574,31.974 342.05,32.659 342.783,33.191 C 343.515,33.721 344.665,33.986 346.232,33.986 L 346.232,34.869 L 334.535,34.869 L 334.535,33.986 L 334.889,33.986 C 335.643,34.003 336.347,33.881 337.002,33.616 C 337.656,33.354 338.15,33 338.486,32.558 C 338.821,32.117 339.081,31.498 339.266,30.699 C 339.299,30.512 339.317,29.646 339.317,28.101 L 339.317,6.547 C 339.317,4.793 339.223,3.699 339.04,3.265 C 338.854,2.83 338.477,2.449 337.906,2.116 C 337.337,1.785 336.573,1.619 335.617,1.619 L 334.535,1.619 L 334.535,0.736 L 348.49,0.736 L 358.083,23.193 z"
   id="path2502" />
	<path
   d="M 396.299,2.722 L 396.299,16.552 L 396.982,16.552 C 399.157,16.552 400.732,15.869 401.711,14.504 C 402.689,13.138 403.313,11.124 403.582,8.46 L 404.465,8.46 L 404.465,26.409 L 403.582,26.409 C 403.38,24.46 402.953,22.862 402.306,21.616 C 401.657,20.373 400.903,19.536 400.042,19.108 C 399.183,18.678 397.934,18.464 396.3,18.464 L 396.3,28.075 C 396.3,29.953 396.379,31.102 396.539,31.521 C 396.697,31.941 396.995,32.284 397.432,32.552 C 397.868,32.822 398.573,32.954 399.545,32.954 L 401.581,32.954 C 404.768,32.954 407.32,32.219 409.24,30.75 C 411.159,29.281 412.539,27.035 413.378,24.015 L 414.322,24.015 L 412.787,34.868 L 383.279,34.868 L 383.279,33.985 L 384.405,33.985 C 385.389,33.985 386.182,33.808 386.782,33.454 C 387.217,33.218 387.55,32.812 387.785,32.24 C 387.969,31.836 388.06,30.776 388.06,29.056 L 388.06,6.547 C 388.06,4.998 388.016,4.044 387.935,3.69 C 387.767,3.102 387.458,2.647 387.008,2.328 C 386.373,1.856 385.506,1.619 384.404,1.619 L 383.278,1.619 L 383.278,0.736 L 411.82,0.736 L 411.82,10.814 L 410.937,10.814 C 410.445,8.358 409.755,6.595 408.866,5.526 C 407.976,4.458 406.718,3.673 405.093,3.172 C 404.144,2.87 402.365,2.721 399.756,2.721 L 396.299,2.721 L 396.299,2.722 z"
   id="path2504" />
	<path
   d="M 440.774,0 L 441.068,11.402 L 440.039,11.402 C 439.549,8.549 438.351,6.256 436.441,4.517 C 434.53,2.782 432.463,1.913 430.243,1.913 C 428.526,1.913 427.167,2.368 426.166,3.278 C 425.164,4.188 424.664,5.237 424.664,6.423 C 424.664,7.175 424.841,7.844 425.196,8.428 C 425.685,9.214 426.471,9.991 427.553,10.759 C 428.346,11.311 430.179,12.287 433.053,13.69 C 437.074,15.647 439.775,17.493 441.156,19.231 C 442.519,20.971 443.202,22.96 443.202,25.199 C 443.202,28.04 442.085,30.486 439.852,32.534 C 437.62,34.583 434.786,35.605 431.348,35.605 C 430.27,35.605 429.25,35.495 428.289,35.279 C 427.328,35.06 426.125,34.651 424.677,34.047 C 423.867,33.714 423.202,33.546 422.68,33.546 C 422.242,33.546 421.779,33.716 421.289,34.054 C 420.801,34.395 420.405,34.909 420.102,35.606 L 419.219,35.606 L 419.219,22.731 L 420.102,22.731 C 420.844,26.342 422.277,29.096 424.397,30.993 C 426.518,32.889 428.803,33.839 431.253,33.839 C 433.145,33.839 434.651,33.329 435.776,32.311 C 436.9,31.292 437.462,30.106 437.462,28.752 C 437.462,27.949 437.246,27.173 436.816,26.421 C 436.384,25.669 435.729,24.954 434.851,24.278 C 433.973,23.602 432.417,22.719 430.188,21.634 C 427.061,20.114 424.818,18.818 423.456,17.746 C 422.094,16.674 421.047,15.479 420.316,14.158 C 419.585,12.836 419.219,11.379 419.219,9.788 C 419.219,7.077 420.219,4.769 422.221,2.861 C 424.223,0.953 426.748,0 429.794,0 C 430.904,0 431.981,0.136 433.023,0.405 C 433.814,0.607 434.776,0.984 435.912,1.531 C 437.048,2.081 437.841,2.354 438.296,2.354 C 438.734,2.354 439.079,2.218 439.332,1.949 C 439.585,1.678 439.82,1.03 440.039,0 L 440.774,0 z"
   id="path2506" />
</g>
</svg>