<?xml version="1.0" encoding="UTF-8" standalone="no"?>
<svg
   xmlns:dc="http://purl.org/dc/elements/1.1/"
   xmlns:cc="http://creativecommons.org/ns#"
   xmlns:rdf="http://www.w3.org/1999/02/22-rdf-syntax-ns#"
   xmlns:svg="http://www.w3.org/2000/svg"
   xmlns="http://www.w3.org/2000/svg"
   xmlns:sodipodi="http://sodipodi.sourceforge.net/DTD/sodipodi-0.dtd"
   xmlns:inkscape="http://www.inkscape.org/namespaces/inkscape"
   id="Layer_1"
   data-name="Layer 1"
   viewBox="0 0 400.00001 81.712271"
   version="1.1"
   sodipodi:docname="The Atlanta Journal-Constitution (2021-04-27; via Website).svg"
   width="400"
   height="81.712273"
   inkscape:version="1.0.2-2 (e86c870879, 2021-01-15)">
  <metadata
     id="metadata80">
    <rdf:RDF>
      <cc:Work
         rdf:about="">
        <dc:format>image/svg+xml</dc:format>
        <dc:type
           rdf:resource="http://purl.org/dc/dcmitype/StillImage" />
        <dc:title>AJC - Logo - Main</dc:title>
      </cc:Work>
    </rdf:RDF>
  </metadata>
  <sodipodi:namedview
     pagecolor="#ffffff"
     bordercolor="#666666"
     borderopacity="1"
     objecttolerance="10"
     gridtolerance="10"
     guidetolerance="10"
     inkscape:pageopacity="0"
     inkscape:pageshadow="2"
     inkscape:window-width="1600"
     inkscape:window-height="837"
     id="namedview78"
     showgrid="false"
     fit-margin-top="0"
     fit-margin-left="0"
     fit-margin-right="0"
     fit-margin-bottom="0"
     inkscape:zoom="0.77162093"
     inkscape:cx="649.74916"
     inkscape:cy="144.27043"
     inkscape:window-x="-8"
     inkscape:window-y="-8"
     inkscape:window-maximized="1"
     inkscape:current-layer="Layer_1" />
  <defs
     id="defs7">
    <style
       id="style2">.cls-1{fill:none;}.cls-2{clip-path:url(#clip-path);}.cls-3{fill:#231f20;}</style>
    <clipPath
       id="clip-path"
       transform="translate(-85.46 -82.4)">
      <rect
         class="cls-1"
         width="1062"
         height="342"
         id="rect4"
         x="0"
         y="0" />
    </clipPath>
  </defs>
  <title
     id="title9">AJC - Logo - Main</title>
  <path
     class="cls-3"
     d="m 250.80698,33.118589 -0.89789,-0.96074 -1.72395,1.423152 -1.84515,-1.544367 V 14.258457 l -4.0405,-4.175178 c -0.0314,0 -3.19199,2.271656 -5.19428,3.420952 -1.1044,0.637501 -3.42095,1.584772 -5.08204,1.095423 l -0.0898,-0.03591 a 1.5982401,1.5982401 0 1 0 -2.69367,-1.176233 1.6431345,1.6431345 0 0 0 0.18407,0.740757 3.5286987,3.5286987 0 0 0 2.20431,1.76435 4.862062,4.862062 0 0 0 1.38724,0.184067 10.240409,10.240409 0 0 0 4.74983,-1.405195 c 0.30528,-0.175088 0.63301,-0.372623 0.96972,-0.583627 l 2.31206,2.397361 v 3.497272 a 15.713035,15.713035 0 0 0 -3.20097,0.448944 13.405464,13.405464 0 0 0 -2.33451,0.80361 9.3155851,9.3155851 0 0 0 -2.38838,1.67456 11.488473,11.488473 0 0 0 -1.89455,2.32104 8.9384722,8.9384722 0 0 0 -1.13582,2.657748 6.0248266,6.0248266 0 0 0 -0.16162,1.346831 c 0,3.973153 2.97649,6.31664 6.5456,7.807134 h 0.89789 l 4.04049,-3.367079 4.30088,3.591551 z m -9.71964,-0.830547 -0.40854,0.336708 h -0.0628 c -3.21893,0.03143 -5.83627,-2.356955 -5.83627,-5.270601 a 5.3873263,5.3873263 0 0 1 2.12351,-4.130283 5.9844216,5.9844216 0 0 1 1.486,-0.857483 6.8598622,6.8598622 0 0 1 2.69366,-0.448944 z"
     id="path11"
     style="stroke-width:0.448944" />
  <path
     class="cls-3"
     d="m 291.79106,15.892613 a 4.862062,4.862062 0 0 0 1.38724,0.184067 10.240409,10.240409 0 0 0 4.74982,-1.405195 c 0.30529,-0.175088 0.63301,-0.372623 0.96972,-0.583627 l 2.31206,2.397361 v 3.497272 a 15.713035,15.713035 0 0 0 -3.20097,0.448944 13.27527,13.27527 0 0 0 -2.3345,0.80361 9.3155851,9.3155851 0 0 0 -2.38839,1.67456 11.488473,11.488473 0 0 0 -1.89454,2.32104 8.9384722,8.9384722 0 0 0 -1.13583,2.657748 6.0248266,6.0248266 0 0 0 -0.16162,1.346831 c 0,3.973153 2.97201,6.31664 6.54561,7.807134 h 0.89788 l 4.0405,-3.367079 4.30537,3.591551 5.02817,-4.148241 -0.89789,-0.96074 -1.72394,1.423152 -1.84516,-1.544367 V 14.258457 l -4.0405,-4.175178 c -0.0314,0 -3.19199,2.271656 -5.19428,3.420952 -1.1044,0.637501 -3.42095,1.584772 -5.08653,1.095423 l -0.0853,-0.03591 a 1.5982401,1.5982401 0 1 0 -2.69366,-1.176233 1.7014972,1.7014972 0 0 0 0.17958,0.740757 3.5376776,3.5376776 0 0 0 2.2088,1.76435 m 9.42782,16.395429 -0.40854,0.336708 h -0.0629 c -3.21893,0.03143 -5.83627,-2.356955 -5.83627,-5.270601 a 5.3873263,5.3873263 0 0 1 2.1235,-4.130283 5.9036118,5.9036118 0 0 1 1.48601,-0.857483 6.8598622,6.8598622 0 0 1 2.69366,-0.448944 z"
     id="path13"
     style="stroke-width:0.448944" />
  <path
     class="cls-3"
     d="m 91.651889,7.2010595 a 8.8172574,8.8172574 0 0 1 4.606164,-1.6251768 c 3.43442,-0.255898 11.905987,1.8451593 14.213567,2.2043144 V 32.306 c -0.13918,0 -0.3008,0.03143 -0.44895,0.0404 -0.14815,0.009 -0.44894,0 -0.81708,0 a 13.778087,13.778087 0 0 1 -4.45801,-0.686884 9.3784372,9.3784372 0 0 1 -3.43891,-1.993311 l -1.11338,-0.79912 7.21902,-3.618487 V 11.290938 L 95.970729,17.014972 A 16.736627,16.736627 0 0 1 97.16492,11.874565 16.543581,16.543581 0 0 1 98.691329,9.0641765 L 98.386047,8.6152327 a 11.452558,11.452558 0 0 0 -5.459158,4.5837163 16.610923,16.610923 0 0 0 -2.325529,8.619723 16.431345,16.431345 0 0 0 1.050529,5.966463 14.31682,14.31682 0 0 0 3.142607,4.848594 15.941996,15.941996 0 0 0 5.387324,3.546657 17.697367,17.697367 0 0 0 6.61295,1.203169 q 5.59833,0 9.32007,-3.232396 3.72174,-3.232395 5.09102,-9.239264 l -0.52526,-0.215493 a 17.234955,17.234955 0 0 1 -3.93724,4.880019 12.63777,12.63777 0 0 1 -4.98777,2.500618 V 7.8654964 a 5.2795798,5.2795798 0 0 0 0.53874,0.026937 h 0.85299 q 3.70379,0 5.83627,-2.0426946 2.13248,-2.0426946 2.37491,-5.74199197 L 120.94099,0 a 6.3301084,6.3301084 0 0 1 -1.82721,2.2447193 4.1078363,4.1078363 0 0 1 -2.37491,0.6509686 q -1.86312,0 -5.87667,-0.9786976 c -1.38275,-0.3456868 -2.45124,-0.5881165 -3.20097,-0.7362679 -1.66558,-0.34119738 -2.99895,-0.57913763 -4.00458,-0.70484191 a 21.872545,21.872545 0 0 0 -2.66224,-0.19304586 q -5.51303,0 -8.79481,2.69366317 -3.281779,2.6936631 -3.986621,7.7667292 h 0.471391 a 11.762329,11.762329 0 0 1 2.989966,-3.506252 m 7.551236,20.705291 a 12.732048,12.732048 0 0 1 -2.244719,-3.569104 14.666996,14.666996 0 0 1 -1.077466,-5.697097 c 0,-0.05387 0,-0.107747 0,-0.157131 l 5.935043,-2.985476 v 11.048508 z"
     id="path15"
     style="stroke-width:0.448944" />
  <path
     class="cls-3"
     d="m 148.89223,12.992435 c -0.72729,0.448944 -1.42764,0.848504 -2.10106,1.185212 a 11.874565,11.874565 0 0 1 -2.47368,0.897888 v 0.372623 a 3.5197199,3.5197199 0 0 1 0.85749,1.310916 7.5557252,7.5557252 0 0 1 0.35466,2.581427 l -0.0359,12.987946 5.9485,4.992256 7.29983,-6.096658 -0.86646,-0.933803 -4.0405,3.326674 -3.16505,-2.653258 v -5.701587 q 2.63979,-2.285124 4.83063,-4.040495 2.19085,-1.75537 4.31436,-3.349121 l -6.96761,-7.632046 c -1.45009,1.12236 -2.77448,2.060653 -3.95969,2.80141 m 1.50845,10.698332 V 14.31233 l 4.93839,5.333453 z"
     id="path17"
     style="stroke-width:0.448944" />
  <path
     class="cls-3"
     d="m 204.9294,33.396934 4.66902,3.901322 5.0596,-4.179667 -0.89789,-0.96074 -1.7419,1.43662 -1.8272,-1.526409 V 14.806168 h 2.40185 l 1.99331,-1.737412 h -4.3817 V 3.2503535 h -0.32773 l -6.90924,5.3873264 v 0.4489438 c 0.98768,0 1.96637,0.1750881 1.96637,2.7295783 v 1.257043 h -1.96637 v 1.737413 h 1.96637 z"
     id="path19"
     style="stroke-width:0.448944" />
  <path
     class="cls-3"
     d="m 285.65849,33.594469 -1.8272,-1.526409 V 14.806168 h 3.7801 v -1.741902 h -3.7801 V 3.2503535 h -0.33222 l -6.90925,5.3873264 v 0.4489438 c 0.98768,0 1.96638,0.1750881 1.96638,2.7295783 v 1.252554 h -2.41532 l -2.14146,1.741902 h 4.55678 v 18.590765 l 4.66901,3.901322 5.06409,-4.179667 -0.89789,-0.96074 z"
     id="path21"
     style="stroke-width:0.448944" />
  <path
     class="cls-3"
     d="m 300.08305,55.821679 2.11004,-1.737412 h -4.89349 v -9.818402 h -0.30528 l -6.90925,5.387326 v 0.448944 c 0.98768,0 1.96638,0.175088 1.96638,2.725089 v 1.257043 h -1.96638 v 1.737412 h 1.96638 v 18.590766 l 4.66902,3.901322 5.05959,-4.179667 -0.89789,-0.96074 -1.73741,1.43662 -1.83169,-1.526409 V 55.821679 Z"
     id="path23"
     style="stroke-width:0.448944" />
  <path
     class="cls-3"
     d="m 273.32151,55.821679 2.11004,-1.737412 h -4.889 v -9.818402 h -0.33222 l -6.8868,5.387326 v 0.448944 c 0.98768,0 1.96638,0.175088 1.96638,2.725089 v 1.257043 h -1.96638 v 1.737412 h 1.96638 v 18.590766 l 4.6735,3.901322 5.03266,-4.179667 -0.89789,-0.96074 -1.7419,1.43662 -1.8272,-1.526409 V 55.821679 Z"
     id="path25"
     style="stroke-width:0.448944" />
  <path
     class="cls-3"
     d="m 338.18941,55.821679 2.11004,-1.737412 h -4.89349 v -9.818402 h -0.32773 l -6.90925,5.387326 v 0.448944 c 0.98768,0 1.96638,0.175088 1.96638,2.725089 v 1.257043 h -1.96638 v 1.737412 h 1.96638 v 18.590766 l 4.66901,3.901322 5.0596,-4.179667 -0.89789,-0.96074 -1.73741,1.43662 -1.83169,-1.526409 V 55.821679 Z"
     id="path27"
     style="stroke-width:0.448944" />
  <path
     class="cls-3"
     d="m 145.89778,74.601001 -1.84067,-1.539877 V 42.470089 h -0.32773 l -6.90925,5.387326 v 0.448944 c 0.98768,0 1.96637,0.170599 1.96637,2.72509 v 23.34508 l 4.66902,3.91928 5.0596,-4.179667 -0.89789,-0.96074 z"
     id="path29"
     style="stroke-width:0.448944" />
  <path
     class="cls-3"
     d="M 46.932591,70.192372 V 55.287436 a 12.606344,12.606344 0 0 1 -3.829491,-1.248064 31.129767,31.129767 0 0 1 -4.601675,-2.832835 14.756785,14.756785 0 0 1 -7.183101,4.440054 7.6320456,7.6320456 0 0 1 -1.185212,0.152641 v 0.516286 c 0.354666,0.341197 0.673416,0.269366 0.722799,2.491638 v 15.537947 a 12.817347,12.817347 0 0 1 3.833981,1.252554 31.695436,31.695436 0 0 1 4.601675,2.828346 14.720869,14.720869 0 0 1 6.446833,-4.211094 7.1157602,7.1157602 0 0 1 1.943927,-0.359155 V 73.339469 C 47.296236,72.966845 46.950549,73.09255 46.950549,70.196862 m -8.23812,2.244719 C 37.787605,72.037532 36.916654,71.687355 36.045702,71.382074 V 55.781275 q 1.625177,0.785651 3.048329,1.414173 1.423152,0.628521 2.666727,1.055018 v 15.59182 C 40.683293,73.317022 39.66419,72.845631 38.712429,72.428113"
     id="path31"
     style="stroke-width:0.448944" />
  <path
     class="cls-3"
     d="M 214.08786,70.192372 V 55.287436 a 12.628791,12.628791 0 0 1 -3.83398,-1.248064 31.129767,31.129767 0 0 1 -4.60168,-2.832835 15.380817,15.380817 0 0 1 -3.46135,2.859772 15.569373,15.569373 0 0 1 -3.73971,1.580282 7.6320456,7.6320456 0 0 1 -1.18521,0.152641 v 0.516286 c 0.35467,0.341197 0.67342,0.269366 0.7228,2.491638 v 15.537947 a 12.776942,12.776942 0 0 1 3.83398,1.252554 31.457496,31.457496 0 0 1 4.60168,2.828346 15.475095,15.475095 0 0 1 3.47482,-2.868751 15.129408,15.129408 0 0 1 2.98997,-1.346832 7.0484186,7.0484186 0 0 1 1.93944,-0.359155 v -0.516286 c -0.3861,-0.372623 -0.72729,-0.246919 -0.72729,-3.142607 m -8.24261,2.24472 c -0.92034,-0.40405 -1.79578,-0.754226 -2.66673,-1.059508 V 55.781275 q 1.62518,0.785651 3.05282,1.414173 1.42764,0.628521 2.66224,1.055018 v 15.59182 c -1.07747,-0.525264 -2.09657,-0.996655 -3.04833,-1.414173"
     id="path33"
     style="stroke-width:0.448944" />
  <path
     class="cls-3"
     d="M 372.53361,70.192372 V 55.287436 a 12.628791,12.628791 0 0 1 -3.83398,-1.248064 31.129767,31.129767 0 0 1 -4.60167,-2.832835 15.380817,15.380817 0 0 1 -3.46136,2.859772 15.569373,15.569373 0 0 1 -3.7397,1.580282 7.6320456,7.6320456 0 0 1 -1.18521,0.152641 v 0.516286 c 0.35466,0.341197 0.67341,0.269366 0.7228,2.491638 v 15.537947 a 12.776942,12.776942 0 0 1 3.83398,1.252554 31.457496,31.457496 0 0 1 4.60167,2.828346 15.475095,15.475095 0 0 1 3.46136,-2.855283 15.129408,15.129408 0 0 1 2.98997,-1.346832 7.0484186,7.0484186 0 0 1 1.93943,-0.359155 v -0.516285 c -0.38609,-0.372624 -0.72729,-0.246919 -0.72729,-3.142607 m -8.2426,2.244719 c -0.89789,-0.404049 -1.79578,-0.754226 -2.66673,-1.059507 V 55.781275 q 1.62518,0.785651 3.05282,1.414173 1.42764,0.628521 2.66672,1.055018 v 15.59182 q -1.62517,-0.785652 -3.05281,-1.414173"
     id="path35"
     style="stroke-width:0.448944" />
  <path
     class="cls-3"
     d="m 189.45431,72.284451 a 12.673685,12.673685 0 0 1 -5.38733,1.203169 c -0.41303,0 -0.81259,0 -1.19419,-0.04041 -0.3816,-0.04041 -0.74973,-0.06734 -1.09093,-0.121214 l -0.0269,-26.07466 q 2.36145,0.794631 4.22007,1.503962 c 1.2346,0.471391 2.32553,0.920335 3.27729,1.346832 l 4.889,-5.387327 h -0.26936 a 17.778177,17.778177 0 0 1 -5.21224,-0.817077 24.907405,24.907405 0 0 1 -5.34692,-2.365935 l -10.76568,9.149476 v 13.76013 a 11.398685,11.398685 0 0 1 -0.14815,2.105546 3.142607,3.142607 0 0 1 -0.49833,1.230106 12.301062,12.301062 0 0 1 -2.32104,-4.318839 18.676065,18.676065 0 0 1 -0.76769,-5.571394 15.124919,15.124919 0 0 1 1.5713,-6.994545 17.508811,17.508811 0 0 1 4.98328,-5.728524 l -0.10775,-0.215493 a 16.197894,16.197894 0 0 0 -8.15282,6.500707 18.855642,18.855642 0 0 0 -2.99894,10.581607 q 0,7.268401 4.53882,11.932928 4.53882,4.664527 11.57826,4.669016 5.29305,0 8.92052,-2.40185 3.62746,-2.401849 6.09666,-7.551235 l -0.37712,-0.219983 a 20.857932,20.857932 0 0 1 -5.38732,3.825002 m -8.97888,0.821567 a 14.658017,14.658017 0 0 1 -4.26048,-1.611708 13.324654,13.324654 0 0 1 -3.42095,-2.814878 q 3.00343,-2.545512 4.21558,-4.79921 a 10.806079,10.806079 0 0 0 1.20766,-5.20326 V 48.265954 l 2.24472,-1.9125 z"
     id="path37"
     style="stroke-width:0.448944" />
  <path
     id="polygon39"
     style="fill:#231f20;stroke-width:0.448944"
     d="m 159.60852,61.806101 h -9.30661 l -0.61505,3.389526 h 9.30661 z"
     class="cls-3" />
  <path
     class="cls-3"
     d="m 82.996251,54.928281 a 4.790231,4.790231 0 0 0 2.621832,1.512941 c 2.8059,0.601585 4.79921,-1.670071 5.427732,-4.511886 l -0.40405,-0.05836 a 5.0326607,5.0326607 0 0 1 -2.487149,0.413028 4.4894386,4.4894386 0 0 1 -2.442254,-1.346832 l -4.040495,3.3581 -4.004579,-3.344631 -5.059598,4.184156 0.897888,0.956251 1.741902,-1.436621 1.827202,1.530899 v 18.577297 l 4.669016,3.546656 3.452378,-2.850793 v 0 l 1.607219,-1.346832 -0.897887,-0.96074 -1.737413,1.436621 -1.831691,-1.526409 v -17.60758 z"
     id="path41"
     style="stroke-width:0.448944" />
  <path
     id="polygon43"
     style="fill:#231f20;stroke-width:0.448944"
     d="m 277.16896,48.930391 3.31321,4.112326 4.20211,-3.470336 -3.31769,-4.112326 z"
     class="cls-3" />
  <path
     id="polygon45"
     style="fill:#231f20;stroke-width:0.448944"
     d="m 283.57988,55.453546 3.1022,-2.55898 -0.91585,-0.987677 -7.46144,6.150531 v 16.355025 l 4.66901,3.901322 5.06409,-4.179667 -0.88891,-0.956251 -1.7419,1.432131 -1.8272,-1.526409 z"
     class="cls-3" />
  <path
     id="polygon47"
     style="fill:#231f20;stroke-width:0.448944"
     d="m 342.49029,48.930391 3.3177,4.112326 4.19762,-3.470336 -3.3132,-4.112326 z"
     class="cls-3" />
  <path
     id="polygon49"
     style="fill:#231f20;stroke-width:0.448944"
     d="m 348.90121,55.453546 3.1022,-2.55898 -0.91584,-0.987677 -7.46145,6.150531 v 16.355025 l 4.67351,3.901322 5.05959,-4.179667 -0.88891,-0.956251 -1.7419,1.432131 -1.8272,-1.526409 z"
     class="cls-3" />
  <path
     class="cls-3"
     d="m 133.41265,74.596512 -1.84516,-1.544367 V 55.273968 l -4.0405,-4.175178 c -0.0314,0.02245 -3.19199,2.271656 -5.18979,3.420952 -1.10889,0.637501 -3.42544,1.584772 -5.08653,1.095423 l -0.0853,-0.03591 a 1.6027296,1.6027296 0 1 0 -2.69366,-1.176233 1.6431345,1.6431345 0 0 0 0.18406,0.740757 3.5286987,3.5286987 0 0 0 2.20432,1.76435 4.8800198,4.8800198 0 0 0 1.38723,0.184067 10.226941,10.226941 0 0 0 4.74983,-1.405195 c 0.30528,-0.175088 0.63301,-0.372623 0.96972,-0.583627 l 2.31206,2.40185 v 3.492783 a 15.775887,15.775887 0 0 0 -3.20097,0.448944 13.405464,13.405464 0 0 0 -2.33451,0.80361 9.2931379,9.2931379 0 0 0 -2.38389,1.67456 11.67254,11.67254 0 0 0 -1.89903,2.32104 8.812768,8.812768 0 0 0 -1.13134,2.657748 6.029316,6.029316 0 0 0 -0.16611,1.346831 c 0,3.973153 2.9765,6.31664 6.5456,7.807134 h 0.89789 l 4.04049,-3.367079 4.30088,3.591551 5.06409,-4.179668 -0.89789,-0.960739 z m -7.10678,-1.292959 -0.40405,0.336708 h -0.0674 c -3.21443,0.03143 -5.83627,-2.356955 -5.83627,-5.270601 a 5.3873263,5.3873263 0 0 1 2.12351,-4.130283 5.9844216,5.9844216 0 0 1 1.486,-0.857483 6.8733305,6.8733305 0 0 1 2.69367,-0.448944 z"
     id="path51"
     style="stroke-width:0.448944" />
  <path
     class="cls-3"
     d="m 200.07632,32.14438 -1.93046,1.593751 -1.63864,-1.369279 V 1.4545781 h -0.37712 l -4.55678,2.0292263 a 16.750095,16.750095 0 0 0 -1.49947,-0.8305462 15.950975,15.950975 0 0 0 -5.28856,-1.4860042 14.788211,14.788211 0 0 0 -6.62641,0.8170779 14.366204,14.366204 0 0 0 -5.56241,3.5915508 12.812858,12.812858 0 0 0 -2.37941,3.3850367 11.59622,11.59622 0 0 0 -1.06848,3.8339806 11.367259,11.367259 0 0 0 0.89789,5.733013 20.651418,20.651418 0 0 0 3.86989,5.683629 l 0.87544,-1.005634 a 13.688298,13.688298 0 0 1 -2.99445,-4.170688 9.0372399,9.0372399 0 0 1 -0.83055,-4.669016 9.1764125,9.1764125 0 0 1 3.77562,-6.6533485 10.702822,10.702822 0 0 1 7.82958,-2.0561629 12.359424,12.359424 0 0 1 2.86426,0.6509686 13.585041,13.585041 0 0 1 1.26602,0.511796 L 172.63687,32.615771 a 13.189971,13.189971 0 0 0 -6.375,4.40414 l 1.07297,0.929313 a 10.891378,10.891378 0 0 1 11.95089,-2.778962 12.727558,12.727558 0 0 1 1.28847,0.588116 l 4.93838,-4.112325 -1.0191,-0.817078 -2.69366,2.244719 a 13.104671,13.104671 0 0 0 -5.16286,-1.059507 12.862242,12.862242 0 0 0 -1.87658,0.139172 l 3.83847,-6.95863 h 11.89252 v 8.278525 l -2.30757,1.899033 0.89789,0.983187 2.46919,-2.060653 3.99111,3.349122 5.46364,-4.511886 z m -9.64331,-10.909335 h -9.71515 L 188.2242,7.6365351 h 0.0314 a 4.2335406,4.2335406 0 0 1 2.17289,3.4119729 z"
     id="path53"
     style="stroke-width:0.448944" />
  <path
     class="cls-3"
     d="m 71.283306,74.596512 -1.84067,-1.544367 V 55.273968 l -3.923769,-4.067431 v 0 0 l -5.52201,4.538822 0.835036,1.010124 1.463557,-1.207659 1.867606,1.939437 V 73.842286 Q 62.53788,73.056634 61.114728,72.428113 C 60.167456,72.010595 59.251611,71.65144 58.37617,71.341669 V 57.105659 A 6.837415,6.837415 0 0 0 57.572561,53.621855 5.5803722,5.5803722 0 0 0 56.14043,52.014636 7.2279961,7.2279961 0 0 0 55.462524,51.538755 l -5.701587,4.700442 0.897888,0.969719 1.539878,-1.275001 a 2.743047,2.743047 0 0 1 0.803609,1.005635 3.3356529,3.3356529 0 0 1 0.255898,1.391726 v 15.793845 0 0.219982 a 12.754495,12.754495 0 0 1 3.829491,1.252554 31.457496,31.457496 0 0 1 4.601675,2.828346 15.578352,15.578352 0 0 1 3.461357,-2.855283 l 0.233451,-0.125704 3.452378,2.882219 1.234596,-1.019102 3.829491,-3.142607 -0.897888,-0.96074 z"
     id="path55"
     style="stroke-width:0.448944" />
  <path
     class="cls-3"
     d="m 324.7615,74.596512 -1.84516,-1.544367 V 55.273968 l -3.92377,-4.067431 v 0 0 l -5.52201,4.538822 0.83953,1.010124 1.46355,-1.207659 1.86761,1.939437 v 16.355025 q -1.62518,-0.785652 -3.04833,-1.414173 c -0.94727,-0.417518 -1.86312,-0.776673 -2.73856,-1.086444 v -14.23601 a 6.8867988,6.8867988 0 0 0 -0.80361,-3.483804 5.5803722,5.5803722 0 0 0 -1.43213,-1.607219 7.2279961,7.2279961 0 0 0 -0.6779,-0.475881 l -5.70159,4.700442 0.89789,0.969719 1.53988,-1.275001 a 2.7879414,2.7879414 0 0 1 0.8036,1.005635 3.3356529,3.3356529 0 0 1 0.2559,1.391726 v 16.013827 a 12.754495,12.754495 0 0 1 3.82949,1.252554 31.457496,31.457496 0 0 1 4.60168,2.828346 15.578352,15.578352 0 0 1 3.46136,-2.855283 l 0.23345,-0.125704 3.45237,2.882219 1.2346,-1.019102 3.825,-3.142607 -0.89789,-0.96074 z"
     id="path57"
     style="stroke-width:0.448944" />
  <path
     class="cls-3"
     d="m 111.60295,74.596512 -1.84516,-1.544367 V 55.273968 l -3.91928,-4.067431 -7.124734,5.872185 a 6.8239467,6.8239467 0 0 0 -0.80361,-3.456867 5.629756,5.629756 0 0 0 -1.427641,-1.607219 7.9507958,7.9507958 0 0 0 -0.682395,-0.475881 l -5.701587,4.700442 0.897888,0.969719 1.539877,-1.275001 a 2.743047,2.743047 0 0 1 0.80361,1.005635 3.4074839,3.4074839 0 0 1 0.260387,1.391726 v 14.505376 l -1.580282,1.714965 4.139262,3.860918 4.000095,-3.860918 -1.445604,-1.881074 V 58.784709 l 3.905814,-3.227906 1.87658,1.948416 v 16.916205 l 4.66004,3.892343 5.0596,-4.179667 -0.89789,-0.96074 z"
     id="path59"
     style="stroke-width:0.448944" />
  <path
     class="cls-3"
     d="m 238.75732,74.596512 -1.84067,-1.544367 V 55.273968 l -3.92377,-4.067431 -7.12025,5.872185 a 6.8733305,6.8733305 0 0 0 -0.8036,-3.456867 5.6477138,5.6477138 0 0 0 -1.43214,-1.607219 7.8654964,7.8654964 0 0 0 -0.6779,-0.475881 l -5.70159,4.700442 0.89789,0.969719 1.53988,-1.275001 a 2.7744731,2.7744731 0 0 1 0.79912,1.005635 3.3356529,3.3356529 0 0 1 0.26038,1.391726 v 14.505376 l -1.57579,1.714965 4.13477,3.860918 4.00009,-3.860918 -1.44111,-1.881074 V 58.784709 l 3.90582,-3.227906 1.87658,1.948416 v 16.916205 l 4.65555,3.892343 5.06409,-4.179667 -0.89789,-0.96074 z"
     id="path61"
     style="stroke-width:0.448944" />
  <path
     class="cls-3"
     d="m 399.1066,73.17336 -1.72394,1.423152 -1.84516,-1.544367 V 55.273968 l -3.91928,-4.067431 -7.12474,5.872185 a 6.8733305,6.8733305 0 0 0 -0.79912,-3.456867 5.6477138,5.6477138 0 0 0 -1.43213,-1.607219 c -0.21101,-0.16611 -0.44895,-0.32324 -0.67791,-0.475881 v 0 l -5.70158,4.700442 0.89788,0.969719 1.53539,-1.275001 a 2.743047,2.743047 0 0 1 0.80361,1.005635 3.3356529,3.3356529 0 0 1 0.26039,1.391726 v 14.505376 l -1.57579,1.714965 4.13926,3.860918 4.00009,-3.860918 -1.44111,-1.881074 V 58.784709 l 3.90132,-3.227906 1.87659,1.948416 V 74.421424 L 394.9404,78.313767 400,74.1341 Z"
     id="path63"
     style="stroke-width:0.448944" />
  <path
     class="cls-3"
     d="m 124.69865,10.015938 v 21.001593 l -1.23011,1.230106 4.60167,3.847449 3.14261,-3.142607 -1.37826,-1.153785 V 17.971223 l 4.00009,-3.236886 1.79578,1.858628 v 14.204584 c 0,4.597185 -0.57016,5.750971 -1.79578,7.075355 -1.22561,1.324384 -2.85079,2.514086 -7.34921,3.690319 l 0.10775,0.597095 c 4.04049,0 8.08099,-0.615053 10.47835,-2.693663 2.39736,-2.07861 3.62298,-3.699298 3.62298,-8.08099 V 14.505376 l -3.77562,-3.91479 -7.08434,5.800354 V 1.4545781 h -0.32324 L 122.8041,6.837415 v 0.4489438 c 0.95625,0 1.90801,0.1750881 1.90801,2.7295792"
     id="path65"
     style="stroke-width:0.448944" />
  <path
     class="cls-3"
     d="m 259.36385,17.778177 3.90132,-3.227907 1.87658,1.943927 v 16.920694 l 4.66004,3.892344 5.0596,-4.179668 -0.89789,-0.960739 -1.72394,1.423152 -1.84516,-1.544367 V 14.267436 l -3.92826,-4.07641 -7.12474,5.872185 a 6.8733305,6.8733305 0 0 0 -0.79912,-3.456867 5.7150553,5.7150553 0 0 0 -1.43213,-1.607219 7.9507958,7.9507958 0 0 0 -0.6824,-0.475881 v 0 l -5.67465,4.700442 0.89789,0.96523 1.53539,-1.270512 a 2.743047,2.743047 0 0 1 0.80361,1.005635 3.3221846,3.3221846 0 0 1 0.26039,1.391726 v 14.505376 l -1.58029,1.714965 4.13927,3.860918 4.00009,-3.860918 -1.44111,-1.881074 V 17.778177 Z"
     id="path67"
     style="stroke-width:0.448944" />
  <path
     class="cls-3"
     d="m 219.10256,10.015938 v 23.34508 l 4.66902,3.91928 5.06408,-4.179667 -0.89788,-0.96074 -1.72844,1.427641 -1.84067,-1.539877 V 1.4545781 h -0.33222 l -6.90924,5.3873263 v 0.4489439 c 0.98767,0 1.96637,0.1750881 1.96637,2.7295787"
     id="path69"
     style="stroke-width:0.448944" />
  <path
     class="cls-3"
     d="m 258.70839,51.188579 a 1.6027296,1.6027296 0 0 0 -0.61057,3.084244 c -0.22447,0.121215 -0.44894,0.23794 -0.68239,0.336708 a 5.302027,5.302027 0 0 1 -3.20546,0.359155 5.5983299,5.5983299 0 0 1 -2.64877,-1.44111 9.1943702,9.1943702 0 0 1 -1.87209,-2.491638 l -6.69376,5.966464 v 8.309951 l 4.17069,3.488293 4.32782,-3.613998 2.28064,1.908012 v 5.903612 c -0.29631,-0.134684 -0.59261,-0.260388 -0.89789,-0.368134 a 9.9665537,9.9665537 0 0 0 -4.45801,-0.56567 8.4581023,8.4581023 0 0 0 -3.99561,1.52192 8.9788772,8.9788772 0 0 0 -1.42315,1.266022 c -0.11672,0.125704 -0.44894,0.493838 -0.56118,0.624032 l 0.55669,0.448944 a 7.3132955,7.3132955 0 0 1 5.71955,-1.248064 8.260567,8.260567 0 0 1 5.06408,3.663381 l 5.62527,-5.014702 v -9.234776 l -4.16171,-3.483804 -4.32782,3.591551 -2.28063,-1.908011 v -6.047274 c 0.30977,0.179577 0.62852,0.345686 0.95176,0.493838 a 8.7858313,8.7858313 0 0 0 4.57474,0.839525 7.3896159,7.3896159 0 0 0 3.62297,-1.409684 10.482839,10.482839 0 0 0 1.4905,-1.346831 4.2290512,4.2290512 0 0 0 0.9787,-1.553346 1.6027296,1.6027296 0 0 0 -1.5309,-2.060652"
     id="path71"
     style="stroke-width:0.448944" />
  <path
     class="cls-3"
     d="m 27.753709,44.647467 -4.449033,3.250353 c -2.47817,1.750881 -4.525354,4.085389 -4.525354,7.452468 v 18.267526 a 17.396575,17.396575 0 0 1 -2.415318,2.330019 V 48.418595 c 0.206514,0 0.56118,0 0.745246,0 a 4.7632944,4.7632944 0 0 0 3.775618,-1.571303 q 1.382747,-1.571304 1.535388,-4.413118 l -0.273855,-0.0853 A 4.7812521,4.7812521 0 0 1 20.970168,44.06384 2.3479764,2.3479764 0 0 1 19.43478,44.566657 15.425711,15.425711 0 0 1 15.636715,43.812431 C 13.59402,43.210846 11.403174,42.555388 9.2617118,42.555388 q -3.5646142,0 -5.6836292,2.056163 -2.1190151,2.056163 -2.5769378,5.975443 h 0.3052818 a 8.3952502,8.3952502 0 0 1 2.303082,-3.030371 5.2661115,5.2661115 0 0 1 3.0258816,-0.897888 15.35388,15.35388 0 0 1 3.4029948,0.475881 c 1.580282,0.345687 3.452378,0.740757 5.050618,1.135828 v 9.535567 c -2.693663,0.628522 -4.906956,2.392871 -5.1000021,6.285214 l 0.5162851,0.09428 c 1.795776,-1.92597 2.819368,-2.370424 4.583717,-2.415318 V 76.832252 C 12.503086,78.417024 9.2033491,78.587623 6.3435767,77.73014 4.1751779,77.061213 2.1100361,75.763766 0.8844194,73.815349 A 5.4546679,5.4546679 0 0 1 0.48934881,73.020719 L 0,73.150912 c 0.51628544,2.837326 2.8418146,5.086534 5.2391748,6.487239 a 14.182137,14.182137 0 0 0 7.3761472,2.074121 c 3.20546,-0.07183 5.984422,-1.445599 8.435656,-3.425442 1.346831,-1.081954 2.693663,-2.442254 3.928258,-3.654403 V 52.477048 c 0,-3.456868 0.31875,-5.481605 3.178523,-7.367169 z"
     id="path73"
     style="stroke-width:0.448944" />
</svg>
