<svg width="90" height="32" viewBox="0 0 90 32" fill="none" xmlns="http://www.w3.org/2000/svg">
<path d="M74.8675 29.0062C74.7841 28.7134 74.4715 28.2532 73.9295 27.6258L72.9916 26.5591C72.8665 26.35 72.804 26.1617 72.804 25.9944C72.804 25.1578 74.2839 23.4846 77.2437 20.9748C79.2447 19.2598 81.8293 17.4401 84.9975 15.516C85.1643 15.3905 85.2476 15.2859 85.2476 15.2022C85.2476 15.1186 85.1643 15.014 84.9975 14.8885C84.2471 14.3866 83.3717 13.7591 82.3712 13.0062C81.3707 12.2114 80.2452 11.2911 78.9945 10.2454C76.0764 7.81923 74.3047 6.06237 73.6794 4.97479C73.5543 4.59832 73.4918 4.24276 73.4918 3.90812C73.4918 3.78263 73.4918 3.65714 73.4918 3.53165C73.5335 3.40616 73.5752 3.28067 73.6169 3.15518C78.9112 7.88198 84.3305 12.0022 89.8749 15.516L90 16.8964C85.1226 19.197 80.7663 22.397 76.931 26.4964C76.6809 26.7892 76.4725 27.0401 76.3057 27.2493C76.139 27.4166 76.0139 27.5421 75.9305 27.6258C75.7638 27.8349 75.6179 28.065 75.4928 28.316C75.4094 28.5251 75.3677 28.7343 75.3677 28.9434L74.8675 29.0062Z" fill="#38BDF8"/>
<path d="M15.1325 29.0062L14.6323 28.9434C14.5906 28.4415 14.0695 27.6258 13.069 26.4964C9.27543 22.4388 4.91911 19.2388 0 16.8964L0.125062 15.516C2.91811 13.7591 5.64864 11.8558 8.31663 9.80616C11.0263 7.71466 13.7151 5.49766 16.3831 3.15518C16.4248 3.28067 16.4457 3.40616 16.4457 3.53165C16.4873 3.65714 16.5082 3.78263 16.5082 3.90812C16.5082 4.24276 16.4457 4.59832 16.3206 4.97479C15.6953 6.02054 13.9027 7.7774 10.9429 10.2454C9.69231 11.2911 8.56675 12.2114 7.56625 13.0062C6.60744 13.7591 5.75285 14.3866 5.00248 14.8885C4.79404 15.014 4.68983 15.1186 4.68983 15.2022C4.68983 15.2441 4.7732 15.3486 4.93995 15.516C8.27494 17.482 10.8804 19.3016 12.7563 20.9748C15.6744 23.4846 17.1335 25.1578 17.1335 25.9944C17.1335 26.1199 17.1127 26.2245 17.071 26.3081C17.071 26.3918 17.0501 26.4754 17.0084 26.5591C16.3831 27.1029 15.7578 27.9186 15.1325 29.0062Z" fill="#38BDF8"/>
<path d="M30.5509 28.1905H42.9231L43.1017 31.2381C38.9926 31.507 34.3027 31.507 29.8809 31.507C26.263 31.507 23.9851 29.4454 23.9404 26.1289V5.87115C23.9851 2.55462 26.263 0.492996 29.8809 0.492996C34.3027 0.492996 38.9926 0.492996 43.1017 0.761903L42.9231 3.85434H30.5509C28.7196 3.85434 27.871 4.7507 27.871 6.81232V13.535H41.1811V16.7171H27.871V25.1877C27.871 27.2941 28.7196 28.1905 30.5509 28.1905Z" fill="#0284C7"/>
<path d="M57.6496 0C61.5355 0 63.5007 0.268907 66.0466 0.896358L65.6447 3.89916C62.9648 3.63025 61.2228 3.4958 57.6496 3.4958C51.6198 3.4958 49.6992 6.58824 49.6992 16C49.6992 25.4118 51.6198 28.5042 57.6496 28.5042C61.4461 28.5042 63.7687 28.3697 66.27 28.0112L66.672 30.9692C64.0814 31.6863 61.6695 32 57.6496 32C48.7613 32 45.5454 27.7871 45.5454 16C45.5454 4.21289 48.7613 0 57.6496 0Z" fill="#0284C7"/>
</svg>
